<svg id="Layer_1" data-name="Layer 1" xmlns="http://www.w3.org/2000/svg" viewBox="0 0 400 400"><defs><style>.cls-1{fill:#fff;}.cls-2{fill:#182640;}.cls-3{fill:#5d4595;}.cls-4{fill:#35679a;}</style></defs><title>SC_Square</title><rect class="cls-1" width="400" height="400"/><polygon class="cls-1" points="32.32 141.69 368.78 141.69 368.78 258.31 32.32 258.31 32.32 141.69 32.32 141.69"/><path class="cls-2" d="M85.22,197.61a20.83,20.83,0,0,0-4,.41h0c-9.24,1.7-20.51,9.07-26.76,17.9l-.16.2a29.43,29.43,0,0,1-10.47,8.8l-.61.29,0,0,0,0-.59.27,0,0-.76.3v6a49,49,0,0,0,19.66-15.67l.17-.2a23.66,23.66,0,0,1,1.68-2.09l.54-.58a30.73,30.73,0,0,1,11.77-7.58h0l.38-.11.5-.15a14.12,14.12,0,0,1,3.41-.49h.26l.42,0h0c5.32.35,6.58,5.09,2.43,10.94l0,.07a28.71,28.71,0,0,0-2.73,4.7v0c-.11.24-.2.47-.3.71s-.23.57-.33.86c-1.55,4.25-1.11,7.78,1.15,9.92l.32.29.14.12,0,0c.16.13.33.25.51.36l.07,0a10.52,10.52,0,0,0,5.72,1.43H88l.71,0,.84-.06h.11c9.56-.94,22-8.72,28.72-18.19l.08-.11.07-.11a28.28,28.28,0,0,1,7-6.74h0a16.65,16.65,0,0,1,4.3-6.81c-3.74-.06-15.8,10.06-18.44,13.56l-.07.11-.08.11c-4.14,5.85-11.92,10.64-17.73,11h0l-.44,0H92.8v0h-.07a9.22,9.22,0,0,1-1.17-.07l-.32,0-.08,0-.38-.08c-3.21-.84-4.18-3.86-2.63-7.69l0-.12,0-.07a17.1,17.1,0,0,1,1.67-2.9L90,216l.09-.12c7.15-10.1,5-18.29-4.69-18.29h-.17Z" transform="translate(0.24 0.23)"/><path class="cls-3" d="M93.57,210.62s0,0,0-.06,0,0,0-.07,0,0,0,.05,0,.05,0,.08Z" transform="translate(0.24 0.23)"/><path class="cls-2" d="M69.42,148.07a2.75,2.75,0,0,0-2.11,1,3.25,3.25,0,0,0-.88,2.31A2.33,2.33,0,0,0,67,153a2,2,0,0,0,1.52.64,2.75,2.75,0,0,0,2.07-1,3.41,3.41,0,0,0,.94-2.37,2.15,2.15,0,0,0-.6-1.59,2.06,2.06,0,0,0-1.56-.64ZM83.7,155.2A12.73,12.73,0,0,0,72.83,161a9.42,9.42,0,0,0-1.74,5.23,8.34,8.34,0,0,0,.43,2.6,10.32,10.32,0,0,0,1.32,2.58,33.15,33.15,0,0,0,3.06,3.28,38.37,38.37,0,0,1,3.18,3.43,9.66,9.66,0,0,1,1.39,2.58,6.65,6.65,0,0,1,.41,2.26A8.17,8.17,0,0,1,77.81,189a10.37,10.37,0,0,1-7.15,2.74,5.72,5.72,0,0,1-2.55-.57,4.68,4.68,0,0,1-1.8-1.43A7.66,7.66,0,0,1,65.2,187a5.63,5.63,0,0,0-.8-2.06,2,2,0,0,0-1.6-.77,2.23,2.23,0,0,0-1.69.83,3.07,3.07,0,0,0-.71,2.08q0,2.35,2.78,4.46A11.07,11.07,0,0,0,70,193.64a16.88,16.88,0,0,0,7.8-1.89A13.92,13.92,0,0,0,83.44,187a10.74,10.74,0,0,0,1.92-6,8.82,8.82,0,0,0-1.26-4.34,32.26,32.26,0,0,0-5.29-6.18A17.14,17.14,0,0,1,75.95,167a5.92,5.92,0,0,1-.63-2.74,6.92,6.92,0,0,1,2.35-5.09,7.6,7.6,0,0,1,5.49-2.29,4.12,4.12,0,0,1,3.2,1.28,4.82,4.82,0,0,1,1.21,3.47c0,1-.11,2.54-.32,4.54h1.49q.6-4.89.94-6.52a30,30,0,0,1,1-3.52c-.72-.1-1.59-.24-2.58-.43a22,22,0,0,0-4.38-.54Zm-16.41,1.28a9.19,9.19,0,0,0-4.3,1.44,23.51,23.51,0,0,0-5.54,4.75l1.34,1a33.22,33.22,0,0,1,3.44-3.12,2.76,2.76,0,0,1,1.4-.48c.37,0,.55.2.55.6A4.38,4.38,0,0,1,64,162q-4.57,14.82-4.56,18.64a2.65,2.65,0,0,0,.6,1.85,2.26,2.26,0,0,0,1.71.67,6.81,6.81,0,0,0,3.14-1.1,39.42,39.42,0,0,0,6.1-5l-1.18-1.16q-4,3.78-5,3.78a.6.6,0,0,1-.46-.27,1.25,1.25,0,0,1-.21-.73q0-2.23,3.23-13.05a57,57,0,0,0,2-7.49,1.43,1.43,0,0,0-.52-1.16,2.32,2.32,0,0,0-1.5-.43ZM105.18,158a19.09,19.09,0,0,0-6.86,1.18,16.49,16.49,0,0,0-5.59,3.52A15.62,15.62,0,0,0,87.85,174a15.87,15.87,0,0,0,1.92,7.68,16.14,16.14,0,0,0,5.41,5.79,17.83,17.83,0,0,0,4.6,2.1,18.55,18.55,0,0,0,5.1.69,22.27,22.27,0,0,0,5.62-.73,26.63,26.63,0,0,0,3.75-1.31v1.84h10.81a11.87,11.87,0,0,0,7.69-2.3,8.09,8.09,0,0,0,1-11.34,9.68,9.68,0,0,0-5.25-2.92,7.12,7.12,0,0,0,3.47-2.47,6.78,6.78,0,0,0,1.14-4,7.39,7.39,0,0,0-2.55-6q-2.52-2.12-7.17-2.12h-9.11v1a27.05,27.05,0,0,0-3.85-1.23,22.9,22.9,0,0,0-5.21-.6Zm0,4.19a17.61,17.61,0,0,1,5.06.78,26.22,26.22,0,0,1,4,1.56V183.4a22.51,22.51,0,0,1-3.82,1.69,17.6,17.6,0,0,1-5.51.91,12.23,12.23,0,0,1-8.83-3.38,12,12,0,0,1,.08-17,12.52,12.52,0,0,1,9-3.41Zm13.47.67h4.26a6.59,6.59,0,0,1,4.15,1,4,4,0,0,1,1.31,3.35,4.35,4.35,0,0,1-1.65,3.74,8.48,8.48,0,0,1-5.06,1.23h-3v-9.36Zm0,13.43h5.21q3.61,0,5.28,1.21a5,5,0,0,1,.19,7.33,7.9,7.9,0,0,1-4.75,1.14h-5.92v-9.68Z" transform="translate(0.24 0.23)"/><path class="cls-4" d="M42.4,249.55v-8.07h1.15v8.07H42.4m2.92,0v-8.07h1l5.31,6.26v-6.26h1.15v8.07h-1l-5.29-6.27v6.27H45.32m11.36,0v-7h-3v-1h7.07v1h-3v7H56.68m5.06,0v-8.07h4.85v1H62.88V245h3.6v1h-3.6v2.51h3.83v1h-5m6.42,0v-8.07h2.36a2.79,2.79,0,0,1,1.89.58,2,2,0,0,1,.66,1.63,2.08,2.08,0,0,1-.36,1.28,2.19,2.19,0,0,1-1.15.73,1.58,1.58,0,0,1,.38.29,4.16,4.16,0,0,1,.46.61l2,3H73l-1.38-2.12a4.67,4.67,0,0,0-1-1.22,1.55,1.55,0,0,0-.91-.27h-.35v3.6H68.16M69.32,245h1a1.94,1.94,0,0,0,1.21-.31,1.35,1.35,0,0,0,0-1.9,2,2,0,0,0-1.23-.3h-1V245m5.55,4.57v-8.07h1l5.31,6.26v-6.26h1.15v8.07h-1L76,243.28v6.27H74.86m10.71-3.41h2.51l-1.27-2.91-1.24,2.91m-2.66,3.41,3.49-8.07h.84l3.54,8.07H89.6l-1-2.38H85.13l-1,2.38H82.92m9.81,0v-7h-3v-1h7.07v1h-3v7H92.73m5.1,0v-8.07H99v8.07H97.82m3.71-4a3.06,3.06,0,0,0,.23,1.18,3,3,0,0,0,.66,1,3,3,0,0,0,1,.67,3.21,3.21,0,0,0,2.38,0,3.07,3.07,0,0,0,1.67-4,3.16,3.16,0,0,0-.68-1,2.93,2.93,0,0,0-1-.67,3,3,0,0,0-2.35,0,3.25,3.25,0,0,0-1,.67,2.88,2.88,0,0,0-.66,1,3.11,3.11,0,0,0-.23,1.19m-1.23,0a3.92,3.92,0,0,1,.33-1.57,4.11,4.11,0,0,1,.93-1.34,4.3,4.3,0,0,1,1.4-.91,4.48,4.48,0,0,1,3.3,0,4.11,4.11,0,0,1,2.65,3.89,4,4,0,0,1-.33,1.59,4,4,0,0,1-.92,1.33,4.38,4.38,0,0,1-1.41.91,4.46,4.46,0,0,1-1.65.31,4.39,4.39,0,0,1-1.65-.32,4.26,4.26,0,0,1-1.38-.9,4,4,0,0,1-1.26-3m9.87,4.06v-8.07h1l5.31,6.26v-6.26h1.15v8.07h-1l-5.29-6.27v6.27h-1.14m10.71-3.41h2.51l-1.27-2.91-1.24,2.91m-2.66,3.41,3.49-8.07h.84l3.54,8.07h-1.19l-1-2.38h-3.44l-1,2.38h-1.18m8.52,0v-8.07h1.14v7h3.84v1h-5m8.5-.63V247.4a4.11,4.11,0,0,0,1,.91,2.17,2.17,0,0,0,1.07.28,1.47,1.47,0,0,0,.95-.28.93.93,0,0,0,.35-.76,1.06,1.06,0,0,0-.24-.69,4.86,4.86,0,0,0-1.11-.86,7.15,7.15,0,0,1-1.72-1.37,1.93,1.93,0,0,1-.35-1.15,2,2,0,0,1,.66-1.54,2.46,2.46,0,0,1,1.72-.61,3.1,3.1,0,0,1,.92.14,3.79,3.79,0,0,1,.92.42v1.31a4.26,4.26,0,0,0-1-.62,2.24,2.24,0,0,0-.9-.2,1.4,1.4,0,0,0-.89.27.83.83,0,0,0-.34.69q0,.6,1.42,1.49l.17.1a5,5,0,0,1,1.52,1.27,2.44,2.44,0,0,1,.36,1.36,2,2,0,0,1-.67,1.53,2.47,2.47,0,0,1-1.71.6,3.53,3.53,0,0,1-1.18-.18,3.28,3.28,0,0,1-1-.59m6.67-3.4a3.06,3.06,0,0,0,.23,1.18,3,3,0,0,0,.66,1,3,3,0,0,0,1,.67,3.21,3.21,0,0,0,2.38,0,3.07,3.07,0,0,0,1.67-4,3.16,3.16,0,0,0-.68-1,2.93,2.93,0,0,0-1-.67,3,3,0,0,0-2.35,0,3.25,3.25,0,0,0-1,.67,2.88,2.88,0,0,0-.66,1,3.11,3.11,0,0,0-.23,1.19m-1.23,0a3.92,3.92,0,0,1,.33-1.57,4.11,4.11,0,0,1,.93-1.34,4.3,4.3,0,0,1,1.4-.91,4.48,4.48,0,0,1,3.3,0,4.11,4.11,0,0,1,2.65,3.89,4,4,0,0,1-.33,1.59,4,4,0,0,1-.92,1.33,4.38,4.38,0,0,1-1.41.91,4.46,4.46,0,0,1-1.65.31,4.39,4.39,0,0,1-1.65-.32,4.26,4.26,0,0,1-1.38-.9,4,4,0,0,1-1.26-3m16.74,2.15v1.3a7.05,7.05,0,0,1-1.45.57,5.76,5.76,0,0,1-1.45.19,4.8,4.8,0,0,1-1.32-.18A4.6,4.6,0,0,1,152,249a4.18,4.18,0,0,1-1.4-1.5,4.12,4.12,0,0,1-.5-2,4,4,0,0,1,1.26-2.91,4.26,4.26,0,0,1,1.45-.91,5,5,0,0,1,1.78-.31,5.93,5.93,0,0,1,1.35.16,7.46,7.46,0,0,1,1.4.49v1.25a7.4,7.4,0,0,0-1.44-.61,4.56,4.56,0,0,0-1.31-.2,3.24,3.24,0,0,0-2.34.88,3.1,3.1,0,0,0,0,4.39,3.16,3.16,0,0,0,2.28.88,4.55,4.55,0,0,0,1.42-.24,6.29,6.29,0,0,0,1.46-.72m1.35,1.91v-8.07h1.15v8.07h-1.15m2.92,0v-8.07h4.85v1h-3.71V245h3.6v1h-3.6v2.51h3.83v1h-5m8.61,0v-7h-3v-1h7.07v1h-3v7h-1.15m7,0v-4l-3.11-4h1.37l2.35,3.06,2.41-3.06h1.39l-3.23,4.09v4h-1.17m7.94,0v-8.07h4.59v1h-3.45v2.39h3.34v1h-3.34v3.62h-1.14m6.74-4a3.06,3.06,0,0,0,.23,1.18,3,3,0,0,0,.66,1,3,3,0,0,0,1,.67,3.21,3.21,0,0,0,2.38,0,3.07,3.07,0,0,0,1.67-4,3.16,3.16,0,0,0-.68-1,2.93,2.93,0,0,0-1-.67,3,3,0,0,0-2.35,0,3.25,3.25,0,0,0-1,.67,2.88,2.88,0,0,0-.66,1,3.11,3.11,0,0,0-.23,1.19m-1.23,0a3.92,3.92,0,0,1,.33-1.57,4.11,4.11,0,0,1,.93-1.34,4.3,4.3,0,0,1,1.4-.91,4.48,4.48,0,0,1,3.3,0,4.11,4.11,0,0,1,2.65,3.89,4,4,0,0,1-.33,1.59,4,4,0,0,1-.92,1.33,4.38,4.38,0,0,1-1.41.91,4.46,4.46,0,0,1-1.65.31,4.39,4.39,0,0,1-1.65-.32,4.26,4.26,0,0,1-1.38-.9,4,4,0,0,1-1.26-3m9.85,4.06v-8.07H203a2.79,2.79,0,0,1,1.89.58,2,2,0,0,1,.66,1.63,2.08,2.08,0,0,1-.36,1.28,2.19,2.19,0,0,1-1.15.73,1.58,1.58,0,0,1,.38.29,4.16,4.16,0,0,1,.46.61l2,3h-1.4L204,247.43a4.68,4.68,0,0,0-1-1.22,1.55,1.55,0,0,0-.91-.27h-.35v3.6h-1.16m1.16-4.57h1a1.94,1.94,0,0,0,1.21-.31,1.35,1.35,0,0,0,0-1.9,2,2,0,0,0-1.23-.3h-1V245m15.39,2.66v1.3a7.05,7.05,0,0,1-1.45.57,5.76,5.76,0,0,1-1.45.19,4.8,4.8,0,0,1-1.32-.18,4.6,4.6,0,0,1-1.19-.54,4.18,4.18,0,0,1-1.4-1.5,4.12,4.12,0,0,1-.5-2,4,4,0,0,1,1.26-2.91,4.26,4.26,0,0,1,1.45-.91,5,5,0,0,1,1.78-.31,5.93,5.93,0,0,1,1.35.16,7.46,7.46,0,0,1,1.4.49v1.25a7.4,7.4,0,0,0-1.44-.61,4.56,4.56,0,0,0-1.31-.2,3.24,3.24,0,0,0-2.34.88,3.1,3.1,0,0,0,0,4.39,3.16,3.16,0,0,0,2.28.88,4.55,4.55,0,0,0,1.42-.24,6.29,6.29,0,0,0,1.46-.72m2.11-2.11a3.06,3.06,0,0,0,.23,1.18,3,3,0,0,0,.66,1,3,3,0,0,0,1,.67,3.21,3.21,0,0,0,2.38,0,3.07,3.07,0,0,0,1.67-4,3.16,3.16,0,0,0-.68-1,2.93,2.93,0,0,0-1-.67,3,3,0,0,0-2.35,0,3.25,3.25,0,0,0-1,.67,2.88,2.88,0,0,0-.66,1,3.11,3.11,0,0,0-.23,1.19m-1.23,0a3.92,3.92,0,0,1,.33-1.57,4.11,4.11,0,0,1,.93-1.34,4.3,4.3,0,0,1,1.4-.91,4.48,4.48,0,0,1,3.3,0,4.11,4.11,0,0,1,2.65,3.89,4,4,0,0,1-.33,1.59,4,4,0,0,1-.92,1.33,4.38,4.38,0,0,1-1.41.91,4.46,4.46,0,0,1-1.65.31,4.39,4.39,0,0,1-1.65-.32,4.26,4.26,0,0,1-1.38-.9,4,4,0,0,1-1.26-3m9.87,4.06v-8.07h1l2.9,3.39,2.91-3.39h1v8.07h-1.12v-6.3l-2.79,3.25L229,243.25v6.3h-1.12m10.69-4.5h1.25a2,2,0,0,0,1.22-.3,1.41,1.41,0,0,0,0-1.93,1.93,1.93,0,0,0-1.22-.31H238.6v2.53m-1.14,4.5v-8.07H240a2.92,2.92,0,0,1,2,.61,2.12,2.12,0,0,1,.71,1.7,2.09,2.09,0,0,1-.71,1.68,2.94,2.94,0,0,1-2,.61H238.6v3.47h-1.14m6.34-8.07h1.15v4.63a5.11,5.11,0,0,0,.08,1.1,1.45,1.45,0,0,0,.28.56,2.25,2.25,0,0,0,.85.63,2.83,2.83,0,0,0,1.11.21,2.53,2.53,0,0,0,1.69-.54,1.78,1.78,0,0,0,.64-1.43v-5.15h1.15v5.18a2.77,2.77,0,0,1-1,2.19,3.7,3.7,0,0,1-2.51.84,4.09,4.09,0,0,1-1.65-.32,3.31,3.31,0,0,1-1.25-1,2.28,2.28,0,0,1-.44-.84,5.8,5.8,0,0,1-.13-1.42v-4.68m10.81,8.07v-7h-3v-1h7.07v1h-3v7h-1.15m5.74-3.41h2.51l-1.27-2.91-1.24,2.91m-2.66,3.41,3.49-8.07H262l3.54,8.07h-1.19l-1-2.38H259.9l-1,2.38h-1.18m9.81,0v-7h-3v-1h7.07v1h-3v7H267.5m5.1,0v-8.07h1.15v8.07H272.6m3.71-4a3.06,3.06,0,0,0,.23,1.18,3,3,0,0,0,.66,1,3,3,0,0,0,1,.67,3.21,3.21,0,0,0,2.38,0,3.07,3.07,0,0,0,1.67-4,3.16,3.16,0,0,0-.68-1,2.93,2.93,0,0,0-1-.67,3,3,0,0,0-2.35,0,3.25,3.25,0,0,0-1,.67,2.88,2.88,0,0,0-.66,1,3.11,3.11,0,0,0-.23,1.19m-1.23,0a3.92,3.92,0,0,1,.33-1.57,4.11,4.11,0,0,1,.93-1.34,4.3,4.3,0,0,1,1.4-.91,4.48,4.48,0,0,1,3.3,0,4.11,4.11,0,0,1,2.65,3.89,4,4,0,0,1-.33,1.59,4,4,0,0,1-.92,1.33,4.38,4.38,0,0,1-1.41.91,4.46,4.46,0,0,1-1.65.31,4.39,4.39,0,0,1-1.65-.32,4.26,4.26,0,0,1-1.38-.9,4,4,0,0,1-1.26-3m9.87,4.06v-8.07h1l5.31,6.26v-6.26h1.15v8.07h-1l-5.29-6.27v6.27h-1.14m10.71-3.41h2.51l-1.27-2.91-1.24,2.91M293,249.55l3.49-8.07h.84l3.54,8.07h-1.19l-1-2.38h-3.44l-1,2.38H293m8.52,0v-8.07h1.14v7h3.84v1h-5M311.58,246v2.5h1.53a2,2,0,0,0,1.23-.29,1.29,1.29,0,0,0,0-1.9,2.37,2.37,0,0,0-1.37-.31h-1.35m-1.14,3.55v-8.07h2.36a2.81,2.81,0,0,1,1.86.55,1.91,1.91,0,0,1,.66,1.56,1.75,1.75,0,0,1-.29,1,1.85,1.85,0,0,1-.9.64,2.51,2.51,0,0,1,1.36.76,1.94,1.94,0,0,1,.48,1.33,2,2,0,0,1-.74,1.6,3.07,3.07,0,0,1-2,.59h-2.8m1.14-4.61h.78a2.2,2.2,0,0,0,1.31-.32,1.13,1.13,0,0,0,.43-1,1,1,0,0,0-.34-.86,1.7,1.7,0,0,0-1.07-.27h-1.1v2.42m5.72,4.61v-8.07h1.15v8.07H317.3m3.71-4a3.06,3.06,0,0,0,.23,1.18,3,3,0,0,0,.66,1,3,3,0,0,0,1,.67,3.21,3.21,0,0,0,2.38,0,3.07,3.07,0,0,0,1.67-4,3.16,3.16,0,0,0-.68-1,2.93,2.93,0,0,0-1-.67,3,3,0,0,0-2.35,0,3.25,3.25,0,0,0-1,.67,2.88,2.88,0,0,0-.66,1,3.11,3.11,0,0,0-.23,1.19m-1.23,0a3.92,3.92,0,0,1,.33-1.57,4.11,4.11,0,0,1,.93-1.34,4.3,4.3,0,0,1,1.4-.91,4.48,4.48,0,0,1,3.3,0,4.11,4.11,0,0,1,2.65,3.89,4,4,0,0,1-.33,1.59,4,4,0,0,1-.92,1.33,4.38,4.38,0,0,1-1.41.91,4.46,4.46,0,0,1-1.65.31,4.39,4.39,0,0,1-1.65-.32,4.26,4.26,0,0,1-1.38-.9,4,4,0,0,1-1.26-3m9.91,4.06v-8.07h1.14v7h3.84v1h-5m6.31-4a3.05,3.05,0,0,0,.23,1.18,3,3,0,0,0,.66,1,3,3,0,0,0,1,.67,3.21,3.21,0,0,0,2.38,0,3.07,3.07,0,0,0,1.67-4,3.16,3.16,0,0,0-.68-1,2.94,2.94,0,0,0-1-.67,3,3,0,0,0-2.35,0,3.25,3.25,0,0,0-1,.67,2.88,2.88,0,0,0-.66,1,3.11,3.11,0,0,0-.23,1.19m-1.23,0a3.92,3.92,0,0,1,.33-1.57,4.11,4.11,0,0,1,.93-1.34,4.3,4.3,0,0,1,1.4-.91,4.48,4.48,0,0,1,3.3,0,4.11,4.11,0,0,1,2.65,3.89,4,4,0,0,1-.33,1.59,4,4,0,0,1-.92,1.33,4.38,4.38,0,0,1-1.41.91,4.46,4.46,0,0,1-1.65.31,4.39,4.39,0,0,1-1.65-.32,4.26,4.26,0,0,1-1.38-.9,4,4,0,0,1-1.26-3m16.74.11V249a9.29,9.29,0,0,1-1.51.52,5.91,5.91,0,0,1-1.35.17,5.06,5.06,0,0,1-1.37-.18,4.13,4.13,0,0,1-3.07-4,4,4,0,0,1,1.26-2.91,4.16,4.16,0,0,1,1.44-.92,5.09,5.09,0,0,1,1.79-.3,5.78,5.78,0,0,1,1.35.16,7.59,7.59,0,0,1,1.39.48v1.25a7.4,7.4,0,0,0-1.44-.61,4.56,4.56,0,0,0-1.31-.2,3.24,3.24,0,0,0-2.34.88,3.09,3.09,0,0,0,0,4.39,3.17,3.17,0,0,0,2.29.88,4.06,4.06,0,0,0,.83-.09,5.16,5.16,0,0,0,.86-.28v-1.56H348.8v-1.07h2.7m3.21,4v-4l-3.11-4H353l2.35,3.06,2.41-3.06h1.39l-3.23,4.09v4h-1.17" transform="translate(0.24 0.23)"/><path class="cls-4" d="M54,197.73a34.09,34.09,0,0,0-12.24,4v5.88a19.69,19.69,0,0,1,8.67-2.65h.27c5.89,0,7.08,5,2.75,11.12l0,0c-5.85,8.23-5.53,15.18.09,17.47a9.76,9.76,0,0,0,1.38.44,12.11,12.11,0,0,0,1.5.28h.07l.78.06c.31,0,.62,0,1,0h0l0,0h.06c4.27,0,9.29-1.57,14.2-4.17l0,0,1-.56h0l1-.6.55-.33.5-.29,0,0,1-.65,0,0A47,47,0,0,0,89,216.22l.05-.06c3.78-5.32,10.8-10,16.44-11h0a12.7,12.7,0,0,1,2.12-.19h0c5.89,0,7.42,4.88,3.09,11l0,.07a28.68,28.68,0,0,0-2.74,4.7v0c-.11.24-.2.47-.3.71s-.23.57-.33.86c-1.56,4.25-1.12,7.78,1.15,9.92l.32.29.14.12,0,0c.16.13.34.25.51.36l.07,0a10.59,10.59,0,0,0,5.74,1.43h.16a29.79,29.79,0,0,0,14.35-4.08l-.45-.42a17.79,17.79,0,0,1-2.75-3.94,14.57,14.57,0,0,1-6,1.16h0v0h-.07a6.22,6.22,0,0,1-3.85-1.08l-.29-.24-.26-.27c-.08-.09-.15-.19-.22-.29s-.14-.2-.2-.31l-.06-.08-.12-.24c-.05-.11-.1-.23-.14-.35-.71-2,0-4.92,2.31-8.15l.07-.1.08-.12c7.18-10.1,5.07-18.29-4.71-18.29H113a21,21,0,0,0-4,.41h-.06c-9.28,1.7-20.59,9.07-26.87,17.9l-.16.2a29.52,29.52,0,0,1-10.51,8.8l-.6.29-.05,0,0,0-.59.27,0,0a17.69,17.69,0,0,1-6.68,1.55h-.65a7.88,7.88,0,0,1-1.24-.17l-.14,0c-4.13-1-4.64-5.46-.85-10.78l.12-.2c7.18-10.1,5.08-18.29-4.7-18.29h-.07l0,0h-.29l-1.57.08Z" transform="translate(0.24 0.23)"/><path class="cls-4" d="M144.86,187l1.34-5.71a21.24,21.24,0,0,0,4.56,2.78,10.83,10.83,0,0,0,4.13.88,6.21,6.21,0,0,0,4.23-1.5,5.67,5.67,0,0,0,1.93-3.89q.24-2.78-5.12-7.78l-.27-.26a23.13,23.13,0,0,1-5.06-6.08,10.47,10.47,0,0,1-1-5.65A11.06,11.06,0,0,1,153.7,152a13.77,13.77,0,0,1,12.14-2.7,26.9,26.9,0,0,1,3.83,1.31l-1.06,5.28a17,17,0,0,0-3.38-1.5,9.81,9.81,0,0,0-3-.51,8.19,8.19,0,0,0-5.1,1.56,5.48,5.48,0,0,0-2.24,4q-.27,3,5.17,8.18l.6.57.27.26q5.79,5.45,5.34,10.51a11.67,11.67,0,0,1-3.78,8,12.25,12.25,0,0,1-8.52,3,14.64,14.64,0,0,1-4.58-.74,19,19,0,0,1-4.5-2.24" transform="translate(0.24 0.23)"/><path class="cls-4" d="M185,178.16q-.33,1.25-.51,2.13a13.19,13.19,0,0,0-.24,1.53,3.32,3.32,0,0,0,.54,2.47,2.92,2.92,0,0,0,2.28.8,6.19,6.19,0,0,0,2-.37,12.22,12.22,0,0,0,2.34-1.16l-.4,4.6a16.66,16.66,0,0,1-3.11,1.25,9.5,9.5,0,0,1-2.68.43,6,6,0,0,1-4.72-1.93,6.65,6.65,0,0,1-1.41-5.14,15.5,15.5,0,0,1,.3-1.9q.23-1.05.73-2.81l3.2-11.3h-4.21l1.11-3.72h4.27l1.7-5.51h4.91L189.45,163h4.91l-1.14,3.72h-4.94L185,178.16" transform="translate(0.24 0.23)"/><path class="cls-4" d="M227.91,163l-6,26.24h-4.8L218,185a21.11,21.11,0,0,1-4.83,3.66,9.78,9.78,0,0,1-4.45,1.16,4.92,4.92,0,0,1-4.21-1.87,7.68,7.68,0,0,1-1.07-5.31q.08-.88.24-1.87t.43-2.16L207.78,163h4.78l-3.67,16.7q-.18.8-.32,1.5t-.15,1.11a3.12,3.12,0,0,0,.53,2.33,2.67,2.67,0,0,0,2.09.77,6.85,6.85,0,0,0,3.73-1.33,21,21,0,0,0,4.23-4L223.11,163h4.8" transform="translate(0.24 0.23)"/><path class="cls-4" d="M259.92,149.82,257,162.63h-1.1a22.37,22.37,0,0,0-6.22.8,15.74,15.74,0,0,0-5,2.39,18.76,18.76,0,0,0-5.28,5.7,16.65,16.65,0,0,0-2.3,7.1q-.46,5.31,2.73,8.38t9.32,3.07c.67,0,1.5,0,2.52-.11s2.3-.17,3.86-.34l9.12-39.78ZM254.73,167l.56,0,.6,0-4.19,18.57a10.12,10.12,0,0,1-1.21.23c-.42,0-.89.06-1.41.06a6.66,6.66,0,0,1-5.28-2.19,7.55,7.55,0,0,1-1.57-5.79,11.46,11.46,0,0,1,3.87-7.87,12.59,12.59,0,0,1,8.64-3.07Z" transform="translate(0.24 0.23)"/><path class="cls-4" d="M284,162.4a11.71,11.71,0,0,0-9,4.26,18.18,18.18,0,0,0-4.35,10.8,12.27,12.27,0,0,0,2.22,8.92,8.92,8.92,0,0,0,7.42,3.46,13.45,13.45,0,0,0,4.25-.71,19.76,19.76,0,0,0,4.45-2.24l1.25-5.29a25.19,25.19,0,0,1-5,3,10.47,10.47,0,0,1-4.18.93,4.89,4.89,0,0,1-4.13-2.13,7.7,7.7,0,0,1-1.29-5.37l.06-.65.26-1.73H291.7l.26-3q.43-5-1.63-7.61T284,162.4Zm-.25,4.06a3.67,3.67,0,0,1,3,1.31,4.77,4.77,0,0,1,.85,3.52l-.06.71H277a9.91,9.91,0,0,1,2.69-4.17,6,6,0,0,1,4-1.37Z" transform="translate(0.24 0.23)"/><path class="cls-4" d="M301.45,189.83l6.07-26.24h4.8l-1,4.2a21.42,21.42,0,0,1,4.83-3.63,9.61,9.61,0,0,1,4.45-1.19,4.81,4.81,0,0,1,4.18,1.9,7.58,7.58,0,0,1,1.1,5.31q-.07.85-.24,1.87t-.43,2.13l-3.58,15.65h-4.8l3.75-16.92q.18-.82.29-1.5t.15-1.11a3,3,0,0,0-.53-2.3,2.56,2.56,0,0,0-2.09-.8,6.85,6.85,0,0,0-3.73,1.33,21,21,0,0,0-4.23,4l-4.16,17.32h-4.83" transform="translate(0.24 0.23)"/><path class="cls-4" d="M344.44,178.16q-.33,1.25-.51,2.13a13.19,13.19,0,0,0-.24,1.53,3.32,3.32,0,0,0,.54,2.47,2.92,2.92,0,0,0,2.28.8,6.19,6.19,0,0,0,2-.37,12.22,12.22,0,0,0,2.34-1.16l-.4,4.6a16.66,16.66,0,0,1-3.11,1.25,9.5,9.5,0,0,1-2.68.43,6,6,0,0,1-4.72-1.93,6.65,6.65,0,0,1-1.41-5.14,15.5,15.5,0,0,1,.3-1.9q.23-1.05.73-2.81l3.2-11.3h-4.21l1.11-3.72h4.27l1.7-5.51h4.91L348.87,163h4.91l-1.14,3.72h-4.94l-3.27,11.41" transform="translate(0.24 0.23)"/><path class="cls-2" d="M158.22,230.91a25.66,25.66,0,0,1-6.33,2.76,25.2,25.2,0,0,1-6.8.9,20.66,20.66,0,0,1-7.41-1.29,16.87,16.87,0,0,1-5.89-3.8,17.75,17.75,0,0,1-4-6.09,20.56,20.56,0,0,1-1.35-7.49q0-8.42,5.33-13.56t14.12-5.17a25.76,25.76,0,0,1,6.11.72,26.68,26.68,0,0,1,5.92,2.22v8.47a23.26,23.26,0,0,0-5.72-2.89,18.11,18.11,0,0,0-5.75-1,11.14,11.14,0,0,0-8.2,3q-3,3-3,8.19a11.3,11.3,0,0,0,2.85,8.08,10,10,0,0,0,7.66,3,18,18,0,0,0,6.21-1.14,26.16,26.16,0,0,0,6.21-3.41v8.44" transform="translate(0.24 0.23)"/><path class="cls-2" d="M180.35,197.24A20.51,20.51,0,0,0,173,198.5a16.92,16.92,0,0,0-5.89,3.85,17.85,17.85,0,0,0-4,6.12,21.07,21.07,0,0,0,0,14.87,17.89,17.89,0,0,0,4,6.05,17.29,17.29,0,0,0,5.91,3.9,21.53,21.53,0,0,0,14.71,0,17.8,17.8,0,0,0,10-9.95,20.79,20.79,0,0,0,0-14.87,18,18,0,0,0-4-6.12,17,17,0,0,0-5.91-3.82,20.29,20.29,0,0,0-7.42-1.3Zm0,7.57a9,9,0,0,1,7,3.13,12.83,12.83,0,0,1,0,15.93,9.56,9.56,0,0,1-14.09,0,12.9,12.9,0,0,1,0-15.93,9,9,0,0,1,7-3.13Z" transform="translate(0.24 0.23)"/><path class="cls-2" d="M236.3,197.81v20.69q0,7.59-4.3,11.85t-12,4.24q-7.66,0-12-4.24t-4.27-11.85V197.81h8.64v20.32q0,4.31,2,6.61a7.12,7.12,0,0,0,5.7,2.27,7,7,0,0,0,5.65-2.27q1.94-2.27,1.94-6.61V197.81h8.59" transform="translate(0.24 0.23)"/><polyline class="cls-2" points="251.59 211.46 251.59 234.16 243.09 234.16 243.09 198.03 250.63 198.03 269.05 219.57 269.05 198.03 277.54 198.03 277.54 234.16 270.81 234.16 251.59 211.46"/><path class="cls-2" d="M314.08,230.91a25.66,25.66,0,0,1-6.33,2.76,25.2,25.2,0,0,1-6.8.9,20.66,20.66,0,0,1-7.41-1.29,16.87,16.87,0,0,1-5.89-3.8,17.75,17.75,0,0,1-4-6.09,20.56,20.56,0,0,1-1.35-7.49q0-8.42,5.33-13.56t14.12-5.17a25.76,25.76,0,0,1,6.11.72,26.68,26.68,0,0,1,5.92,2.22v8.47a23.25,23.25,0,0,0-5.72-2.89,18.11,18.11,0,0,0-5.75-1,11.14,11.14,0,0,0-8.2,3q-3,3-3,8.19A11.3,11.3,0,0,0,294,224a10,10,0,0,0,7.66,3,18,18,0,0,0,6.21-1.14,26.16,26.16,0,0,0,6.21-3.41v8.44" transform="translate(0.24 0.23)"/><polyline class="cls-2" points="319.75 234.16 319.75 198.03 328.61 198.03 328.61 234.16 319.75 234.16"/><polyline class="cls-2" points="335.51 234.16 335.51 198.03 344.1 198.03 344.1 227.19 358.91 227.19 358.91 234.16 335.51 234.16"/><path class="cls-2" d="M94.25,203.73A50.11,50.11,0,0,0,85,212.08a18.41,18.41,0,0,1-2,3.81l0,.07a28.71,28.71,0,0,0-2.73,4.7v0c-.11.24-.2.47-.3.71s-.23.57-.33.86a18.63,18.63,0,0,0-.9,4.73A49.56,49.56,0,0,0,89.2,216.22l0-.06A21.64,21.64,0,0,1,92,212.85a18.45,18.45,0,0,0,2.22-9.12Z" transform="translate(0.24 0.23)"/><path class="cls-2" d="M94.25,203.73c-4.38-3.85-7.46-1-9.23,8.35a18.41,18.41,0,0,1-2,3.81l0,.07a28.71,28.71,0,0,0-2.73,4.7v0c-.11.24-.2.47-.3.71s-.23.57-.33.86a18.63,18.63,0,0,0-.9,4.73c7.7,0,8.7-9.32,13.34-14.13a18.45,18.45,0,0,0,2.22-9.12Z" transform="translate(0.24 0.23)"/></svg>