<?xml version="1.0" encoding="utf-8"?>
<!-- Generator: Adobe Illustrator 22.1.0, SVG Export Plug-In . SVG Version: 6.00 Build 0)  -->
<svg version="1.1" id="Layer_1" xmlns="http://www.w3.org/2000/svg" xmlns:xlink="http://www.w3.org/1999/xlink" x="0px" y="0px"
	 viewBox="0 0 871.8 330" style="enable-background:new 0 0 871.8 330;" xml:space="preserve">
<g>
	<path d="M64.7,167.5c-9.5,0.9-20.2,4.5-30.7,10v14.8c7.5-4.1,15.2-6.6,21.7-6.7c0.2,0,0.3,0,0.5,0l0,0c0.1,0,0.2,0,0.3,0
		c14.8,0,17.7,12.6,6.9,27.9l-0.1,0.1c-14.7,20.6-13.9,38.1,0.2,43.8c1.1,0.4,2.2,0.8,3.5,1.1c1.2,0.3,2.4,0.5,3.8,0.7
		c0.1,0,0.1,0,0.2,0c0.6,0.1,1.3,0.1,2,0.1c0.8,0,1.6,0.1,2.4,0.1h0.1l-0.1,0.1c0.1,0,0.1,0,0.2,0c10.7,0,23.3-3.9,35.6-10.4
		c0,0,0.1,0,0.1-0.1c0.9-0.5,1.7-0.9,2.6-1.4c0,0,0,0,0.1,0c0.9-0.5,1.7-1,2.6-1.5c0.5-0.3,0.9-0.5,1.4-0.8c0.4-0.3,0.8-0.5,1.3-0.7
		c0,0,0,0,0.1,0c0.8-0.5,1.7-1.1,2.5-1.6c0,0,0,0,0.1-0.1c12-7.9,23-17.9,30.9-29l0.1-0.1c9.5-13.3,27.1-25,41.2-27.7c0,0,0,0,0.1,0
		c1.8-0.3,3.6-0.5,5.3-0.5h0.1c14.8,0,18.6,12.2,7.8,27.5l-0.1,0.2c-2.9,4.1-5.2,8-6.9,11.8c0,0,0,0,0,0c-0.3,0.6-0.5,1.2-0.8,1.8
		c-0.3,0.7-0.6,1.4-0.8,2.2c-3.9,10.7-2.8,19.5,2.9,24.9c0.3,0.2,0.5,0.5,0.8,0.7c0.1,0.1,0.2,0.2,0.4,0.3c0,0,0.1,0,0.1,0.1
		c0.4,0.3,0.8,0.6,1.3,0.9c0.1,0,0.1,0.1,0.2,0.1c3.6,2.3,8.4,3.6,14.4,3.6c0.1,0,0.2,0,0.3,0c0.1,0,0.1,0,0.1,0
		c11.2,0,23.2-3.2,36-10.2c-0.4-0.3-0.8-0.7-1.1-1.1c-2.9-2.9-4.9-6.4-6.9-9.9c-5.6,2.3-10.1,2.9-15,2.9c0,0-0.1,0-0.1,0l0-0.1
		c-0.1,0-0.1,0-0.2,0c-4.2,0-7.4-1-9.7-2.7c-0.3-0.2-0.5-0.4-0.7-0.6c-0.2-0.2-0.4-0.4-0.7-0.7c-0.2-0.2-0.4-0.5-0.6-0.7
		c-0.2-0.2-0.3-0.5-0.5-0.8c0-0.1-0.1-0.1-0.2-0.2c-0.1-0.2-0.2-0.4-0.3-0.6c-0.1-0.3-0.2-0.6-0.4-0.9c-1.8-5.1,0-12.3,5.8-20.4
		c0.1-0.1,0.1-0.2,0.2-0.2c0.1-0.1,0.1-0.2,0.2-0.3c18-25.3,12.7-45.9-11.8-45.9c-0.1,0-0.1,0-0.2,0c-0.1,0-0.2,0-0.3,0
		c-3.2,0-6.5,0.4-10,1c0,0-0.1,0-0.2,0c-23.3,4.3-51.6,22.7-67.4,44.9c-0.2,0.2-0.2,0.3-0.4,0.5c-6.4,9-16.3,17-26.4,22.1
		c-0.5,0.3-1,0.5-1.5,0.7c0,0-0.1,0-0.1,0.1c0,0-0.1,0-0.1,0c-0.5,0.2-1,0.5-1.5,0.7c0,0-0.1,0-0.1,0c-5.9,2.5-11.7,3.9-16.8,3.9
		h-0.1l0,0c-0.1,0-0.2,0-0.3,0c-0.5,0-0.9,0-1.4,0c-1.1-0.1-2.1-0.2-3.1-0.4c-0.1,0-0.2,0-0.4-0.1c-10.4-2.6-11.6-13.7-2.1-27.1
		l0.3-0.5c18-25.3,12.7-45.9-11.8-45.9c-0.1,0-0.1,0-0.2,0l-0.1,0.1c-0.1,0-0.2,0-0.3,0c-0.2,0-0.3,0-0.5,0L64.7,167.5L64.7,167.5z"
		/>
	<path d="M143,167.2c-3.2,0-6.5,0.4-9.9,1c0,0-0.1,0-0.1,0c-23.2,4.3-51.4,22.7-67.1,44.9c-0.2,0.2-0.2,0.3-0.4,0.5
		c-6.4,9-16.2,17-26.2,22.1c-0.5,0.3-1,0.5-1.5,0.7c0,0-0.1,0-0.1,0.1c0,0-0.1,0-0.1,0c-0.5,0.2-1,0.5-1.5,0.7c0,0-0.1,0-0.1,0
		c-0.6,0.3-1.3,0.5-1.9,0.8V253c18.5-8,37.5-22.6,49.3-39.3l0.4-0.5c1.3-1.8,2.7-3.5,4.2-5.2c0.4-0.5,0.9-1,1.4-1.5
		c8.3-8.5,19.4-15.7,29.5-19c0,0,0,0,0,0c0,0,0,0,0,0c0.3-0.1,0.6-0.2,0.9-0.3c0.4-0.1,0.8-0.3,1.3-0.4c3-0.8,5.9-1.2,8.6-1.2h0.1
		c0.2,0,0.4,0,0.6,0c0.4,0,0.7,0,1.1,0c0,0,0,0,0,0c13.4,0.9,16.5,12.8,6.1,27.5l-0.1,0.2c-2.9,4.1-5.1,8-6.9,11.8c0,0,0,0,0,0
		c-0.3,0.6-0.5,1.2-0.8,1.8c-0.3,0.7-0.6,1.4-0.8,2.2c-3.9,10.7-2.8,19.5,2.9,24.9c0.3,0.2,0.5,0.5,0.8,0.7c0.1,0.1,0.2,0.2,0.4,0.3
		c0,0,0.1,0,0.1,0.1c0.4,0.3,0.8,0.6,1.3,0.9c0.1,0,0.1,0.1,0.2,0.1c3.6,2.3,8.4,3.6,14.3,3.6c0.1,0,0.2,0,0.3,0c0.1,0,0.1,0,0.1,0
		c0.3,0,0.5,0,0.8,0c0.6,0,1.2,0,1.8-0.1c0.7,0,1.4-0.1,2.1-0.1c0.1,0,0.2,0,0.3,0c24-2.3,55.2-21.9,72-45.6
		c0.1-0.1,0.1-0.2,0.2-0.3c0.1-0.1,0.1-0.2,0.2-0.3c4.5-6.4,10.8-12.2,17.6-16.9c0,0,0,0,0,0c2.2-6.6,5.8-12.2,10.8-17.1
		c-9.4-0.2-39.6,25.2-46.3,34c-0.1,0.1-0.1,0.2-0.2,0.3c-0.1,0.1-0.1,0.2-0.2,0.3c-10.4,14.7-29.9,26.7-44.5,27.6c0,0,0,0-0.1,0
		c-0.4,0-0.7,0-1.1,0.1c-0.1,0-0.2,0-0.3,0c-0.1,0-0.2,0-0.3,0c0,0,0,0-0.1,0l0-0.1c-0.1,0-0.1,0-0.2,0c-1,0-2-0.1-2.9-0.2
		c-0.3,0-0.5-0.1-0.8-0.1c-0.1,0-0.1,0-0.2-0.1c-0.3-0.1-0.6-0.1-1-0.2c-8.1-2.1-10.5-9.7-6.6-19.3c0-0.1,0.1-0.2,0.1-0.3
		c0-0.1,0-0.1,0.1-0.2c1-2.3,2.4-4.8,4.2-7.3c0.1-0.1,0.1-0.2,0.2-0.2c0.1-0.1,0.2-0.2,0.2-0.3c17.9-25.3,12.7-45.9-11.8-45.9
		c-0.1,0-0.1,0-0.1,0C143.2,167.2,143.1,167.2,143,167.2L143,167.2z"/>
	<path d="M164,199.9c0-0.1,0-0.1,0-0.2c0-0.1,0-0.1,0-0.2c0,0,0,0.1,0,0.1C164,199.7,164,199.8,164,199.9L164,199.9z"/>
	<path d="M103.4,43c-2,0-3.8,0.8-5.3,2.4c-1.5,1.6-2.2,3.5-2.2,5.8c0,1.7,0.5,3.1,1.5,4.2c1,1.1,2.3,1.6,3.8,1.6
		c1.9,0,3.7-0.8,5.2-2.5c1.6-1.7,2.4-3.7,2.4-5.9c0-1.6-0.5-3-1.5-4C106.3,43.5,105,43,103.4,43L103.4,43z M139.2,60.9
		c-5.9,0-11.2,1.3-15.9,3.9c-4.6,2.6-8.4,6.1-11.3,10.5c-2.9,4.4-4.4,8.8-4.4,13.1c0,2.2,0.4,4.3,1.1,6.5c0.7,2.2,1.8,4.3,3.3,6.5
		c1.1,1.5,3.6,4.2,7.7,8.2c4.1,4.1,6.8,7,8,8.6c1.7,2.4,2.9,4.6,3.5,6.5c0.7,1.9,1,3.8,1,5.7c0,5.6-2.6,10.7-7.7,15.4
		c-5.1,4.6-11.1,6.9-17.9,6.9c-2.3,0-4.4-0.5-6.4-1.4c-1.9-0.9-3.4-2.1-4.5-3.6c-1.1-1.4-2-3.8-2.8-7c-0.7-2.7-1.3-4.4-2-5.2
		c-1.1-1.3-2.4-1.9-4-1.9c-1.6,0-3,0.7-4.2,2.1c-1.2,1.4-1.8,3.1-1.8,5.2c0,3.9,2.3,7.7,7,11.2c4.7,3.5,10.4,5.3,17.2,5.3
		c6.9,0,13.4-1.6,19.6-4.7c6.2-3.1,10.9-7.1,14.1-11.9c3.2-4.8,4.8-9.9,4.8-15.1c0-3.5-1.1-7.2-3.2-10.9c-2.1-3.7-6.5-8.9-13.3-15.5
		c-3.7-3.7-6.1-6.6-7.2-8.6c-1.1-2.1-1.6-4.3-1.6-6.9c0-4.7,2-9,5.9-12.8c3.9-3.8,8.5-5.8,13.8-5.8c3.4,0,6.1,1.1,8,3.2
		c2,2.1,3,5,3,8.7c0,2.6-0.3,6.4-0.8,11.4h3.7c1-8.2,1.8-13.6,2.4-16.3c0.6-2.8,1.4-5.7,2.4-8.8c-1.8-0.2-4-0.6-6.5-1.1
		C145.9,61.3,142.2,60.9,139.2,60.9L139.2,60.9z M98.1,64.1c-3,0-6.6,1.2-10.8,3.6C83.1,70,78.5,74,73.4,79.6l3.4,2.6
		c4.5-4.4,7.4-7,8.6-7.8c1.3-0.8,2.5-1.2,3.5-1.2c0.9,0,1.4,0.5,1.4,1.5c0,0.9-0.2,2-0.6,3.1c-7.6,24.8-11.4,40.4-11.4,46.7
		c0,2,0.5,3.5,1.5,4.6c1.1,1.1,2.5,1.7,4.3,1.7c2,0,4.7-0.9,7.9-2.8c3.2-1.8,8.3-6,15.3-12.6l-3-2.9c-6.7,6.3-10.9,9.5-12.5,9.5
		c-0.4,0-0.8-0.2-1.2-0.7c-0.4-0.5-0.5-1.1-0.5-1.8c0-3.7,2.7-14.6,8.1-32.7c3.3-11.1,5-17.3,5-18.8c0-1.2-0.4-2.2-1.3-2.9
		C101,64.5,99.7,64.1,98.1,64.1L98.1,64.1z M193.1,68c-6.3,0-12,1-17.2,3c-5.2,1.9-9.9,4.9-14,8.8c-3.9,3.7-6.9,8-9.1,13
		c-2.1,4.9-3.2,10-3.2,15.3c0,6.9,1.6,13.3,4.8,19.3c3.2,5.9,7.8,10.7,13.6,14.5c3.6,2.3,7.5,4.1,11.5,5.3c4.1,1.2,8.3,1.7,12.8,1.7
		c4.7,0,9.4-0.6,14.1-1.8c3.2-0.8,6.3-1.9,9.4-3.3v4.6H243c8.1,0,14.6-1.9,19.3-5.8c4.8-3.9,7.2-9,7.2-15.5c0-5.1-1.6-9.4-4.7-12.9
		c-3.1-3.5-7.5-6-13.2-7.3c3.9-1.5,6.8-3.5,8.7-6.2c1.9-2.7,2.9-6,2.9-10.1c0-6.5-2.1-11.5-6.4-15.1c-4.2-3.5-10.2-5.3-18-5.3h-22.8
		v2.5c-3.3-1.3-6.5-2.4-9.7-3.1C201.9,68.5,197.5,68,193.1,68L193.1,68z M193.1,78.5c4.1,0,8.3,0.6,12.7,2c3.2,0.9,6.5,2.2,10,3.9
		v47.2c-3.2,1.8-6.4,3.2-9.6,4.2c-4.7,1.5-9.3,2.3-13.8,2.3c-8.9,0-16.3-2.8-22.1-8.5c-5.8-5.7-8.7-12.8-8.7-21.2
		c0-8.6,3-15.7,8.9-21.4C176.5,81.4,184,78.5,193.1,78.5L193.1,78.5z M226.9,80.2h10.7c4.8,0,8.2,0.9,10.4,2.6
		c2.2,1.8,3.3,4.6,3.3,8.4c0,4.2-1.4,7.3-4.1,9.4c-2.8,2-7,3.1-12.7,3.1h-7.5V80.2L226.9,80.2z M226.9,113.9H240c6,0,10.4,1,13.2,3
		c2.8,2,4.3,5.1,4.3,9.3c0,4.1-1.3,7.1-3.8,9.1c-2.5,1.9-6.5,2.9-11.9,2.9h-14.9V113.9L226.9,113.9z"/>
	<path d="M35.7,297.5v-20.2h2.9v20.2H35.7 M43,297.5v-20.2h2.5L58.8,293v-15.7h2.9v20.2h-2.6l-13.3-15.7v15.7H43 M71.5,297.5v-17.6
		H64v-2.6h17.7v2.6h-7.4v17.6H71.5 M84.2,297.5v-20.2h12.2v2.6H87v6.1h9v2.6h-9v6.3h9.6v2.6H84.2 M100.3,297.5v-20.2h5.9
		c2,0,3.6,0.5,4.7,1.4c1.1,1,1.7,2.3,1.7,4.1c0,1.3-0.3,2.4-0.9,3.2c-0.6,0.8-1.6,1.4-2.9,1.8c0.3,0.2,0.7,0.4,1,0.7
		c0.3,0.3,0.7,0.8,1.2,1.5l4.9,7.4h-3.5l-3.5-5.3c-1-1.6-1.9-2.6-2.5-3.1c-0.6-0.4-1.4-0.7-2.3-0.7h-0.9v9H100.3 M103.2,286.1h2.4
		c1.3,0,2.4-0.3,3-0.8c0.7-0.5,1-1.3,1-2.4c0-1.1-0.3-1.9-1-2.4c-0.6-0.5-1.7-0.8-3.1-0.8h-2.4V286.1 M117.1,297.5v-20.2h2.5
		l13.3,15.7v-15.7h2.9v20.2h-2.6l-13.3-15.7v15.7H117.1 M143.9,289h6.3l-3.2-7.3L143.9,289 M137.3,297.5l8.8-20.2h2.1l8.9,20.2h-3
		l-2.6-6h-8.6l-2.6,6H137.3 M161.9,297.5v-17.6h-7.4v-2.6h17.7v2.6h-7.4v17.6H161.9 M174.7,297.5v-20.2h2.9v20.2H174.7 M184,287.4
		c0,1,0.2,2,0.6,3c0.4,0.9,0.9,1.8,1.7,2.5c0.7,0.7,1.5,1.3,2.5,1.7c1,0.4,1.9,0.6,3,0.6c1.1,0,2.1-0.2,3-0.6
		c0.9-0.4,1.8-0.9,2.5-1.7c0.7-0.7,1.3-1.6,1.7-2.5c0.4-0.9,0.6-1.9,0.6-3c0-1-0.2-2-0.6-2.9c-0.4-0.9-1-1.8-1.7-2.5
		c-0.7-0.7-1.6-1.3-2.5-1.7c-0.9-0.4-1.9-0.6-3-0.6c-1,0-2,0.2-2.9,0.6c-0.9,0.4-1.8,1-2.5,1.7c-0.7,0.7-1.3,1.5-1.7,2.5
		C184.2,285.4,184,286.4,184,287.4 M180.9,287.3c0-1.3,0.3-2.7,0.8-3.9c0.5-1.3,1.3-2.4,2.3-3.4c1-1,2.2-1.7,3.5-2.3
		c1.3-0.5,2.7-0.8,4.1-0.8c1.5,0,2.9,0.3,4.2,0.8c1.3,0.5,2.5,1.3,3.5,2.3c1.1,1,1.8,2.2,2.4,3.4c0.5,1.3,0.8,2.6,0.8,4.1
		c0,1.4-0.3,2.7-0.8,4c-0.5,1.3-1.3,2.4-2.3,3.3c-1.1,1-2.2,1.8-3.5,2.3c-1.3,0.5-2.7,0.8-4.2,0.8c-1.4,0-2.8-0.3-4.1-0.8
		c-1.3-0.5-2.5-1.3-3.5-2.3c-1-1-1.8-2.2-2.4-3.4C181.1,290.1,180.9,288.8,180.9,287.3 M205.6,297.5v-20.2h2.5l13.3,15.7v-15.7h2.9
		v20.2h-2.6l-13.3-15.7v15.7H205.6 M232.5,289h6.3l-3.2-7.3L232.5,289 M225.8,297.5l8.8-20.2h2.1l8.9,20.2h-3l-2.6-6h-8.6l-2.6,6
		H225.8 M247.2,297.5v-20.2h2.9v17.6h9.6v2.6H247.2 M268.5,295.9v-3.8c0.9,1.1,1.8,1.8,2.6,2.3c0.8,0.5,1.7,0.7,2.7,0.7
		c1,0,1.8-0.2,2.4-0.7c0.6-0.5,0.9-1.1,0.9-1.9c0-0.7-0.2-1.2-0.6-1.7c-0.4-0.5-1.3-1.2-2.8-2.2c-2.3-1.5-3.7-2.6-4.3-3.4
		c-0.6-0.8-0.9-1.8-0.9-2.9c0-1.6,0.6-2.9,1.7-3.9c1.1-1,2.6-1.5,4.3-1.5c0.8,0,1.5,0.1,2.3,0.3c0.8,0.2,1.5,0.6,2.3,1v3.3
		c-0.9-0.7-1.7-1.2-2.5-1.5c-0.8-0.3-1.5-0.5-2.3-0.5c-0.9,0-1.6,0.2-2.2,0.7c-0.6,0.4-0.9,1-0.9,1.7c0,1,1.2,2.2,3.6,3.7
		c0.2,0.1,0.3,0.2,0.4,0.3c1.9,1.2,3.2,2.3,3.8,3.2c0.6,0.9,0.9,2.1,0.9,3.4c0,1.5-0.6,2.8-1.7,3.8c-1.1,1-2.6,1.5-4.3,1.5
		c-1.1,0-2.1-0.2-3-0.5C270.2,297.1,269.3,296.6,268.5,295.9 M285.2,287.4c0,1,0.2,2,0.6,3c0.4,0.9,0.9,1.8,1.7,2.5
		c0.7,0.7,1.5,1.3,2.5,1.7c1,0.4,1.9,0.6,3,0.6c1.1,0,2.1-0.2,3-0.6c0.9-0.4,1.8-0.9,2.5-1.7c0.7-0.7,1.3-1.6,1.7-2.5
		c0.4-0.9,0.6-1.9,0.6-3c0-1-0.2-2-0.6-2.9c-0.4-0.9-1-1.8-1.7-2.5c-0.7-0.7-1.6-1.3-2.5-1.7c-0.9-0.4-1.9-0.6-3-0.6
		c-1,0-2,0.2-2.9,0.6c-0.9,0.4-1.8,1-2.5,1.7c-0.7,0.7-1.3,1.5-1.7,2.5C285.4,285.4,285.2,286.4,285.2,287.4 M282.2,287.3
		c0-1.3,0.3-2.7,0.8-3.9c0.5-1.3,1.3-2.4,2.3-3.4c1-1,2.2-1.7,3.5-2.3c1.3-0.5,2.7-0.8,4.1-0.8c1.5,0,2.9,0.3,4.2,0.8
		c1.3,0.5,2.5,1.3,3.5,2.3c1.1,1,1.8,2.2,2.4,3.4c0.5,1.3,0.8,2.6,0.8,4.1c0,1.4-0.3,2.7-0.8,4c-0.5,1.3-1.3,2.4-2.3,3.3
		c-1.1,1-2.2,1.8-3.5,2.3c-1.3,0.5-2.7,0.8-4.2,0.8c-1.4,0-2.8-0.3-4.1-0.8c-1.3-0.5-2.5-1.3-3.5-2.3c-1-1-1.8-2.2-2.4-3.4
		C282.4,290.1,282.2,288.8,282.2,287.3 M324.2,292.7v3.3c-1.2,0.6-2.4,1.1-3.6,1.4c-1.2,0.3-2.4,0.5-3.6,0.5c-1.2,0-2.3-0.1-3.3-0.4
		c-1.1-0.3-2-0.8-3-1.4c-1.5-1-2.7-2.2-3.5-3.8c-0.8-1.5-1.2-3.2-1.2-5c0-1.4,0.3-2.7,0.8-3.9c0.5-1.3,1.3-2.4,2.3-3.4
		c1.1-1,2.3-1.8,3.6-2.3c1.3-0.5,2.8-0.8,4.5-0.8c1.1,0,2.3,0.1,3.4,0.4c1.1,0.3,2.3,0.7,3.5,1.2v3.1c-1.3-0.7-2.5-1.2-3.6-1.5
		c-1.1-0.3-2.2-0.5-3.3-0.5c-2.4,0-4.3,0.7-5.9,2.2c-1.5,1.5-2.3,3.3-2.3,5.5c0,2.2,0.8,4,2.3,5.5c1.5,1.5,3.4,2.2,5.7,2.2
		c1.2,0,2.4-0.2,3.6-0.6C321.7,294.1,322.9,293.5,324.2,292.7 M327.5,297.5v-20.2h2.9v20.2H327.5 M334.9,297.5v-20.2H347v2.6h-9.3
		v6.1h9v2.6h-9v6.3h9.6v2.6H334.9 M356.5,297.5v-17.6H349v-2.6h17.7v2.6h-7.4v17.6H356.5 M374,297.5v-10.1l-7.8-10.1h3.4l5.9,7.7
		l6-7.7h3.5l-8.1,10.3v10H374 M393.9,297.5v-20.2h11.5v2.6h-8.6v6h8.4v2.6h-8.4v9.1H393.9 M410.8,287.4c0,1,0.2,2,0.6,3
		c0.4,0.9,0.9,1.8,1.7,2.5c0.7,0.7,1.5,1.3,2.5,1.7c1,0.4,1.9,0.6,3,0.6c1.1,0,2.1-0.2,3-0.6c0.9-0.4,1.8-0.9,2.5-1.7
		c0.7-0.7,1.3-1.6,1.7-2.5c0.4-0.9,0.6-1.9,0.6-3c0-1-0.2-2-0.6-2.9c-0.4-0.9-1-1.8-1.7-2.5c-0.7-0.7-1.6-1.3-2.5-1.7
		c-0.9-0.4-1.9-0.6-3-0.6c-1,0-2,0.2-2.9,0.6c-0.9,0.4-1.8,1-2.5,1.7c-0.7,0.7-1.3,1.5-1.7,2.5C411,285.4,410.8,286.4,410.8,287.4
		 M407.8,287.3c0-1.3,0.3-2.7,0.8-3.9c0.5-1.3,1.3-2.4,2.3-3.4c1-1,2.2-1.7,3.5-2.3c1.3-0.5,2.7-0.8,4.1-0.8c1.5,0,2.9,0.3,4.2,0.8
		c1.3,0.5,2.5,1.3,3.5,2.3c1.1,1,1.8,2.2,2.4,3.4c0.5,1.3,0.8,2.6,0.8,4.1c0,1.4-0.3,2.7-0.8,4c-0.5,1.3-1.3,2.4-2.3,3.3
		c-1.1,1-2.2,1.8-3.5,2.3c-1.3,0.5-2.7,0.8-4.2,0.8c-1.4,0-2.8-0.3-4.1-0.8c-1.3-0.5-2.5-1.3-3.5-2.3c-1-1-1.8-2.2-2.4-3.4
		C408,290.1,407.8,288.8,407.8,287.3 M432.5,297.5v-20.2h5.9c2,0,3.6,0.5,4.7,1.4c1.1,1,1.7,2.3,1.7,4.1c0,1.3-0.3,2.4-0.9,3.2
		c-0.6,0.8-1.6,1.4-2.9,1.8c0.3,0.2,0.7,0.4,1,0.7c0.3,0.3,0.7,0.8,1.2,1.5l4.9,7.4h-3.5l-3.5-5.3c-1-1.6-1.9-2.6-2.5-3.1
		c-0.6-0.4-1.4-0.7-2.3-0.7h-0.9v9H432.5 M435.4,286.1h2.4c1.3,0,2.4-0.3,3-0.8c0.7-0.5,1-1.3,1-2.4c0-1.1-0.3-1.9-1-2.4
		c-0.6-0.5-1.7-0.8-3.1-0.8h-2.4V286.1 M474,292.7v3.3c-1.2,0.6-2.4,1.1-3.6,1.4c-1.2,0.3-2.4,0.5-3.6,0.5c-1.2,0-2.3-0.1-3.3-0.4
		c-1.1-0.3-2-0.8-3-1.4c-1.5-1-2.7-2.2-3.5-3.8c-0.8-1.5-1.2-3.2-1.2-5c0-1.4,0.3-2.7,0.8-3.9c0.5-1.3,1.3-2.4,2.3-3.4
		c1.1-1,2.3-1.8,3.6-2.3c1.3-0.5,2.8-0.8,4.5-0.8c1.1,0,2.3,0.1,3.4,0.4s2.3,0.7,3.5,1.2v3.1c-1.3-0.7-2.5-1.2-3.6-1.5
		c-1.1-0.3-2.2-0.5-3.3-0.5c-2.4,0-4.3,0.7-5.9,2.2c-1.5,1.5-2.3,3.3-2.3,5.5c0,2.2,0.8,4,2.3,5.5c1.5,1.5,3.4,2.2,5.7,2.2
		c1.2,0,2.4-0.2,3.6-0.6C471.5,294.1,472.7,293.5,474,292.7 M479.3,287.4c0,1,0.2,2,0.6,3c0.4,0.9,0.9,1.8,1.7,2.5
		c0.7,0.7,1.5,1.3,2.5,1.7c1,0.4,1.9,0.6,3,0.6c1.1,0,2.1-0.2,3-0.6c0.9-0.4,1.8-0.9,2.5-1.7c0.7-0.7,1.3-1.6,1.7-2.5
		c0.4-0.9,0.6-1.9,0.6-3c0-1-0.2-2-0.6-2.9c-0.4-0.9-1-1.8-1.7-2.5c-0.7-0.7-1.6-1.3-2.5-1.7c-0.9-0.4-1.9-0.6-3-0.6
		c-1,0-2,0.2-2.9,0.6c-0.9,0.4-1.8,1-2.5,1.7c-0.7,0.7-1.3,1.5-1.7,2.5C479.5,285.4,479.3,286.4,479.3,287.4 M476.2,287.3
		c0-1.3,0.3-2.7,0.8-3.9c0.5-1.3,1.3-2.4,2.3-3.4c1-1,2.2-1.7,3.5-2.3c1.3-0.5,2.7-0.8,4.1-0.8c1.5,0,2.9,0.3,4.2,0.8
		c1.3,0.5,2.5,1.3,3.5,2.3c1.1,1,1.8,2.2,2.4,3.4s0.8,2.6,0.8,4.1c0,1.4-0.3,2.7-0.8,4c-0.5,1.3-1.3,2.4-2.3,3.3
		c-1.1,1-2.2,1.8-3.5,2.3c-1.3,0.5-2.7,0.8-4.2,0.8c-1.4,0-2.8-0.3-4.1-0.8c-1.3-0.5-2.5-1.3-3.5-2.3c-1-1-1.8-2.2-2.4-3.4
		C476.5,290.1,476.2,288.8,476.2,287.3 M500.9,297.5v-20.2h2.5l7.3,8.5l7.3-8.5h2.5v20.2h-2.8v-15.8l-7,8.2l-7-8.2v15.8H500.9
		 M527.8,286.2h3.1c1.4,0,2.4-0.3,3.1-0.8c0.6-0.5,1-1.3,1-2.4c0-1.1-0.3-1.9-1-2.4c-0.6-0.5-1.6-0.8-3.1-0.8h-3.1V286.2
		 M524.9,297.5v-20.2h6.3c2.1,0,3.8,0.5,4.9,1.5c1.2,1,1.8,2.4,1.8,4.3c0,1.8-0.6,3.2-1.8,4.2c-1.2,1-2.8,1.5-4.9,1.5h-3.4v8.7
		H524.9 M540.8,277.3h2.9v11.6c0,1.3,0.1,2.2,0.2,2.7c0.1,0.5,0.4,1,0.7,1.4c0.6,0.7,1.3,1.2,2.1,1.6s1.7,0.5,2.8,0.5
		c1.8,0,3.2-0.5,4.2-1.4c1.1-0.9,1.6-2.1,1.6-3.6v-12.9h2.9v13c0,2.3-0.8,4.1-2.4,5.5c-1.6,1.4-3.7,2.1-6.3,2.1
		c-1.5,0-2.9-0.3-4.2-0.8c-1.2-0.5-2.3-1.3-3.1-2.4c-0.5-0.6-0.9-1.3-1.1-2.1c-0.2-0.8-0.3-2-0.3-3.6V277.3 M567.9,297.5v-17.6h-7.4
		v-2.6h17.7v2.6h-7.4v17.6H567.9 M582.3,289h6.3l-3.2-7.3L582.3,289 M575.6,297.5l8.8-20.2h2.1l8.9,20.2h-3l-2.6-6h-8.6l-2.6,6
		H575.6 M600.2,297.5v-17.6h-7.4v-2.6h17.7v2.6h-7.4v17.6H600.2 M613,297.5v-20.2h2.9v20.2H613 M622.3,287.4c0,1,0.2,2,0.6,3
		c0.4,0.9,0.9,1.8,1.7,2.5c0.7,0.7,1.5,1.3,2.5,1.7c1,0.4,1.9,0.6,3,0.6c1.1,0,2.1-0.2,3-0.6c0.9-0.4,1.8-0.9,2.5-1.7
		c0.7-0.7,1.3-1.6,1.7-2.5c0.4-0.9,0.6-1.9,0.6-3c0-1-0.2-2-0.6-2.9c-0.4-0.9-1-1.8-1.7-2.5c-0.7-0.7-1.6-1.3-2.5-1.7
		c-0.9-0.4-1.9-0.6-3-0.6c-1,0-2,0.2-2.9,0.6c-0.9,0.4-1.8,1-2.5,1.7c-0.7,0.7-1.3,1.5-1.7,2.5C622.5,285.4,622.3,286.4,622.3,287.4
		 M619.2,287.3c0-1.3,0.3-2.7,0.8-3.9c0.5-1.3,1.3-2.4,2.3-3.4c1-1,2.2-1.7,3.5-2.3c1.3-0.5,2.7-0.8,4.1-0.8c1.5,0,2.9,0.3,4.2,0.8
		c1.3,0.5,2.5,1.3,3.5,2.3c1.1,1,1.8,2.2,2.4,3.4s0.8,2.6,0.8,4.1c0,1.4-0.3,2.7-0.8,4c-0.5,1.3-1.3,2.4-2.3,3.3
		c-1.1,1-2.2,1.8-3.5,2.3c-1.3,0.5-2.7,0.8-4.2,0.8c-1.4,0-2.8-0.3-4.1-0.8c-1.3-0.5-2.5-1.3-3.5-2.3c-1-1-1.8-2.2-2.4-3.4
		C619.5,290.1,619.2,288.8,619.2,287.3 M644,297.5v-20.2h2.5l13.3,15.7v-15.7h2.9v20.2h-2.6l-13.3-15.7v15.7H644 M670.9,289h6.3
		l-3.2-7.3L670.9,289 M664.2,297.5l8.8-20.2h2.1l8.9,20.2h-3l-2.6-6h-8.6l-2.6,6H664.2 M685.6,297.5v-20.2h2.9v17.6h9.6v2.6H685.6
		 M710.8,288.6v6.3h3.8c1.4,0,2.4-0.2,3.1-0.7c0.7-0.5,1-1.3,1-2.3c0-1.1-0.4-1.9-1.1-2.4c-0.7-0.5-1.9-0.8-3.4-0.8H710.8
		 M707.9,297.5v-20.2h5.9c2,0,3.6,0.5,4.7,1.4c1.1,0.9,1.6,2.2,1.6,3.9c0,1-0.2,1.9-0.7,2.6c-0.5,0.7-1.2,1.2-2.3,1.6
		c1.5,0.3,2.6,1,3.4,1.9c0.8,0.9,1.2,2,1.2,3.3c0,1.7-0.6,3-1.9,4c-1.2,1-2.9,1.5-5,1.5H707.9 M710.8,286h2c1.5,0,2.6-0.3,3.3-0.8
		s1.1-1.3,1.1-2.4c0-1-0.3-1.7-0.9-2.2c-0.6-0.5-1.5-0.7-2.7-0.7h-2.8V286 M725.1,297.5v-20.2h2.9v20.2H725.1 M734.4,287.4
		c0,1,0.2,2,0.6,3c0.4,0.9,0.9,1.8,1.7,2.5c0.7,0.7,1.5,1.3,2.5,1.7c1,0.4,1.9,0.6,3,0.6c1.1,0,2.1-0.2,3-0.6
		c0.9-0.4,1.8-0.9,2.5-1.7c0.7-0.7,1.3-1.6,1.7-2.5c0.4-0.9,0.6-1.9,0.6-3c0-1-0.2-2-0.6-2.9c-0.4-0.9-1-1.8-1.7-2.5
		c-0.7-0.7-1.6-1.3-2.5-1.7c-0.9-0.4-1.9-0.6-3-0.6c-1,0-2,0.2-2.9,0.6c-0.9,0.4-1.8,1-2.5,1.7c-0.7,0.7-1.3,1.5-1.7,2.5
		C734.6,285.4,734.4,286.4,734.4,287.4 M731.4,287.3c0-1.3,0.3-2.7,0.8-3.9c0.5-1.3,1.3-2.4,2.3-3.4c1-1,2.2-1.7,3.5-2.3
		c1.3-0.5,2.7-0.8,4.1-0.8c1.5,0,2.9,0.3,4.2,0.8c1.3,0.5,2.5,1.3,3.5,2.3c1.1,1,1.8,2.2,2.4,3.4s0.8,2.6,0.8,4.1
		c0,1.4-0.3,2.7-0.8,4c-0.5,1.3-1.3,2.4-2.3,3.3c-1.1,1-2.2,1.8-3.5,2.3c-1.3,0.5-2.7,0.8-4.2,0.8c-1.4,0-2.8-0.3-4.1-0.8
		c-1.3-0.5-2.5-1.3-3.5-2.3c-1-1-1.8-2.2-2.4-3.4C731.6,290.1,731.4,288.8,731.4,287.3 M756.2,297.5v-20.2h2.9v17.6h9.6v2.6H756.2
		 M772,287.4c0,1,0.2,2,0.6,3c0.4,0.9,0.9,1.8,1.7,2.5c0.7,0.7,1.5,1.3,2.5,1.7c1,0.4,1.9,0.6,3,0.6c1.1,0,2.1-0.2,3-0.6
		c0.9-0.4,1.8-0.9,2.5-1.7c0.7-0.7,1.3-1.6,1.7-2.5c0.4-0.9,0.6-1.9,0.6-3c0-1-0.2-2-0.6-2.9c-0.4-0.9-1-1.8-1.7-2.5
		c-0.7-0.7-1.6-1.3-2.5-1.7c-0.9-0.4-1.9-0.6-3-0.6c-1,0-2,0.2-2.9,0.6c-0.9,0.4-1.8,1-2.5,1.7c-0.7,0.7-1.3,1.5-1.7,2.5
		C772.2,285.4,772,286.4,772,287.4 M769,287.3c0-1.3,0.3-2.7,0.8-3.9c0.5-1.3,1.3-2.4,2.3-3.4c1-1,2.2-1.7,3.5-2.3
		c1.3-0.5,2.7-0.8,4.1-0.8c1.5,0,2.9,0.3,4.2,0.8c1.3,0.5,2.5,1.3,3.5,2.3c1.1,1,1.8,2.2,2.4,3.4c0.5,1.3,0.8,2.6,0.8,4.1
		c0,1.4-0.3,2.7-0.8,4c-0.5,1.3-1.3,2.4-2.3,3.3c-1.1,1-2.2,1.8-3.5,2.3c-1.3,0.5-2.7,0.8-4.2,0.8c-1.4,0-2.8-0.3-4.1-0.8
		c-1.3-0.5-2.5-1.3-3.5-2.3c-1-1-1.8-2.2-2.4-3.4C769.2,290.1,769,288.8,769,287.3 M810.9,287.6v8.6c-1.3,0.6-2.6,1-3.8,1.3
		c-1.2,0.3-2.3,0.4-3.4,0.4c-1.2,0-2.4-0.1-3.4-0.4c-1.1-0.3-2.1-0.7-3-1.3c-1.5-1-2.7-2.2-3.5-3.8c-0.8-1.5-1.2-3.2-1.2-5
		c0-1.4,0.3-2.7,0.8-3.9c0.5-1.3,1.3-2.4,2.3-3.4c1.1-1,2.3-1.8,3.6-2.3c1.3-0.5,2.8-0.8,4.5-0.8c1.1,0,2.3,0.1,3.4,0.4
		c1.1,0.3,2.3,0.7,3.5,1.2v3.1c-1.3-0.7-2.5-1.2-3.6-1.5c-1.1-0.3-2.2-0.5-3.3-0.5c-2.4,0-4.3,0.7-5.9,2.2c-1.5,1.5-2.3,3.3-2.3,5.5
		c0,2.2,0.8,4,2.3,5.5c1.5,1.5,3.4,2.2,5.7,2.2c0.7,0,1.4-0.1,2.1-0.2c0.7-0.2,1.4-0.4,2.2-0.7v-3.9h-3.8v-2.7H810.9 M819,297.5
		v-10.1l-7.8-10.1h3.4l5.9,7.7l6-7.7h3.5l-8.1,10.3v10H819"/>
	<path d="M292.6,140.6l3.4-14.3c4.1,3.1,7.9,5.5,11.4,7c3.6,1.5,7,2.2,10.4,2.2c4.2,0,7.7-1.3,10.6-3.8c2.9-2.6,4.5-5.8,4.8-9.8
		c0.4-4.7-3.9-11.2-12.8-19.5c-0.3-0.2-0.5-0.5-0.7-0.6c-6.3-5.9-10.6-11-12.7-15.2c-2.1-4.3-2.9-9-2.5-14.2
		c0.7-7.8,4.1-14.3,10.2-19.4c6.2-5.2,13.7-7.8,22.4-7.8c2.5,0,5.2,0.4,8,1.1c2.9,0.7,6.1,1.8,9.6,3.3l-2.6,13.2
		c-3-1.7-5.8-3-8.5-3.8c-2.6-0.9-5.2-1.3-7.6-1.3c-5.1,0-9.4,1.3-12.8,3.9c-3.4,2.6-5.3,6-5.6,10c-0.4,5.1,3.9,11.9,13,20.5
		c0.7,0.6,1.2,1.1,1.5,1.4c0.2,0.1,0.4,0.4,0.7,0.6c9.7,9.1,14.1,17.9,13.4,26.4c-0.7,8.3-3.9,15-9.5,20c-5.6,5-12.7,7.5-21.4,7.5
		c-3.9,0-7.7-0.6-11.5-1.9C300.2,145,296.4,143.1,292.6,140.6"/>
	<path d="M393.4,118.5c-0.5,2.1-1,3.9-1.3,5.3c-0.3,1.5-0.5,2.8-0.6,3.8c-0.2,2.8,0.2,4.8,1.4,6.2c1.2,1.3,3.1,2,5.7,2
		c1.5,0,3.1-0.3,5-0.9c1.9-0.7,3.8-1.6,5.9-2.9l-1,11.5c-2.8,1.4-5.4,2.5-7.8,3.1c-2.4,0.7-4.7,1.1-6.7,1.1c-5,0-9-1.6-11.8-4.8
		c-2.8-3.3-4-7.6-3.5-12.9c0.1-1.4,0.4-3,0.8-4.8c0.4-1.8,1-4.1,1.8-7.1l8-28.3h-10.6l2.8-9.3H392l4.3-13.8h12.3l-4.1,13.8h12.3
		l-2.8,9.3h-12.4L393.4,118.5"/>
	<path d="M500.9,80.5l-15,65.8h-12.1l2.3-10.7c-4.2,4.1-8.3,7.2-12.1,9.2c-3.8,1.9-7.5,2.9-11.2,2.9c-4.7,0-8.2-1.6-10.6-4.7
		c-2.3-3.1-3.2-7.6-2.7-13.3c0.1-1.5,0.3-3,0.6-4.7c0.3-1.7,0.6-3.5,1.1-5.4l9.1-39.1h12l-9.2,41.9c-0.3,1.3-0.6,2.6-0.8,3.8
		c-0.2,1.2-0.3,2.1-0.4,2.8c-0.2,2.6,0.2,4.5,1.3,5.8c1.2,1.3,2.9,1.9,5.2,1.9c2.9,0,6-1.1,9.4-3.3c3.4-2.2,6.9-5.6,10.6-10
		l10.3-42.9H500.9"/>
	<path d="M581.2,47.4L574,79.5h-2.8c-5.8,0-11,0.7-15.6,2c-4.5,1.3-8.7,3.3-12.4,6c-5.5,4-10,8.7-13.2,14.3
		c-3.3,5.6-5.2,11.5-5.8,17.8c-0.8,8.9,1.5,15.9,6.8,21c5.4,5.1,13.2,7.7,23.4,7.7c1.7,0,3.8-0.1,6.3-0.3c2.5-0.1,5.8-0.4,9.7-0.9
		l22.9-99.8H581.2L581.2,47.4z M568.2,90.4c0.3,0,0.8,0,1.4,0.1c0.7,0,1.2,0.1,1.5,0.1l-10.5,46.6c-0.9,0.2-1.9,0.4-3,0.6
		c-1,0.1-2.2,0.1-3.5,0.1c-5.6,0-10.1-1.8-13.3-5.5c-3.2-3.7-4.5-8.5-3.9-14.5c0.7-8,3.9-14.6,9.7-19.7
		C552.4,93,559.6,90.4,568.2,90.4L568.2,90.4z"/>
	<path d="M641.5,78.9c-8.7,0-16.3,3.6-22.6,10.7c-6.3,7.1-9.9,16.2-10.9,27.1c-0.8,9.1,1.1,16.6,5.6,22.4c4.5,5.8,10.7,8.7,18.6,8.7
		c3.5,0,7.1-0.6,10.7-1.8c3.6-1.2,7.3-3.1,11.2-5.6l3.1-13.3c-4.6,3.5-8.8,6-12.5,7.6c-3.6,1.6-7.1,2.3-10.5,2.3
		c-4.3,0-7.7-1.8-10.4-5.4c-2.6-3.6-3.7-8.1-3.2-13.5l0.1-1.6l0.7-4.3h39.6l0.7-7.5c0.7-8.3-0.7-14.7-4.1-19.1
		C654.1,81.2,648.7,78.9,641.5,78.9L641.5,78.9z M640.9,89.1c3.3,0,5.9,1.1,7.6,3.3c1.7,2.2,2.5,5.1,2.1,8.8l-0.2,1.8h-26.3
		c1.8-4.7,4.1-8.2,6.7-10.5C633.6,90.3,637,89.1,640.9,89.1L640.9,89.1z"/>
	<path d="M685.4,147.7l15.2-65.8h12.1l-2.5,10.5c4.2-4.1,8.3-7.1,12.1-9.1c3.8-2,7.6-3,11.2-3c4.7,0,8.2,1.6,10.5,4.8
		c2.3,3.1,3.3,7.6,2.8,13.3c-0.1,1.4-0.3,3-0.6,4.7c-0.3,1.7-0.6,3.4-1.1,5.3l-9,39.2H724l9.4-42.4c0.3-1.4,0.5-2.6,0.7-3.8
		c0.2-1.1,0.3-2.1,0.4-2.8c0.2-2.6-0.2-4.5-1.3-5.8c-1.1-1.3-2.8-2-5.2-2c-2.9,0-6,1.1-9.4,3.3c-3.4,2.2-6.9,5.6-10.6,10l-10.4,43.4
		H685.4"/>
	<path d="M793.2,118.5c-0.5,2.1-1,3.9-1.3,5.3c-0.3,1.5-0.5,2.8-0.6,3.8c-0.2,2.8,0.2,4.8,1.4,6.2c1.2,1.3,3.1,2,5.7,2
		c1.5,0,3.1-0.3,5-0.9c1.9-0.7,3.8-1.6,5.9-2.9l-1,11.5c-2.8,1.4-5.4,2.5-7.8,3.1c-2.4,0.7-4.7,1.1-6.7,1.1c-5,0-9-1.6-11.8-4.8
		c-2.8-3.3-4-7.6-3.5-12.9c0.1-1.4,0.4-3,0.8-4.8c0.4-1.8,1-4.1,1.8-7.1l8-28.3h-10.6l2.8-9.3h10.7l4.3-13.8h12.3l-4.1,13.8h12.3
		l-2.8,9.3h-12.4L793.2,118.5"/>
	<path d="M326.2,250.8c-5.2,3.1-10.5,5.4-15.9,6.9c-5.4,1.5-11.1,2.3-17.1,2.3c-6.7,0-12.9-1.1-18.6-3.2c-5.6-2.2-10.6-5.3-14.8-9.5
		c-4.4-4.4-7.7-9.5-10-15.3c-2.3-5.8-3.4-12.1-3.4-18.8c0-14.1,4.5-25.4,13.4-34c8.9-8.6,20.8-13,35.4-13c5.3,0,10.4,0.6,15.3,1.8
		c5,1.2,10,3.1,14.8,5.6v21.2c-4.8-3.2-9.5-5.7-14.3-7.3c-4.8-1.6-9.6-2.4-14.4-2.4c-8.7,0-15.6,2.5-20.6,7.4
		c-5,5-7.5,11.8-7.5,20.5c0,8.5,2.4,15.2,7.1,20.3c4.8,5.1,11.2,7.6,19.2,7.6c5.2,0,10.4-0.9,15.6-2.9c5.2-1.9,10.4-4.8,15.6-8.6
		V250.8"/>
	<path d="M381.6,166.3c-6.8,0-12.9,1.1-18.5,3.2c-5.5,2.1-10.4,5.3-14.8,9.7c-4.5,4.5-7.8,9.6-10.1,15.3c-2.3,5.7-3.4,11.9-3.4,18.6
		c0,6.7,1.1,12.9,3.4,18.7c2.3,5.7,5.7,10.8,10.1,15.2c4.4,4.4,9.3,7.6,14.8,9.8c5.5,2.2,11.7,3.3,18.4,3.3c6.8,0,12.9-1.1,18.5-3.3
		c5.6-2.2,10.6-5.5,14.9-9.8c4.4-4.4,7.8-9.5,10-15.2c2.3-5.7,3.4-12,3.5-18.7c0-6.7-1.2-12.9-3.5-18.6c-2.3-5.7-5.6-10.9-10-15.3
		c-4.4-4.3-9.3-7.5-14.8-9.6C394.7,167.4,388.5,166.3,381.6,166.3L381.6,166.3z M381.6,185.3c7.2,0,13.1,2.6,17.7,7.8
		c4.6,5.2,6.9,11.9,7,20c0,8.1-2.3,14.7-7,20c-4.6,5.2-10.5,7.8-17.7,7.8c-7.1,0-13-2.6-17.7-7.8c-4.6-5.2-6.9-11.9-6.9-20
		c0-8.1,2.3-14.8,6.9-20C368.6,187.9,374.5,185.3,381.6,185.3L381.6,185.3z"/>
	<path d="M522,167.7v51.9c0,12.7-3.6,22.6-10.8,29.7c-7.1,7.1-17.1,10.6-30,10.6c-12.8,0-22.8-3.5-30-10.6
		c-7.1-7.1-10.7-17-10.7-29.7v-51.9h21.7v51c0,7.2,1.6,12.7,4.9,16.6c3.3,3.8,8,5.7,14.3,5.7c6.2,0,10.9-1.9,14.2-5.7
		c3.2-3.8,4.9-9.3,4.9-16.6v-51H522"/>
	<polyline points="559.7,201.4 559.7,258.4 538.4,258.4 538.4,167.7 557.3,167.7 603.5,221.8 603.5,167.7 624.8,167.7 624.8,258.4 
		607.9,258.4 559.7,201.4 	"/>
	<path d="M717.1,250.8c-5.2,3.1-10.5,5.4-15.9,6.9s-11.1,2.3-17.1,2.3c-6.7,0-12.9-1.1-18.6-3.2c-5.6-2.2-10.6-5.3-14.8-9.5
		c-4.4-4.4-7.7-9.5-10-15.3c-2.3-5.8-3.4-12.1-3.4-18.8c0-14.1,4.5-25.4,13.4-34c8.9-8.6,20.8-13,35.4-13c5.3,0,10.4,0.6,15.3,1.8
		c5,1.2,10,3.1,14.8,5.6v21.2c-4.8-3.2-9.5-5.7-14.3-7.3c-4.8-1.6-9.6-2.4-14.4-2.4c-8.7,0-15.6,2.5-20.6,7.4
		c-5,5-7.5,11.8-7.5,20.5c0,8.5,2.4,15.2,7.1,20.3c4.8,5.1,11.2,7.6,19.2,7.6c5.2,0,10.4-0.9,15.6-2.9c5.2-1.9,10.4-4.8,15.6-8.6
		V250.8"/>
	<polyline points="730.7,258.4 730.7,167.7 752.9,167.7 752.9,258.4 730.7,258.4 	"/>
	<polyline points="770.2,258.4 770.2,167.7 791.8,167.7 791.8,240.9 828.9,240.9 828.9,258.4 770.2,258.4 	"/>
	<path d="M165.7,182.6c-8.7,5.8-16.3,13.4-23.1,20.9c-1,2.7-2.9,6.5-5.1,9.6l-0.1,0.2c-2.9,4.1-5.1,8-6.9,11.8c0,0,0,0,0,0
		c-0.3,0.6-0.5,1.2-0.8,1.8c-0.3,0.7-0.6,1.4-0.8,2.2c-1.3,3.7-2.1,8.7-2.2,11.9c10-7.2,19.6-17.6,26.4-27l0.1-0.1
		c2.2-3.1,4.1-5.5,7-8.3C164.3,197.7,166.1,188.5,165.7,182.6L165.7,182.6z"/>
	<path d="M165.7,182.6c-11-9.7-18.7-2.4-23.1,20.9c-1,2.7-2.9,6.5-5.1,9.6l-0.1,0.2c-2.9,4.1-5.1,8-6.9,11.8c0,0,0,0,0,0
		c-0.3,0.6-0.5,1.2-0.8,1.8c-0.3,0.7-0.6,1.4-0.8,2.2c-1.3,3.7-2.1,8.7-2.2,11.9c19.3,0.1,21.8-23.4,33.5-35.5
		C164.3,197.7,166.1,188.5,165.7,182.6L165.7,182.6z"/>
</g>
</svg>
