<?xml version="1.0" encoding="utf-8"?>
<!-- Generator: Adobe Illustrator 22.1.0, SVG Export Plug-In . SVG Version: 6.00 Build 0)  -->
<svg version="1.1" id="Layer_1" xmlns="http://www.w3.org/2000/svg" xmlns:xlink="http://www.w3.org/1999/xlink" x="0px" y="0px"
	 viewBox="0 0 844 293" style="enable-background:new 0 0 844 293;" xml:space="preserve">
<style type="text/css">
	.st0{clip-path:url(#SVGID_2_);fill:#FFFFFF;}
	.st1{clip-path:url(#SVGID_2_);}
</style>
<g>
	<defs>
		<rect id="SVGID_1_" width="844" height="293"/>
	</defs>
	<clipPath id="SVGID_2_">
		<use xlink:href="#SVGID_1_"  style="overflow:visible;"/>
	</clipPath>
	<rect x="0.1" y="0" class="st0" width="842.5" height="292.5"/>
	<path class="st1" d="M53.5,141.1c-9.5,0.9-20.2,4.5-30.7,10v14.8c7.5-4.1,15.2-6.6,21.7-6.7c0.2,0,0.3,0,0.5,0l0,0
		c0.1,0,0.2,0,0.3,0c14.8,0,17.7,12.6,6.9,27.9l-0.1,0.1c-14.7,20.7-13.9,38.1,0.2,43.8c1.1,0.4,2.2,0.8,3.5,1.1
		c1.2,0.3,2.4,0.5,3.8,0.7c0.1,0,0.1,0,0.2,0c0.6,0.1,1.3,0.1,2,0.2c0.8,0,1.6,0.1,2.4,0.1h0.1l-0.1,0.1c0.1,0,0.1,0,0.2,0
		c10.7,0,23.3-3.9,35.6-10.4c0,0,0.1,0,0.1-0.1c0.9-0.5,1.7-0.9,2.6-1.4c0,0,0,0,0.1,0c0.9-0.5,1.7-1,2.6-1.5
		c0.5-0.3,0.9-0.5,1.4-0.8c0.4-0.3,0.8-0.5,1.3-0.7c0,0,0,0,0-0.1c0.8-0.5,1.7-1.1,2.5-1.6c0,0,0,0,0,0c12-7.9,23-17.9,30.9-29
		l0.1-0.1c9.5-13.3,27.1-25,41.2-27.7c0,0,0,0,0.1,0c1.8-0.3,3.6-0.5,5.3-0.5h0.1c14.8,0,18.6,12.2,7.8,27.5l-0.1,0.2
		c-2.9,4.1-5.2,8-6.9,11.8c0,0,0,0,0,0.1c-0.3,0.6-0.5,1.2-0.8,1.8c-0.3,0.7-0.6,1.4-0.8,2.1c-3.9,10.7-2.8,19.5,2.9,24.9
		c0.3,0.2,0.5,0.5,0.8,0.7c0.1,0.1,0.2,0.2,0.4,0.3c0,0,0.1,0,0.1,0.1c0.4,0.3,0.8,0.6,1.3,0.9c0.1,0,0.1,0.1,0.2,0.1
		c3.6,2.3,8.4,3.6,14.4,3.6c0.1,0,0.2,0,0.3,0c0.1,0,0.1,0,0.1,0c11.2,0,23.2-3.2,36-10.2c-0.4-0.3-0.8-0.7-1.1-1.1
		c-2.9-2.9-4.9-6.4-6.9-9.9c-5.6,2.3-10.1,2.9-15,2.9c0,0-0.1,0-0.1,0l0,0c-0.1,0-0.1,0-0.2,0c-4.2,0-7.4-1-9.7-2.7
		c-0.3-0.2-0.5-0.4-0.7-0.6c-0.2-0.2-0.4-0.4-0.7-0.7c-0.2-0.2-0.4-0.5-0.6-0.7c-0.2-0.2-0.3-0.5-0.5-0.8c0-0.1-0.1-0.1-0.2-0.2
		c-0.1-0.2-0.2-0.4-0.3-0.6c-0.1-0.3-0.2-0.6-0.4-0.9c-1.8-5.1,0-12.3,5.8-20.5c0.1-0.1,0.1-0.2,0.2-0.2c0.1-0.1,0.1-0.2,0.2-0.3
		c18-25.3,12.7-45.9-11.8-45.9c-0.1,0-0.1,0-0.1,0c-0.1,0-0.2,0-0.3,0c-3.2,0-6.5,0.4-10,1c0,0-0.1,0-0.2,0
		c-23.3,4.3-51.6,22.7-67.4,44.9c-0.2,0.2-0.2,0.3-0.4,0.5c-6.4,9-16.3,17-26.4,22.1c-0.5,0.3-1,0.5-1.5,0.7c0,0-0.1,0-0.1,0
		c0,0-0.1,0-0.1,0.1c-0.5,0.2-1,0.5-1.5,0.7c0,0-0.1,0-0.1,0c-5.9,2.5-11.7,3.9-16.8,3.9h-0.1l0,0c-0.1,0-0.2,0-0.3,0
		c-0.5,0-0.9,0-1.4,0c-1.1-0.1-2.1-0.2-3.1-0.4c-0.1,0-0.2,0-0.4-0.1c-10.4-2.6-11.6-13.7-2.1-27.1l0.3-0.5
		c18-25.3,12.7-45.9-11.8-45.9c-0.1,0-0.1,0-0.2,0l-0.1,0.1c-0.1,0-0.2,0-0.3,0c-0.2,0-0.3,0-0.5,0L53.5,141.1"/>
	<path class="st1" d="M131.9,140.8c-3.2,0-6.5,0.4-10,1c0,0-0.1,0-0.1,0c-23.2,4.3-51.4,22.7-67.1,44.9c-0.2,0.2-0.2,0.3-0.4,0.5
		c-6.4,9-16.2,17-26.2,22.1c-0.5,0.3-1,0.5-1.5,0.7c0,0-0.1,0-0.1,0c0,0-0.1,0-0.1,0.1c-0.5,0.2-1,0.5-1.5,0.7c0,0-0.1,0-0.1,0
		c-0.6,0.3-1.3,0.5-1.9,0.8v14.9c18.5-8,37.5-22.6,49.3-39.3l0.4-0.5c1.3-1.8,2.7-3.5,4.2-5.2c0.4-0.5,0.9-1,1.3-1.5
		c8.3-8.5,19.4-15.7,29.5-19c0,0,0,0,0,0c0,0,0,0,0.1,0c0.3-0.1,0.6-0.2,0.9-0.3c0.4-0.1,0.8-0.3,1.2-0.4c3-0.8,5.9-1.2,8.6-1.2h0.1
		c0.2,0,0.4,0,0.5,0c0.4,0,0.7,0,1.1,0.1c0,0,0,0,0,0c13.4,0.9,16.5,12.8,6.1,27.4l-0.1,0.2c-2.9,4.1-5.1,8-6.9,11.8c0,0,0,0,0,0.1
		c-0.3,0.6-0.5,1.2-0.8,1.8c-0.3,0.7-0.6,1.4-0.8,2.1c-3.9,10.7-2.8,19.5,2.9,24.9c0.3,0.2,0.5,0.5,0.8,0.7c0.1,0.1,0.2,0.2,0.4,0.3
		c0,0,0.1,0,0.1,0.1c0.4,0.3,0.8,0.6,1.3,0.9c0.1,0,0.1,0.1,0.2,0.1c3.6,2.3,8.4,3.6,14.4,3.6c0.1,0,0.2,0,0.3,0c0.1,0,0.1,0,0.1,0
		c0.3,0,0.5,0,0.8,0c0.6,0,1.2,0,1.8-0.1c0.7,0,1.4-0.1,2.1-0.1c0.1,0,0.2,0,0.3,0c24-2.3,55.2-21.9,72-45.6
		c0.1-0.1,0.1-0.2,0.2-0.3c0.1-0.1,0.1-0.2,0.2-0.3c4.5-6.4,10.8-12.2,17.6-16.9c0,0,0,0,0,0c2.2-6.6,5.8-12.2,10.8-17.1
		c-9.4-0.2-39.6,25.2-46.2,34c-0.1,0.1-0.1,0.2-0.2,0.3c-0.1,0.1-0.1,0.2-0.2,0.3c-10.4,14.7-29.9,26.7-44.5,27.6c0,0,0,0-0.1,0
		c-0.4,0-0.7,0-1.1,0c-0.1,0-0.2,0-0.3,0c-0.1,0-0.2,0-0.3,0c0,0-0.1,0-0.1,0l0,0c0,0-0.1,0-0.2,0c-1,0-2-0.1-2.9-0.2
		c-0.3,0-0.5-0.1-0.8-0.1c-0.1,0-0.1,0-0.2-0.1c-0.3-0.1-0.6-0.1-0.9-0.2c-8.1-2.1-10.5-9.7-6.6-19.3c0-0.1,0.1-0.2,0.1-0.3
		c0-0.1,0-0.1,0.1-0.2c1-2.3,2.4-4.8,4.2-7.3c0.1-0.1,0.1-0.2,0.2-0.2c0.1-0.1,0.2-0.2,0.2-0.3c17.9-25.3,12.7-45.9-11.8-45.9
		c-0.1,0-0.1,0-0.2,0C132.1,140.8,132,140.8,131.9,140.8"/>
	<path class="st1" d="M152.8,173.5c0-0.1,0-0.1,0-0.2c0-0.1,0-0.1,0-0.2c0,0,0,0.1,0,0.1C152.8,173.3,152.8,173.4,152.8,173.5"/>
	<path class="st1" d="M215.8,87.4h13.1c6,0,10.4,1,13.2,3c2.8,2,4.3,5.1,4.3,9.3c0,4.1-1.3,7.1-3.8,9.1c-2.5,1.9-6.5,2.9-11.9,2.9
		h-14.9V87.4 M215.8,53.7h10.7c4.8,0,8.2,0.9,10.4,2.6c2.2,1.8,3.3,4.6,3.3,8.4c0,4.2-1.4,7.3-4.1,9.4c-2.8,2-7,3.1-12.7,3.1h-7.5
		V53.7z M182,52.1c4.1,0,8.3,0.6,12.7,2c3.2,0.9,6.5,2.2,10,3.9v47.2c-3.2,1.8-6.4,3.2-9.6,4.2c-4.7,1.5-9.3,2.3-13.8,2.3
		c-8.9,0-16.3-2.8-22.1-8.5c-5.8-5.7-8.8-12.8-8.8-21.2c0-8.6,3-15.7,8.9-21.4C165.3,54.9,172.9,52.1,182,52.1z M182,41.6
		c-6.3,0-12,1-17.2,3c-5.2,1.9-9.9,4.9-14,8.8c-3.9,3.7-6.9,8-9.1,13c-2.1,4.9-3.2,10-3.2,15.3c0,6.9,1.6,13.3,4.8,19.3
		c3.2,5.9,7.8,10.7,13.6,14.5c3.6,2.3,7.5,4.1,11.5,5.3c4.1,1.2,8.3,1.7,12.8,1.7c4.7,0,9.4-0.6,14.1-1.8c3.2-0.8,6.3-1.9,9.4-3.3
		v4.6h27.1c8.1,0,14.6-1.9,19.3-5.8c4.8-3.9,7.2-9,7.2-15.5c0-5.1-1.6-9.4-4.7-12.9c-3.1-3.5-7.5-6-13.2-7.3
		c3.9-1.5,6.8-3.5,8.7-6.2c1.9-2.7,2.9-6,2.9-10.1c0-6.5-2.1-11.5-6.4-15.1c-4.2-3.5-10.2-5.3-18-5.3h-22.8v2.5
		c-3.3-1.3-6.5-2.4-9.7-3.1C190.7,42.1,186.4,41.6,182,41.6z M86.9,37.7c-3,0-6.6,1.2-10.8,3.6c-4.2,2.3-8.8,6.3-13.9,11.9l3.4,2.6
		c4.5-4.4,7.4-7,8.6-7.8c1.3-0.8,2.5-1.2,3.5-1.2c0.9,0,1.4,0.5,1.4,1.5c0,0.9-0.2,2-0.6,3.1C71,76.2,67.2,91.8,67.2,98.2
		c0,2,0.5,3.5,1.5,4.6c1.1,1.1,2.5,1.7,4.3,1.7c2,0,4.7-0.9,7.9-2.8c3.2-1.8,8.3-6,15.3-12.6l-3-2.9c-6.7,6.3-10.9,9.5-12.5,9.5
		c-0.4,0-0.8-0.2-1.2-0.7c-0.4-0.5-0.5-1.1-0.5-1.8c0-3.7,2.7-14.6,8.1-32.7c3.3-11.1,5-17.3,5-18.8c0-1.2-0.4-2.2-1.3-2.9
		C89.8,38,88.6,37.7,86.9,37.7z M128.1,34.5c-5.9,0-11.2,1.3-15.9,3.9c-4.6,2.6-8.4,6.1-11.3,10.5c-2.9,4.4-4.4,8.8-4.4,13.1
		c0,2.2,0.4,4.3,1.1,6.5c0.7,2.2,1.8,4.3,3.3,6.5c1.1,1.5,3.6,4.2,7.7,8.2c4.1,4.1,6.8,7,8,8.6c1.7,2.4,2.9,4.6,3.5,6.5
		c0.7,1.9,1,3.8,1,5.7c0,5.6-2.6,10.7-7.7,15.4c-5.1,4.6-11.1,6.9-17.9,6.9c-2.3,0-4.4-0.5-6.4-1.4c-1.9-0.9-3.4-2.1-4.5-3.6
		c-1.1-1.4-2-3.8-2.8-7c-0.7-2.7-1.3-4.4-2-5.2c-1.1-1.3-2.4-1.9-4-1.9c-1.6,0-3,0.7-4.2,2.1c-1.2,1.4-1.8,3.1-1.8,5.2
		c0,3.9,2.3,7.7,7,11.2c4.7,3.5,10.4,5.3,17.2,5.3c6.9,0,13.4-1.6,19.6-4.7c6.2-3.1,10.9-7.1,14.1-11.9c3.2-4.8,4.8-9.9,4.8-15.1
		c0-3.5-1.1-7.2-3.2-10.9c-2.1-3.7-6.5-8.9-13.3-15.5c-3.7-3.7-6.1-6.6-7.2-8.6c-1.1-2.1-1.6-4.3-1.6-6.9c0-4.7,2-9,5.9-12.8
		c3.9-3.8,8.5-5.8,13.8-5.8c3.4,0,6.1,1.1,8,3.2c2,2.1,3,5,3,8.7c0,2.6-0.3,6.4-0.8,11.4h3.7c1-8.2,1.8-13.6,2.4-16.3
		c0.6-2.8,1.4-5.7,2.4-8.8c-1.8-0.2-4-0.6-6.5-1.1C134.7,34.9,131.1,34.5,128.1,34.5z M92.3,16.6c-2,0-3.8,0.8-5.3,2.4
		c-1.5,1.6-2.2,3.5-2.2,5.8c0,1.7,0.5,3.1,1.5,4.2c1,1.1,2.3,1.6,3.8,1.6c1.9,0,3.7-0.8,5.2-2.5c1.6-1.7,2.4-3.7,2.4-5.9
		c0-1.6-0.5-3-1.5-4C95.2,17.1,93.9,16.6,92.3,16.6z"/>
	<path class="st1" d="M807.8,271.1V261l-7.8-10.1h3.4l5.9,7.7l6-7.7h3.5l-8.1,10.3v10H807.8 M799.8,261.2v8.6
		c-1.3,0.6-2.6,1-3.8,1.3c-1.2,0.3-2.3,0.4-3.4,0.4c-1.2,0-2.4-0.1-3.4-0.4s-2.1-0.7-3-1.3c-1.5-1-2.7-2.2-3.5-3.8
		c-0.8-1.5-1.2-3.2-1.2-5c0-1.4,0.3-2.7,0.8-3.9c0.5-1.3,1.3-2.4,2.3-3.4c1.1-1,2.3-1.8,3.6-2.3c1.3-0.5,2.8-0.8,4.5-0.8
		c1.1,0,2.3,0.1,3.4,0.4c1.1,0.3,2.3,0.7,3.5,1.2v3.1c-1.3-0.7-2.5-1.2-3.6-1.5c-1.1-0.3-2.2-0.5-3.3-0.5c-2.4,0-4.3,0.7-5.9,2.2
		c-1.5,1.5-2.3,3.3-2.3,5.5c0,2.2,0.8,4,2.3,5.5c1.5,1.5,3.4,2.2,5.7,2.2c0.7,0,1.4-0.1,2.1-0.2c0.7-0.2,1.4-0.4,2.2-0.7v-3.9H793
		v-2.7H799.8 M757.8,260.9c0-1.4,0.3-2.7,0.8-3.9c0.5-1.3,1.3-2.4,2.3-3.4c1-1,2.2-1.8,3.5-2.3c1.3-0.5,2.7-0.8,4.1-0.8
		c1.5,0,2.9,0.3,4.2,0.8c1.3,0.5,2.5,1.3,3.5,2.3c1.1,1,1.8,2.2,2.4,3.4c0.5,1.3,0.8,2.6,0.8,4.1c0,1.4-0.3,2.7-0.8,4
		c-0.5,1.3-1.3,2.4-2.3,3.3c-1.1,1-2.2,1.8-3.5,2.3c-1.3,0.5-2.7,0.8-4.2,0.8c-1.4,0-2.8-0.3-4.1-0.8c-1.3-0.5-2.5-1.3-3.5-2.3
		c-1-1-1.8-2.2-2.4-3.4C758.1,263.7,757.8,262.3,757.8,260.9 M760.9,261c0,1,0.2,2,0.6,2.9c0.4,0.9,0.9,1.8,1.7,2.5
		c0.7,0.7,1.5,1.3,2.5,1.7c1,0.4,1.9,0.6,3,0.6c1.1,0,2.1-0.2,3-0.6c0.9-0.4,1.8-1,2.5-1.7c0.7-0.7,1.3-1.6,1.7-2.5
		c0.4-0.9,0.6-1.9,0.6-2.9c0-1-0.2-2-0.6-2.9c-0.4-0.9-1-1.8-1.7-2.5c-0.7-0.7-1.6-1.3-2.5-1.7c-0.9-0.4-1.9-0.6-3-0.6
		c-1,0-2,0.2-2.9,0.6c-0.9,0.4-1.8,1-2.5,1.7c-0.7,0.7-1.3,1.5-1.7,2.5C761.1,259,760.9,260,760.9,261 M745.1,271.1v-20.2h2.9v17.6
		h9.6v2.6H745.1 M720.2,260.9c0-1.4,0.3-2.7,0.8-3.9c0.5-1.3,1.3-2.4,2.3-3.4c1-1,2.2-1.8,3.5-2.3c1.3-0.5,2.7-0.8,4.1-0.8
		c1.5,0,2.9,0.3,4.2,0.8c1.3,0.5,2.5,1.3,3.5,2.3c1.1,1,1.8,2.2,2.4,3.4c0.5,1.3,0.8,2.6,0.8,4.1c0,1.4-0.3,2.7-0.8,4
		c-0.5,1.3-1.3,2.4-2.3,3.3c-1.1,1-2.2,1.8-3.5,2.3c-1.3,0.5-2.7,0.8-4.2,0.8c-1.4,0-2.8-0.3-4.1-0.8c-1.3-0.5-2.5-1.3-3.5-2.3
		c-1-1-1.8-2.2-2.4-3.4C720.5,263.7,720.2,262.3,720.2,260.9 M723.3,261c0,1,0.2,2,0.6,2.9c0.4,0.9,0.9,1.8,1.7,2.5
		c0.7,0.7,1.5,1.3,2.5,1.7c1,0.4,1.9,0.6,3,0.6c1.1,0,2.1-0.2,3-0.6c0.9-0.4,1.8-1,2.5-1.7c0.7-0.7,1.3-1.6,1.7-2.5
		c0.4-0.9,0.6-1.9,0.6-2.9c0-1-0.2-2-0.6-2.9c-0.4-0.9-1-1.8-1.7-2.5c-0.7-0.7-1.6-1.3-2.5-1.7c-0.9-0.4-1.9-0.6-3-0.6
		c-1,0-2,0.2-2.9,0.6c-0.9,0.4-1.8,1-2.5,1.7c-0.7,0.7-1.3,1.5-1.7,2.5C723.5,259,723.3,260,723.3,261 M714,250.9h2.9v20.2H714
		V250.9z M699.6,259.5h2c1.5,0,2.6-0.3,3.3-0.8c0.7-0.5,1.1-1.3,1.1-2.4c0-1-0.3-1.7-0.9-2.2c-0.6-0.5-1.5-0.7-2.7-0.7h-2.8V259.5
		 M696.8,271.1v-20.2h5.9c2,0,3.6,0.5,4.7,1.4c1.1,0.9,1.6,2.2,1.6,3.9c0,1-0.2,1.9-0.7,2.6s-1.2,1.2-2.3,1.6c1.5,0.3,2.6,1,3.4,1.9
		c0.8,0.9,1.2,2,1.2,3.3c0,1.7-0.6,3-1.9,4c-1.2,1-2.9,1.5-5,1.5H696.8 M699.6,262.2v6.3h3.8c1.4,0,2.4-0.2,3.1-0.7
		c0.7-0.5,1-1.3,1-2.3c0-1.1-0.4-1.9-1.1-2.4c-0.7-0.5-1.9-0.8-3.4-0.8H699.6 M674.4,271.1v-20.2h2.9v17.6h9.6v2.6H674.4
		 M653.1,271.1l8.8-20.2h2.1l8.9,20.2h-3l-2.6-6h-8.6l-2.6,6H653.1 M659.7,262.5h6.3l-3.2-7.3L659.7,262.5 M632.9,271.1v-20.2h2.5
		l13.3,15.7v-15.7h2.9v20.2H649l-13.3-15.7v15.7H632.9 M608.1,260.9c0-1.4,0.3-2.7,0.8-3.9c0.5-1.3,1.3-2.4,2.3-3.4
		c1-1,2.2-1.8,3.5-2.3c1.3-0.5,2.7-0.8,4.1-0.8c1.5,0,2.9,0.3,4.2,0.8c1.3,0.5,2.5,1.3,3.5,2.3c1.1,1,1.8,2.2,2.4,3.4
		c0.5,1.3,0.8,2.6,0.8,4.1c0,1.4-0.3,2.7-0.8,4c-0.5,1.3-1.3,2.4-2.3,3.3c-1.1,1-2.2,1.8-3.5,2.3c-1.3,0.5-2.7,0.8-4.1,0.8
		c-1.4,0-2.8-0.3-4.1-0.8c-1.3-0.5-2.5-1.3-3.5-2.3c-1-1-1.8-2.2-2.4-3.4C608.4,263.7,608.1,262.3,608.1,260.9 M611.2,261
		c0,1,0.2,2,0.6,2.9c0.4,0.9,0.9,1.8,1.7,2.5c0.7,0.7,1.5,1.3,2.5,1.7c1,0.4,1.9,0.6,3,0.6c1.1,0,2.1-0.2,3-0.6
		c0.9-0.4,1.8-1,2.5-1.7c0.7-0.7,1.3-1.6,1.7-2.5c0.4-0.9,0.6-1.9,0.6-2.9c0-1-0.2-2-0.6-2.9c-0.4-0.9-1-1.8-1.7-2.5
		c-0.7-0.7-1.6-1.3-2.5-1.7c-0.9-0.4-1.9-0.6-3-0.6c-1,0-2,0.2-2.9,0.6c-0.9,0.4-1.8,1-2.5,1.7c-0.7,0.7-1.3,1.5-1.7,2.5
		C611.4,259,611.2,260,611.2,261 M601.9,250.9h2.9v20.2h-2.9V250.9z M589.1,271.1v-17.6h-7.4v-2.6h17.7v2.6H592v17.6H589.1
		 M564.5,271.1l8.8-20.2h2.1l8.9,20.2h-3l-2.6-6H570l-2.6,6H564.5 M571.2,262.5h6.3l-3.2-7.3L571.2,262.5 M556.8,271.1v-17.6h-7.4
		v-2.6h17.7v2.6h-7.4v17.6H556.8 M529.6,250.9h2.9v11.6c0,1.3,0.1,2.2,0.2,2.7c0.1,0.5,0.4,1,0.7,1.4c0.6,0.7,1.3,1.2,2.1,1.6
		c0.8,0.3,1.8,0.5,2.8,0.5c1.8,0,3.2-0.5,4.2-1.4c1.1-0.9,1.6-2.1,1.6-3.6v-12.9h2.9v13c0,2.3-0.8,4.1-2.4,5.5
		c-1.6,1.4-3.7,2.1-6.3,2.1c-1.5,0-2.9-0.3-4.1-0.8c-1.2-0.5-2.3-1.4-3.1-2.4c-0.5-0.6-0.9-1.3-1.1-2.1c-0.2-0.8-0.3-2-0.3-3.6
		V250.9 M513.8,271.1v-20.2h6.3c2.1,0,3.8,0.5,4.9,1.5c1.2,1,1.8,2.4,1.8,4.3c0,1.8-0.6,3.2-1.8,4.2c-1.2,1-2.8,1.5-4.9,1.5h-3.4
		v8.7H513.8 M516.6,259.8h3.1c1.4,0,2.4-0.2,3.1-0.8c0.6-0.5,1-1.3,1-2.4s-0.3-1.9-1-2.4c-0.6-0.5-1.6-0.8-3.1-0.8h-3.1V259.8
		 M489.8,271.1v-20.2h2.5l7.3,8.5l7.3-8.5h2.5v20.2h-2.8v-15.8l-7,8.2l-7-8.2v15.8H489.8 M465,260.9c0-1.4,0.3-2.7,0.8-3.9
		c0.5-1.3,1.3-2.4,2.3-3.4c1-1,2.2-1.8,3.5-2.3c1.3-0.5,2.7-0.8,4.1-0.8c1.5,0,2.9,0.3,4.2,0.8c1.3,0.5,2.5,1.3,3.5,2.3
		c1.1,1,1.8,2.2,2.4,3.4c0.5,1.3,0.8,2.6,0.8,4.1c0,1.4-0.3,2.7-0.8,4c-0.5,1.3-1.3,2.4-2.3,3.3c-1.1,1-2.2,1.8-3.5,2.3
		c-1.3,0.5-2.7,0.8-4.2,0.8c-1.4,0-2.8-0.3-4.1-0.8c-1.3-0.5-2.5-1.3-3.5-2.3c-1-1-1.8-2.2-2.4-3.4C465.3,263.7,465,262.3,465,260.9
		 M468.1,261c0,1,0.2,2,0.6,2.9c0.4,0.9,0.9,1.8,1.7,2.5c0.7,0.7,1.5,1.3,2.5,1.7c1,0.4,1.9,0.6,3,0.6c1.1,0,2.1-0.2,3-0.6
		c0.9-0.4,1.8-1,2.5-1.7c0.7-0.7,1.3-1.6,1.7-2.5c0.4-0.9,0.6-1.9,0.6-2.9c0-1-0.2-2-0.6-2.9c-0.4-0.9-1-1.8-1.7-2.5
		c-0.7-0.7-1.6-1.3-2.5-1.7c-0.9-0.4-1.9-0.6-3-0.6c-1,0-2,0.2-2.9,0.6c-0.9,0.4-1.8,1-2.5,1.7c-0.7,0.7-1.3,1.5-1.7,2.5
		C468.3,259,468.1,260,468.1,261 M462.8,266.3v3.3c-1.2,0.6-2.4,1.1-3.6,1.4c-1.2,0.3-2.4,0.5-3.6,0.5c-1.2,0-2.3-0.1-3.3-0.4
		c-1.1-0.3-2-0.8-3-1.4c-1.5-1-2.7-2.2-3.5-3.8c-0.8-1.5-1.2-3.2-1.2-5c0-1.4,0.3-2.7,0.8-3.9c0.5-1.3,1.3-2.4,2.3-3.4
		c1.1-1,2.3-1.8,3.6-2.3c1.3-0.5,2.8-0.8,4.5-0.8c1.1,0,2.3,0.1,3.4,0.4c1.1,0.3,2.3,0.7,3.5,1.2v3.1c-1.3-0.7-2.5-1.2-3.6-1.5
		c-1.1-0.3-2.2-0.5-3.3-0.5c-2.4,0-4.3,0.7-5.9,2.2c-1.5,1.5-2.3,3.3-2.3,5.5c0,2.2,0.8,4,2.3,5.5c1.5,1.5,3.4,2.2,5.7,2.2
		c1.2,0,2.4-0.2,3.6-0.6C460.4,267.7,461.6,267.1,462.8,266.3 M424.2,259.6h2.4c1.4,0,2.4-0.3,3-0.8c0.7-0.5,1-1.3,1-2.4
		c0-1.1-0.3-1.9-1-2.4c-0.6-0.5-1.7-0.8-3.1-0.8h-2.4V259.6 M421.3,271.1v-20.2h5.9c2,0,3.6,0.5,4.7,1.4c1.1,1,1.7,2.3,1.7,4.1
		c0,1.3-0.3,2.4-0.9,3.2c-0.6,0.8-1.6,1.4-2.9,1.8c0.3,0.2,0.7,0.4,1,0.7c0.3,0.3,0.7,0.8,1.2,1.5l4.9,7.4h-3.5l-3.5-5.3
		c-1-1.6-1.9-2.6-2.5-3.1c-0.6-0.4-1.4-0.7-2.3-0.7h-0.9v9H421.3 M396.6,260.9c0-1.4,0.3-2.7,0.8-3.9c0.5-1.3,1.3-2.4,2.3-3.4
		c1-1,2.2-1.8,3.5-2.3c1.3-0.5,2.7-0.8,4.1-0.8c1.5,0,2.9,0.3,4.2,0.8c1.3,0.5,2.5,1.3,3.5,2.3c1,1,1.8,2.2,2.4,3.4
		c0.5,1.3,0.8,2.6,0.8,4.1c0,1.4-0.3,2.7-0.8,4c-0.5,1.3-1.3,2.4-2.3,3.3c-1.1,1-2.2,1.8-3.5,2.3c-1.3,0.5-2.7,0.8-4.2,0.8
		c-1.4,0-2.8-0.3-4.1-0.8c-1.3-0.5-2.5-1.3-3.5-2.3c-1-1-1.8-2.2-2.4-3.4C396.9,263.7,396.6,262.3,396.6,260.9 M399.7,261
		c0,1,0.2,2,0.6,2.9c0.4,0.9,0.9,1.8,1.7,2.5c0.7,0.7,1.5,1.3,2.5,1.7c1,0.4,1.9,0.6,3,0.6c1.1,0,2.1-0.2,3-0.6
		c0.9-0.4,1.8-1,2.5-1.7c0.7-0.7,1.3-1.6,1.7-2.5c0.4-0.9,0.6-1.9,0.6-2.9c0-1-0.2-2-0.6-2.9c-0.4-0.9-1-1.8-1.7-2.5
		c-0.7-0.7-1.6-1.3-2.5-1.7c-0.9-0.4-1.9-0.6-3-0.6c-1,0-2,0.2-2.9,0.6c-0.9,0.4-1.8,1-2.5,1.7c-0.7,0.7-1.3,1.5-1.7,2.5
		C399.9,259,399.7,260,399.7,261 M382.8,271.1v-20.2h11.5v2.6h-8.6v6h8.4v2.6h-8.4v9.1H382.8 M362.9,271.1V261l-7.8-10.1h3.4
		l5.9,7.7l6-7.7h3.5l-8.1,10.3v10H362.9 M345.3,271.1v-17.6h-7.4v-2.6h17.7v2.6h-7.4v17.6H345.3 M323.7,271.1v-20.2h12.2v2.6h-9.3
		v6.1h9v2.6h-9v6.3h9.6v2.6H323.7 M316.4,250.9h2.9v20.2h-2.9V250.9z M313,266.3v3.3c-1.2,0.6-2.4,1.1-3.6,1.4
		c-1.2,0.3-2.4,0.5-3.6,0.5c-1.2,0-2.3-0.1-3.3-0.4c-1.1-0.3-2-0.8-3-1.4c-1.5-1-2.7-2.2-3.5-3.8c-0.8-1.5-1.2-3.2-1.2-5
		c0-1.4,0.3-2.7,0.8-3.9c0.5-1.3,1.3-2.4,2.3-3.4c1.1-1,2.3-1.8,3.6-2.3c1.3-0.5,2.8-0.8,4.5-0.8c1.1,0,2.3,0.1,3.4,0.4
		c1.1,0.3,2.3,0.7,3.5,1.2v3.1c-1.3-0.7-2.5-1.2-3.6-1.5c-1.1-0.3-2.2-0.5-3.3-0.5c-2.4,0-4.3,0.7-5.9,2.2c-1.5,1.5-2.3,3.3-2.3,5.5
		c0,2.2,0.8,4,2.3,5.5c1.5,1.5,3.4,2.2,5.7,2.2c1.2,0,2.4-0.2,3.6-0.6C310.5,267.7,311.8,267.1,313,266.3 M271,260.9
		c0-1.4,0.3-2.7,0.8-3.9c0.5-1.3,1.3-2.4,2.3-3.4c1-1,2.2-1.8,3.5-2.3c1.3-0.5,2.7-0.8,4.1-0.8c1.5,0,2.9,0.3,4.2,0.8
		c1.3,0.5,2.5,1.3,3.5,2.3c1.1,1,1.8,2.2,2.4,3.4c0.5,1.3,0.8,2.6,0.8,4.1c0,1.4-0.3,2.7-0.8,4c-0.5,1.3-1.3,2.4-2.3,3.3
		c-1.1,1-2.2,1.8-3.5,2.3c-1.3,0.5-2.7,0.8-4.2,0.8c-1.4,0-2.8-0.3-4.1-0.8c-1.3-0.5-2.5-1.3-3.5-2.3c-1-1-1.8-2.2-2.4-3.4
		C271.3,263.7,271,262.3,271,260.9 M274.1,261c0,1,0.2,2,0.6,2.9c0.4,0.9,0.9,1.8,1.7,2.5c0.7,0.7,1.5,1.3,2.5,1.7
		c1,0.4,1.9,0.6,3,0.6c1.1,0,2.1-0.2,3-0.6c0.9-0.4,1.8-1,2.5-1.7c0.7-0.7,1.3-1.6,1.7-2.5c0.4-0.9,0.6-1.9,0.6-2.9
		c0-1-0.2-2-0.6-2.9c-0.4-0.9-1-1.8-1.7-2.5c-0.7-0.7-1.6-1.3-2.5-1.7c-0.9-0.4-1.9-0.6-3-0.6c-1,0-2,0.2-2.9,0.6
		c-0.9,0.4-1.8,1-2.5,1.7c-0.7,0.7-1.3,1.5-1.7,2.5C274.3,259,274.1,260,274.1,261 M257.4,269.5v-3.8c0.9,1.1,1.8,1.8,2.6,2.3
		c0.8,0.5,1.7,0.7,2.7,0.7c1,0,1.8-0.2,2.4-0.7c0.6-0.5,0.9-1.1,0.9-1.9c0-0.7-0.2-1.2-0.6-1.7c-0.4-0.5-1.3-1.2-2.8-2.2
		c-2.3-1.5-3.7-2.6-4.3-3.4c-0.6-0.8-0.9-1.8-0.9-2.9c0-1.6,0.6-2.9,1.7-3.9c1.1-1,2.6-1.5,4.3-1.5c0.8,0,1.5,0.1,2.3,0.3
		c0.8,0.2,1.5,0.6,2.3,1v3.3c-0.9-0.7-1.7-1.2-2.5-1.5c-0.8-0.3-1.5-0.5-2.3-0.5c-0.9,0-1.6,0.2-2.2,0.7c-0.6,0.4-0.9,1-0.9,1.7
		c0,1,1.2,2.2,3.6,3.7c0.2,0.1,0.3,0.2,0.4,0.3c1.9,1.2,3.2,2.3,3.8,3.2c0.6,0.9,0.9,2.1,0.9,3.4c0,1.5-0.6,2.8-1.7,3.8
		c-1.1,1-2.5,1.5-4.3,1.5c-1.1,0-2.1-0.2-3-0.5C259,270.7,258.2,270.2,257.4,269.5 M236.1,271.1v-20.2h2.9v17.6h9.6v2.6H236.1
		 M214.7,271.1l8.8-20.2h2.1l8.9,20.2h-3l-2.6-6h-8.6l-2.6,6H214.7 M221.4,262.5h6.3l-3.2-7.3L221.4,262.5 M194.5,271.1v-20.2h2.5
		l13.3,15.7v-15.7h2.9v20.2h-2.6l-13.3-15.7v15.7H194.5 M169.7,260.9c0-1.4,0.3-2.7,0.8-3.9c0.6-1.3,1.3-2.4,2.3-3.4
		c1-1,2.2-1.8,3.5-2.3c1.3-0.5,2.7-0.8,4.1-0.8c1.5,0,2.9,0.3,4.2,0.8c1.3,0.5,2.5,1.3,3.5,2.3c1.1,1,1.8,2.2,2.4,3.4
		c0.5,1.3,0.8,2.6,0.8,4.1c0,1.4-0.3,2.7-0.8,4c-0.5,1.3-1.3,2.4-2.3,3.3c-1.1,1-2.2,1.8-3.5,2.3c-1.3,0.5-2.7,0.8-4.2,0.8
		c-1.4,0-2.8-0.3-4.1-0.8c-1.3-0.5-2.5-1.3-3.5-2.3c-1-1-1.8-2.2-2.4-3.4C170,263.7,169.7,262.3,169.7,260.9 M172.8,261
		c0,1,0.2,2,0.6,2.9c0.4,0.9,0.9,1.8,1.7,2.5c0.7,0.7,1.5,1.3,2.5,1.7c1,0.4,1.9,0.6,3,0.6c1.1,0,2.1-0.2,3-0.6
		c0.9-0.4,1.8-1,2.5-1.7c0.7-0.7,1.3-1.6,1.7-2.5c0.4-0.9,0.6-1.9,0.6-2.9c0-1-0.2-2-0.6-2.9c-0.4-0.9-1-1.8-1.7-2.5
		c-0.7-0.7-1.6-1.3-2.5-1.7c-0.9-0.4-1.9-0.6-3-0.6c-1,0-2,0.2-2.9,0.6c-0.9,0.4-1.8,1-2.5,1.7c-0.7,0.7-1.3,1.5-1.7,2.5
		C173,259,172.8,260,172.8,261 M163.5,250.9h2.9v20.2h-2.9V250.9z M150.7,271.1v-17.6h-7.4v-2.6H161v2.6h-7.4v17.6H150.7
		 M126.1,271.1l8.8-20.2h2.1l8.9,20.2h-3l-2.6-6h-8.6l-2.6,6H126.1 M132.8,262.5h6.3l-3.2-7.3L132.8,262.5 M105.9,271.1v-20.2h2.5
		l13.3,15.7v-15.7h2.9v20.2h-2.6l-13.3-15.7v15.7H105.9 M92,259.6h2.4c1.3,0,2.4-0.3,3-0.8c0.7-0.5,1-1.3,1-2.4c0-1.1-0.3-1.9-1-2.4
		c-0.6-0.5-1.7-0.8-3.1-0.8H92V259.6 M89.1,271.1v-20.2H95c2,0,3.6,0.5,4.7,1.4c1.1,1,1.7,2.3,1.7,4.1c0,1.3-0.3,2.4-0.9,3.2
		s-1.6,1.4-2.9,1.8c0.3,0.2,0.7,0.4,1,0.7c0.3,0.3,0.7,0.8,1.2,1.5l4.9,7.4h-3.5l-3.5-5.3c-1-1.6-1.9-2.6-2.5-3.1
		c-0.6-0.4-1.4-0.7-2.3-0.7H92v9H89.1 M73,271.1v-20.2h12.2v2.6h-9.3v6.1h9v2.6h-9v6.3h9.6v2.6H73 M60.3,271.1v-17.6h-7.4v-2.6h17.7
		v2.6h-7.4v17.6H60.3 M31.8,271.1v-20.2h2.5l13.3,15.7v-15.7h2.9v20.2H48l-13.3-15.7v15.7H31.8 M24.5,250.9h2.9v20.2h-2.9V250.9z"/>
	<path class="st1" d="M281.5,114.2l3.4-14.3c4.1,3.1,7.9,5.5,11.4,7c3.6,1.5,7,2.2,10.4,2.2c4.2,0,7.7-1.3,10.6-3.8
		c2.9-2.6,4.5-5.8,4.8-9.8c0.4-4.7-3.9-11.2-12.8-19.5c-0.2-0.2-0.5-0.5-0.7-0.6c-6.3-5.9-10.6-11-12.7-15.2
		c-2.1-4.3-2.9-9-2.5-14.2c0.7-7.8,4.1-14.3,10.2-19.4c6.2-5.2,13.7-7.8,22.4-7.8c2.5,0,5.2,0.4,8,1.1c2.9,0.7,6.1,1.8,9.6,3.3
		l-2.6,13.2c-3-1.7-5.8-3-8.5-3.8c-2.6-0.9-5.2-1.3-7.6-1.3c-5.1,0-9.4,1.3-12.8,3.9c-3.4,2.6-5.3,6-5.6,10
		c-0.4,5.1,3.9,11.9,13,20.5c0.7,0.6,1.2,1.1,1.5,1.4c0.2,0.1,0.4,0.4,0.7,0.6c9.7,9.1,14.1,17.9,13.4,26.4c-0.7,8.3-3.9,15-9.5,20
		c-5.6,5-12.7,7.5-21.4,7.5c-3.9,0-7.7-0.6-11.5-1.9C289.1,118.6,285.3,116.7,281.5,114.2"/>
	<path class="st1" d="M382.2,92c-0.5,2.1-1,3.9-1.3,5.3c-0.3,1.5-0.5,2.8-0.6,3.8c-0.2,2.8,0.2,4.8,1.4,6.2c1.2,1.3,3.1,2,5.7,2
		c1.5,0,3.1-0.3,5-0.9c1.9-0.7,3.8-1.6,5.9-2.9l-1,11.5c-2.8,1.4-5.4,2.5-7.8,3.1c-2.4,0.7-4.7,1.1-6.7,1.1c-5,0-9-1.6-11.8-4.8
		c-2.8-3.3-4-7.6-3.5-12.9c0.1-1.4,0.4-3,0.8-4.8c0.4-1.8,1-4.1,1.8-7.1l8-28.3h-10.6l2.8-9.3h10.7l4.3-13.8h12.3l-4.1,13.8h12.3
		l-2.8,9.3h-12.4L382.2,92"/>
	<path class="st1" d="M489.8,54.1l-15,65.8h-12.1l2.3-10.7c-4.2,4.1-8.3,7.2-12.1,9.2c-3.8,1.9-7.5,2.9-11.2,2.9
		c-4.7,0-8.2-1.6-10.6-4.7c-2.3-3.1-3.2-7.6-2.7-13.3c0.1-1.5,0.3-3,0.6-4.7c0.3-1.7,0.6-3.5,1.1-5.4l9.1-39.1h12L442.1,96
		c-0.3,1.3-0.6,2.6-0.8,3.8c-0.2,1.2-0.3,2.1-0.4,2.8c-0.2,2.6,0.2,4.5,1.3,5.8c1.2,1.3,2.9,1.9,5.2,1.9c2.9,0,6-1.1,9.4-3.3
		c3.4-2.2,6.9-5.6,10.6-10l10.3-42.9H489.8"/>
	<path class="st1" d="M557.1,64c0.3,0,0.8,0,1.4,0.1c0.7,0,1.2,0.1,1.5,0.1l-10.5,46.6c-0.9,0.2-1.9,0.4-3,0.6
		c-1,0.1-2.2,0.1-3.5,0.1c-5.6,0-10.1-1.8-13.3-5.5c-3.2-3.7-4.5-8.5-3.9-14.5c0.7-8,3.9-14.6,9.7-19.7
		C541.2,66.5,548.4,64,557.1,64 M570.1,21l-7.2,32.1h-2.8c-5.8,0-11,0.7-15.6,2c-4.5,1.3-8.7,3.3-12.4,6c-5.5,4-10,8.7-13.2,14.3
		c-3.3,5.6-5.2,11.5-5.8,17.8c-0.8,8.9,1.5,15.9,6.8,21c5.4,5.1,13.2,7.7,23.4,7.7c1.7,0,3.8-0.1,6.3-0.3c2.5-0.1,5.8-0.4,9.7-0.9
		L582.2,21H570.1z"/>
	<path class="st1" d="M629.8,62.7c3.3,0,5.9,1.1,7.6,3.3c1.7,2.2,2.5,5.1,2.1,8.8l-0.2,1.8H613c1.8-4.7,4.1-8.2,6.7-10.5
		C622.5,63.8,625.8,62.7,629.8,62.7 M630.4,52.5c-8.7,0-16.3,3.6-22.6,10.7c-6.3,7.1-9.9,16.2-10.9,27.1c-0.8,9.1,1.1,16.6,5.6,22.4
		c4.5,5.8,10.7,8.7,18.6,8.7c3.5,0,7.1-0.6,10.7-1.8c3.6-1.2,7.3-3.1,11.2-5.6l3.1-13.3c-4.6,3.5-8.8,6-12.5,7.6
		c-3.6,1.6-7.1,2.3-10.5,2.3c-4.3,0-7.7-1.8-10.4-5.4c-2.6-3.6-3.7-8.1-3.2-13.5l0.1-1.6l0.6-4.3h39.6l0.7-7.5
		c0.7-8.3-0.7-14.7-4.1-19.1C642.9,54.8,637.6,52.5,630.4,52.5z"/>
	<path class="st1" d="M674.2,121.3l15.2-65.8h12.1L699,66c4.2-4.1,8.3-7.1,12.1-9.1c3.8-2,7.6-3,11.2-3c4.7,0,8.2,1.6,10.5,4.8
		c2.3,3.1,3.3,7.6,2.8,13.3c-0.1,1.4-0.3,3-0.6,4.7c-0.3,1.7-0.6,3.4-1.1,5.3l-9,39.2h-12.1l9.4-42.4c0.3-1.4,0.5-2.6,0.7-3.8
		c0.2-1.1,0.3-2.1,0.4-2.8c0.2-2.6-0.2-4.5-1.3-5.8c-1.1-1.3-2.8-2-5.2-2c-2.9,0-6,1.1-9.4,3.3c-3.4,2.2-6.9,5.6-10.6,10l-10.4,43.4
		H674.2"/>
	<path class="st1" d="M782.1,92c-0.5,2.1-1,3.9-1.3,5.3s-0.5,2.8-0.6,3.8c-0.2,2.8,0.2,4.8,1.4,6.2c1.2,1.3,3.1,2,5.7,2
		c1.5,0,3.1-0.3,5-0.9c1.9-0.7,3.8-1.6,5.9-2.9l-1,11.5c-2.8,1.4-5.4,2.5-7.8,3.1c-2.4,0.7-4.7,1.1-6.7,1.1c-5,0-9-1.6-11.8-4.8
		c-2.8-3.3-4-7.6-3.5-12.9c0.1-1.4,0.4-3,0.8-4.8c0.4-1.8,1-4.1,1.8-7.1l8-28.3h-10.6l2.8-9.3h10.7l4.3-13.8h12.3l-4.1,13.8h12.3
		l-2.8,9.3h-12.4L782.1,92"/>
	<path class="st1" d="M315,224.3c-5.2,3.1-10.5,5.4-15.9,6.9c-5.4,1.5-11.1,2.3-17.1,2.3c-6.7,0-12.9-1.1-18.6-3.2
		c-5.6-2.2-10.6-5.3-14.8-9.5c-4.4-4.4-7.7-9.5-10-15.3c-2.3-5.8-3.4-12.1-3.4-18.8c0-14.1,4.5-25.4,13.4-34
		c8.9-8.6,20.8-13,35.4-13c5.3,0,10.4,0.6,15.3,1.8c5,1.2,10,3.1,14.8,5.6v21.2c-4.8-3.2-9.5-5.7-14.3-7.3
		c-4.8-1.6-9.6-2.4-14.4-2.4c-8.7,0-15.6,2.5-20.6,7.4c-5,5-7.5,11.8-7.5,20.5c0,8.5,2.4,15.2,7.1,20.3c4.8,5.1,11.2,7.6,19.2,7.6
		c5.2,0,10.4-0.9,15.6-2.8c5.2-1.9,10.4-4.8,15.6-8.6V224.3"/>
	<path class="st1" d="M370.5,158.9c7.2,0,13.1,2.6,17.7,7.9c4.6,5.2,7,11.9,7,20c0,8.1-2.3,14.7-7,19.9c-4.6,5.2-10.5,7.8-17.7,7.8
		c-7.1,0-13-2.6-17.7-7.8c-4.6-5.2-6.9-11.9-6.9-19.9c0-8.1,2.3-14.8,6.9-20C357.5,161.5,363.4,158.9,370.5,158.9 M370.5,139.9
		c-6.8,0-12.9,1.1-18.5,3.2c-5.5,2.1-10.4,5.3-14.8,9.7c-4.5,4.5-7.8,9.6-10.1,15.3c-2.3,5.7-3.4,11.9-3.4,18.7
		c0,6.7,1.1,12.9,3.4,18.6c2.3,5.7,5.7,10.8,10.1,15.2c4.4,4.4,9.3,7.6,14.8,9.8c5.5,2.2,11.7,3.2,18.4,3.2c6.8,0,12.9-1.1,18.5-3.2
		c5.6-2.2,10.6-5.5,15-9.8c4.4-4.4,7.8-9.5,10-15.2c2.3-5.7,3.5-12,3.5-18.6c0-6.7-1.2-12.9-3.5-18.7c-2.3-5.7-5.6-10.9-10-15.3
		c-4.4-4.3-9.3-7.5-14.8-9.6C383.6,141,377.4,139.9,370.5,139.9z"/>
	<path class="st1" d="M510.8,141.3v51.9c0,12.7-3.6,22.6-10.8,29.7c-7.1,7.1-17.1,10.6-30,10.6c-12.8,0-22.8-3.5-30-10.6
		c-7.1-7.1-10.7-17-10.7-29.7v-51.9H451v51c0,7.2,1.6,12.7,4.9,16.6c3.3,3.8,8,5.7,14.3,5.7c6.2,0,10.9-1.9,14.2-5.7
		c3.2-3.8,4.9-9.3,4.9-16.6v-51H510.8"/>
	<polyline class="st1" points="548.6,175 548.6,231.9 527.3,231.9 527.3,141.3 546.2,141.3 592.4,195.3 592.4,141.3 613.7,141.3 
		613.7,231.9 596.8,231.9 548.6,175 	"/>
	<path class="st1" d="M705.9,224.3c-5.2,3.1-10.5,5.4-15.9,6.9c-5.4,1.5-11.1,2.3-17.1,2.3c-6.7,0-12.9-1.1-18.6-3.2
		c-5.6-2.2-10.6-5.3-14.8-9.5c-4.4-4.4-7.7-9.5-10-15.3c-2.3-5.8-3.4-12.1-3.4-18.8c0-14.1,4.5-25.4,13.4-34
		c8.9-8.6,20.8-13,35.4-13c5.3,0,10.4,0.6,15.3,1.8c5,1.2,10,3.1,14.8,5.6v21.2c-4.8-3.2-9.5-5.7-14.3-7.3
		c-4.8-1.6-9.6-2.4-14.4-2.4c-8.7,0-15.6,2.5-20.6,7.4c-5,5-7.5,11.8-7.5,20.5c0,8.5,2.4,15.2,7.1,20.3c4.8,5.1,11.2,7.6,19.2,7.6
		c5.2,0,10.4-0.9,15.6-2.8c5.2-1.9,10.4-4.8,15.6-8.6V224.3"/>
	<rect x="719.5" y="141.3" class="st1" width="22.2" height="90.6"/>
	<polyline class="st1" points="759.1,231.9 759.1,141.3 780.6,141.3 780.6,214.4 817.8,214.4 817.8,231.9 759.1,231.9 	"/>
	<path class="st1" d="M154.6,156.2c-8.7,5.8-16.3,13.4-23.1,20.9c-1,2.7-2.9,6.5-5.1,9.6l-0.1,0.2c-2.9,4.1-5.1,8-6.9,11.8
		c0,0,0,0,0,0.1c-0.3,0.6-0.5,1.2-0.8,1.8c-0.3,0.7-0.6,1.4-0.8,2.1c-1.3,3.7-2.1,8.7-2.2,11.9c10-7.2,19.6-17.6,26.4-27l0.1-0.1
		c2.2-3.1,4.1-5.5,7-8.3C153.1,171.3,155,162,154.6,156.2"/>
	<path class="st1" d="M154.6,156.2c-11-9.7-18.7-2.4-23.1,20.9c-1,2.7-2.9,6.5-5.1,9.6l-0.1,0.2c-2.9,4.1-5.1,8-6.9,11.8
		c0,0,0,0,0,0.1c-0.3,0.6-0.5,1.2-0.8,1.8c-0.3,0.7-0.6,1.4-0.8,2.1c-1.3,3.7-2.1,8.7-2.2,11.9c19.3,0.1,21.8-23.4,33.5-35.5
		C153.1,171.3,155,162,154.6,156.2"/>
</g>
</svg>
