<?xml version="1.0" encoding="utf-8"?>
<!-- Generator: Adobe Illustrator 22.1.0, SVG Export Plug-In . SVG Version: 6.00 Build 0)  -->
<svg version="1.1" id="Layer_1" xmlns="http://www.w3.org/2000/svg" xmlns:xlink="http://www.w3.org/1999/xlink" x="0px" y="0px"
	 viewBox="0 0 853.4 319.2" style="enable-background:new 0 0 853.4 319.2;" xml:space="preserve">
<style type="text/css">
	.st0{fill:#FFFFFF;}
</style>
<rect width="853.4" height="319.2"/>
<g>
	<path class="st0" d="M137.7,152.4c-3.2,0-6.5,0.4-10,1c0,0-0.1,0-0.1,0c-23.2,4.3-51.4,22.7-67.1,44.9c-0.2,0.2-0.2,0.3-0.4,0.5
		c-6.4,9-16.2,17-26.2,22.1c-0.5,0.3-1,0.5-1.5,0.7c0,0-0.1,0-0.1,0c0,0-0.1,0-0.1,0c-0.5,0.2-1,0.5-1.5,0.7c0,0-0.1,0-0.1,0
		c-0.6,0.3-1.3,0.5-1.9,0.8v14.9c18.5-8,37.5-22.6,49.3-39.3l0.4-0.5c1.3-1.8,2.7-3.5,4.2-5.2c0.4-0.5,0.9-1,1.4-1.4
		c8.3-8.5,19.4-15.7,29.5-19c0,0,0,0,0,0c0,0,0,0,0.1,0c0.3-0.1,0.6-0.2,1-0.3c0.4-0.1,0.8-0.3,1.2-0.4c3-0.8,5.9-1.2,8.6-1.2h0.1
		c0.2,0,0.4,0,0.5,0c0.4,0,0.7,0,1,0.1c0,0,0,0,0,0c13.4,0.9,16.5,12.8,6.1,27.5l-0.1,0.2c-2.9,4.1-5.1,8-6.8,11.8c0,0,0,0,0,0
		c-0.3,0.6-0.5,1.2-0.8,1.8c-0.3,0.7-0.6,1.4-0.8,2.1c-3.9,10.7-2.8,19.5,2.9,24.9c0.3,0.2,0.5,0.5,0.8,0.7c0.1,0.1,0.2,0.2,0.3,0.3
		c0,0,0.1,0,0.1,0c0.4,0.3,0.8,0.6,1.3,0.9c0.1,0,0.1,0.1,0.2,0.1c3.6,2.3,8.4,3.6,14.3,3.6c0.1,0,0.2,0,0.3,0c0.1,0,0.1,0,0.1,0
		c0.3,0,0.5,0,0.8,0c0.6,0,1.2,0,1.8-0.1c0.7,0,1.4-0.1,2.1-0.1c0.1,0,0.2,0,0.3,0c24-2.3,55.2-21.9,72-45.6
		c0.1-0.1,0.1-0.2,0.2-0.3c0.1-0.1,0.1-0.2,0.2-0.3c4.5-6.4,10.8-12.2,17.6-16.9c0,0,0,0,0,0c2.2-6.6,5.8-12.2,10.8-17.1
		c-9.4-0.2-39.6,25.2-46.3,34c-0.1,0.1-0.1,0.2-0.2,0.3c-0.1,0.1-0.1,0.2-0.2,0.3c-10.4,14.7-29.9,26.7-44.5,27.6c0,0,0,0-0.1,0
		c-0.4,0-0.7,0-1.1,0.1c-0.1,0-0.2,0-0.3,0c-0.1,0-0.2,0-0.3,0c0,0,0,0-0.1,0l0-0.1c-0.1,0-0.1,0-0.2,0c-1,0-2-0.1-2.9-0.2
		c-0.3,0-0.5-0.1-0.8-0.1c-0.1,0-0.1,0-0.2,0c-0.3-0.1-0.6-0.1-0.9-0.2c-8.1-2.1-10.5-9.7-6.6-19.3c0-0.1,0.1-0.2,0.1-0.3
		c0-0.1,0-0.1,0.1-0.2c1-2.3,2.4-4.8,4.2-7.3c0.1-0.1,0.1-0.2,0.2-0.3c0.1-0.1,0.2-0.2,0.2-0.3c17.9-25.3,12.7-45.9-11.8-45.9
		c-0.1,0-0.1,0-0.1,0C137.9,152.4,137.8,152.4,137.7,152.4L137.7,152.4z"/>
	<path class="st0" d="M158.7,185c0-0.1,0-0.1,0-0.2c0-0.1,0-0.1,0-0.2c0,0,0,0.1,0,0.1C158.7,184.9,158.7,185,158.7,185L158.7,185z"
		/>
	<path class="st0" d="M98.1,28.2c-2,0-3.8,0.8-5.3,2.4c-1.5,1.6-2.2,3.5-2.2,5.8c0,1.7,0.5,3.1,1.5,4.2c1,1.1,2.3,1.6,3.8,1.6
		c1.9,0,3.7-0.8,5.2-2.5c1.6-1.7,2.4-3.7,2.4-5.9c0-1.6-0.5-3-1.5-4C101,28.7,99.7,28.2,98.1,28.2L98.1,28.2z M134,46
		c-5.9,0-11.2,1.3-15.9,3.9c-4.6,2.6-8.4,6.1-11.3,10.5c-2.9,4.4-4.4,8.8-4.4,13.1c0,2.2,0.4,4.3,1.1,6.5c0.7,2.2,1.8,4.3,3.3,6.5
		c1.1,1.5,3.6,4.2,7.7,8.2c4.1,4.1,6.8,7,8,8.6c1.7,2.4,2.9,4.6,3.5,6.5c0.7,1.9,1,3.8,1,5.7c0,5.6-2.6,10.7-7.7,15.4
		c-5.1,4.6-11.1,6.9-17.9,6.9c-2.3,0-4.4-0.5-6.4-1.4c-1.9-0.9-3.4-2.1-4.5-3.6c-1.1-1.4-2-3.8-2.8-7c-0.7-2.7-1.3-4.4-2-5.2
		c-1.1-1.3-2.4-1.9-4-1.9c-1.6,0-3,0.7-4.2,2.1c-1.2,1.4-1.8,3.1-1.8,5.2c0,3.9,2.3,7.7,7,11.2c4.7,3.5,10.4,5.3,17.2,5.3
		c6.9,0,13.4-1.6,19.6-4.7c6.2-3.1,10.9-7.1,14.1-11.9c3.2-4.8,4.8-9.9,4.8-15.1c0-3.5-1.1-7.2-3.2-10.9c-2.1-3.7-6.5-8.9-13.3-15.5
		c-3.7-3.7-6.1-6.6-7.2-8.6c-1.1-2.1-1.6-4.3-1.6-6.9c0-4.7,2-9,5.9-12.8c3.9-3.8,8.5-5.8,13.8-5.8c3.4,0,6.1,1.1,8,3.2
		c2,2.1,3,5,3,8.7c0,2.6-0.3,6.4-0.8,11.4h3.7c1-8.2,1.8-13.6,2.4-16.3c0.6-2.8,1.4-5.7,2.4-8.8c-1.8-0.2-4-0.6-6.5-1.1
		C140.6,46.5,136.9,46,134,46L134,46z M92.8,49.3c-3,0-6.6,1.2-10.8,3.6c-4.2,2.3-8.8,6.3-13.9,11.9l3.4,2.6c4.5-4.4,7.4-7,8.6-7.8
		c1.3-0.8,2.5-1.2,3.5-1.2c0.9,0,1.4,0.5,1.4,1.5c0,0.9-0.2,2-0.6,3.1C76.8,87.8,73,103.4,73,109.8c0,2,0.5,3.5,1.5,4.6
		c1.1,1.1,2.5,1.7,4.3,1.7c2,0,4.7-0.9,7.9-2.8c3.2-1.8,8.3-6,15.3-12.6l-3-2.9c-6.7,6.3-10.9,9.5-12.5,9.5c-0.4,0-0.8-0.2-1.2-0.7
		c-0.4-0.5-0.5-1.1-0.5-1.8c0-3.7,2.7-14.6,8.1-32.7c3.3-11.1,5-17.3,5-18.8c0-1.2-0.4-2.2-1.3-2.9C95.7,49.6,94.4,49.3,92.8,49.3
		L92.8,49.3z M187.8,53.1c-6.3,0-12,1-17.2,3c-5.2,1.9-9.9,4.9-14,8.8c-3.9,3.7-6.9,8-9.1,13c-2.1,4.9-3.2,10-3.2,15.3
		c0,6.9,1.6,13.3,4.8,19.3c3.2,5.9,7.8,10.7,13.6,14.5c3.6,2.3,7.5,4.1,11.5,5.3c4.1,1.2,8.3,1.7,12.8,1.7c4.7,0,9.4-0.6,14.1-1.8
		c3.2-0.8,6.3-1.9,9.4-3.3v4.6h27.1c8.1,0,14.6-1.9,19.3-5.8c4.8-3.9,7.2-9,7.2-15.5c0-5.1-1.6-9.4-4.7-12.9
		c-3.1-3.5-7.5-6-13.2-7.3c3.9-1.5,6.8-3.5,8.7-6.2c1.9-2.7,2.9-6,2.9-10.1c0-6.5-2.1-11.5-6.4-15.1c-4.2-3.5-10.2-5.3-18-5.3h-22.8
		v2.5c-3.3-1.3-6.5-2.4-9.7-3.1C196.6,53.7,192.2,53.1,187.8,53.1L187.8,53.1z M187.8,63.7c4.1,0,8.3,0.6,12.7,2
		c3.2,0.9,6.5,2.2,10,3.9v47.2c-3.2,1.8-6.4,3.2-9.6,4.2c-4.7,1.5-9.3,2.3-13.8,2.3c-8.9,0-16.3-2.8-22.1-8.5
		c-5.8-5.7-8.7-12.8-8.7-21.2c0-8.6,3-15.7,8.9-21.4C171.2,66.5,178.7,63.7,187.8,63.7L187.8,63.7z M221.6,65.3h10.7
		c4.8,0,8.2,0.9,10.4,2.6c2.2,1.8,3.3,4.6,3.3,8.4c0,4.2-1.4,7.3-4.1,9.4c-2.8,2-7,3.1-12.7,3.1h-7.5V65.3L221.6,65.3z M221.6,99
		h13.1c6,0,10.4,1,13.2,3c2.8,2,4.3,5.1,4.3,9.3c0,4.1-1.3,7.1-3.8,9.1c-2.5,1.9-6.5,2.9-11.9,2.9h-14.9V99L221.6,99z"/>
	<path class="st0" d="M30.4,282.7v-20.2h2.9v20.2H30.4 M37.7,282.7v-20.2h2.5l13.3,15.7v-15.7h2.9v20.2h-2.6L40.5,267v15.7H37.7
		 M66.2,282.7v-17.6h-7.4v-2.6h17.7v2.6H69v17.6H66.2 M78.9,282.7v-20.2H91v2.6h-9.3v6.1h9v2.6h-9v6.3h9.6v2.6H78.9 M95,282.7v-20.2
		h5.9c2,0,3.6,0.5,4.7,1.4c1.1,1,1.7,2.3,1.7,4.1c0,1.3-0.3,2.4-0.9,3.2s-1.6,1.4-2.9,1.8c0.3,0.2,0.7,0.4,1,0.7
		c0.3,0.3,0.7,0.8,1.2,1.5l4.9,7.4H107l-3.5-5.3c-1-1.6-1.9-2.6-2.5-3.1c-0.6-0.4-1.4-0.7-2.3-0.7h-0.9v9H95 M97.9,271.2h2.4
		c1.3,0,2.4-0.3,3-0.8c0.7-0.5,1-1.3,1-2.4c0-1.1-0.3-1.9-1-2.4c-0.6-0.5-1.7-0.8-3.1-0.8h-2.4V271.2 M111.8,282.7v-20.2h2.5
		l13.3,15.7v-15.7h2.9v20.2h-2.6L114.6,267v15.7H111.8 M138.7,274.1h6.3l-3.2-7.3L138.7,274.1 M132,282.7l8.8-20.2h2.1l8.9,20.2h-3
		l-2.6-6h-8.6l-2.6,6H132 M156.6,282.7v-17.6h-7.4v-2.6h17.7v2.6h-7.4v17.6H156.6 M169.4,282.7v-20.2h2.9v20.2H169.4 M178.7,272.6
		c0,1,0.2,2,0.6,3c0.4,0.9,0.9,1.8,1.7,2.5c0.7,0.7,1.5,1.3,2.5,1.7c1,0.4,1.9,0.6,3,0.6c1.1,0,2.1-0.2,3-0.6
		c0.9-0.4,1.8-0.9,2.5-1.7c0.7-0.7,1.3-1.6,1.7-2.5c0.4-0.9,0.6-1.9,0.6-3c0-1-0.2-2-0.6-2.9c-0.4-0.9-1-1.8-1.7-2.5
		c-0.7-0.7-1.6-1.3-2.5-1.7c-0.9-0.4-1.9-0.6-3-0.6c-1,0-2,0.2-2.9,0.6c-0.9,0.4-1.8,1-2.5,1.7c-0.7,0.7-1.3,1.5-1.7,2.5
		C178.9,270.6,178.7,271.5,178.7,272.6 M175.6,272.5c0-1.3,0.3-2.7,0.8-3.9c0.5-1.3,1.3-2.4,2.3-3.4c1-1,2.2-1.7,3.5-2.3
		c1.3-0.5,2.7-0.8,4.1-0.8c1.5,0,2.9,0.3,4.2,0.8c1.3,0.5,2.5,1.3,3.5,2.3c1.1,1,1.8,2.2,2.4,3.4c0.5,1.3,0.8,2.6,0.8,4.1
		c0,1.4-0.3,2.7-0.8,4c-0.5,1.3-1.3,2.4-2.3,3.3c-1.1,1-2.2,1.8-3.5,2.3c-1.3,0.5-2.7,0.8-4.2,0.8c-1.4,0-2.8-0.3-4.1-0.8
		c-1.3-0.5-2.5-1.3-3.5-2.3c-1-1-1.8-2.2-2.4-3.4C175.9,275.3,175.6,273.9,175.6,272.5 M200.3,282.7v-20.2h2.5l13.3,15.7v-15.7h2.9
		v20.2h-2.6L203.2,267v15.7H200.3 M227.2,274.1h6.3l-3.2-7.3L227.2,274.1 M220.5,282.7l8.8-20.2h2.1l8.9,20.2h-3l-2.6-6h-8.6l-2.6,6
		H220.5 M241.9,282.7v-20.2h2.9v17.6h9.6v2.6H241.9 M263.2,281.1v-3.8c0.9,1.1,1.8,1.8,2.6,2.3c0.8,0.5,1.7,0.7,2.7,0.7
		c1,0,1.8-0.2,2.4-0.7c0.6-0.5,0.9-1.1,0.9-1.9c0-0.7-0.2-1.2-0.6-1.7c-0.4-0.5-1.3-1.2-2.8-2.2c-2.3-1.5-3.7-2.6-4.3-3.4
		c-0.6-0.8-0.9-1.8-0.9-2.9c0-1.6,0.6-2.9,1.7-3.9c1.1-1,2.6-1.5,4.3-1.5c0.8,0,1.5,0.1,2.3,0.3c0.8,0.2,1.5,0.6,2.3,1v3.3
		c-0.9-0.7-1.7-1.2-2.5-1.5c-0.8-0.3-1.5-0.5-2.3-0.5c-0.9,0-1.6,0.2-2.2,0.7c-0.6,0.4-0.9,1-0.9,1.7c0,1,1.2,2.2,3.6,3.7
		c0.2,0.1,0.3,0.2,0.4,0.3c1.9,1.2,3.2,2.3,3.8,3.2c0.6,0.9,0.9,2.1,0.9,3.4c0,1.5-0.6,2.8-1.7,3.8c-1.1,1-2.6,1.5-4.3,1.5
		c-1.1,0-2.1-0.2-3-0.5C264.9,282.3,264,281.8,263.2,281.1 M280,272.6c0,1,0.2,2,0.6,3c0.4,0.9,0.9,1.8,1.7,2.5
		c0.7,0.7,1.5,1.3,2.5,1.7c1,0.4,1.9,0.6,3,0.6c1.1,0,2.1-0.2,3-0.6c0.9-0.4,1.8-0.9,2.5-1.7c0.7-0.7,1.3-1.6,1.7-2.5
		c0.4-0.9,0.6-1.9,0.6-3c0-1-0.2-2-0.6-2.9c-0.4-0.9-1-1.8-1.7-2.5c-0.7-0.7-1.6-1.3-2.5-1.7c-0.9-0.4-1.9-0.6-3-0.6
		c-1,0-2,0.2-2.9,0.6c-0.9,0.4-1.8,1-2.5,1.7c-0.7,0.7-1.3,1.5-1.7,2.5C280.1,270.6,280,271.5,280,272.6 M276.9,272.5
		c0-1.3,0.3-2.7,0.8-3.9c0.5-1.3,1.3-2.4,2.3-3.4c1-1,2.2-1.7,3.5-2.3c1.3-0.5,2.7-0.8,4.1-0.8c1.5,0,2.9,0.3,4.2,0.8
		c1.3,0.5,2.5,1.3,3.5,2.3c1.1,1,1.8,2.2,2.4,3.4c0.5,1.3,0.8,2.6,0.8,4.1c0,1.4-0.3,2.7-0.8,4c-0.5,1.3-1.3,2.4-2.3,3.3
		c-1.1,1-2.2,1.8-3.5,2.3c-1.3,0.5-2.7,0.8-4.2,0.8c-1.4,0-2.8-0.3-4.1-0.8c-1.3-0.5-2.5-1.3-3.5-2.3c-1-1-1.8-2.2-2.4-3.4
		C277.1,275.3,276.9,273.9,276.9,272.5 M318.9,277.9v3.3c-1.2,0.6-2.4,1.1-3.6,1.4c-1.2,0.3-2.4,0.5-3.6,0.5c-1.2,0-2.3-0.1-3.3-0.4
		c-1.1-0.3-2-0.8-3-1.4c-1.5-1-2.7-2.2-3.5-3.8c-0.8-1.5-1.2-3.2-1.2-5c0-1.4,0.3-2.7,0.8-3.9c0.5-1.3,1.3-2.4,2.3-3.4
		c1.1-1,2.3-1.8,3.6-2.3c1.3-0.5,2.8-0.8,4.5-0.8c1.1,0,2.3,0.1,3.4,0.4c1.1,0.3,2.3,0.7,3.5,1.2v3.1c-1.3-0.7-2.5-1.2-3.6-1.5
		c-1.1-0.3-2.2-0.5-3.3-0.5c-2.4,0-4.3,0.7-5.9,2.2c-1.5,1.5-2.3,3.3-2.3,5.5c0,2.2,0.8,4,2.3,5.5c1.5,1.5,3.4,2.2,5.7,2.2
		c1.2,0,2.4-0.2,3.6-0.6C316.4,279.3,317.6,278.7,318.9,277.9 M322.3,282.7v-20.2h2.9v20.2H322.3 M329.6,282.7v-20.2h12.2v2.6h-9.3
		v6.1h9v2.6h-9v6.3h9.6v2.6H329.6 M351.2,282.7v-17.6h-7.4v-2.6h17.7v2.6h-7.4v17.6H351.2 M368.7,282.7v-10.1l-7.8-10.1h3.4l5.9,7.7
		l6-7.7h3.5l-8.1,10.3v10H368.7 M388.6,282.7v-20.2h11.5v2.6h-8.6v6h8.4v2.6h-8.4v9.1H388.6 M405.5,272.6c0,1,0.2,2,0.6,3
		c0.4,0.9,0.9,1.8,1.7,2.5c0.7,0.7,1.5,1.3,2.5,1.7c1,0.4,1.9,0.6,3,0.6c1.1,0,2.1-0.2,3-0.6c0.9-0.4,1.8-0.9,2.5-1.7
		c0.7-0.7,1.3-1.6,1.7-2.5c0.4-0.9,0.6-1.9,0.6-3c0-1-0.2-2-0.6-2.9c-0.4-0.9-1-1.8-1.7-2.5c-0.7-0.7-1.6-1.3-2.5-1.7
		c-0.9-0.4-1.9-0.6-3-0.6c-1,0-2,0.2-2.9,0.6c-0.9,0.4-1.8,1-2.5,1.7c-0.7,0.7-1.3,1.5-1.7,2.5C405.7,270.6,405.5,271.5,405.5,272.6
		 M402.5,272.5c0-1.3,0.3-2.7,0.8-3.9c0.5-1.3,1.3-2.4,2.3-3.4c1-1,2.2-1.7,3.5-2.3c1.3-0.5,2.7-0.8,4.1-0.8c1.5,0,2.9,0.3,4.2,0.8
		c1.3,0.5,2.5,1.3,3.5,2.3c1.1,1,1.8,2.2,2.4,3.4c0.5,1.3,0.8,2.6,0.8,4.1c0,1.4-0.3,2.7-0.8,4c-0.5,1.3-1.3,2.4-2.3,3.3
		c-1.1,1-2.2,1.8-3.5,2.3c-1.3,0.5-2.7,0.8-4.2,0.8c-1.4,0-2.8-0.3-4.1-0.8c-1.3-0.5-2.5-1.3-3.5-2.3c-1-1-1.8-2.2-2.4-3.4
		C402.7,275.3,402.5,273.9,402.5,272.5 M427.2,282.7v-20.2h5.9c2,0,3.6,0.5,4.7,1.4c1.1,1,1.7,2.3,1.7,4.1c0,1.3-0.3,2.4-0.9,3.2
		c-0.6,0.8-1.6,1.4-2.9,1.8c0.3,0.2,0.7,0.4,1,0.7c0.3,0.3,0.7,0.8,1.2,1.5l4.9,7.4h-3.5l-3.5-5.3c-1-1.6-1.9-2.6-2.5-3.1
		c-0.6-0.4-1.4-0.7-2.3-0.7h-0.9v9H427.2 M430.1,271.2h2.4c1.3,0,2.4-0.3,3-0.8c0.7-0.5,1-1.3,1-2.4c0-1.1-0.3-1.9-1-2.4
		c-0.6-0.5-1.7-0.8-3.1-0.8h-2.4V271.2 M468.7,277.9v3.3c-1.2,0.6-2.4,1.1-3.6,1.4c-1.2,0.3-2.4,0.5-3.6,0.5c-1.2,0-2.3-0.1-3.3-0.4
		c-1.1-0.3-2-0.8-3-1.4c-1.5-1-2.7-2.2-3.5-3.8c-0.8-1.5-1.2-3.2-1.2-5c0-1.4,0.3-2.7,0.8-3.9c0.5-1.3,1.3-2.4,2.3-3.4
		c1.1-1,2.3-1.8,3.6-2.3c1.3-0.5,2.8-0.8,4.5-0.8c1.1,0,2.3,0.1,3.4,0.4c1.1,0.3,2.3,0.7,3.5,1.2v3.1c-1.3-0.7-2.5-1.2-3.6-1.5
		c-1.1-0.3-2.2-0.5-3.3-0.5c-2.4,0-4.3,0.7-5.9,2.2c-1.5,1.5-2.3,3.3-2.3,5.5c0,2.2,0.8,4,2.3,5.5c1.5,1.5,3.4,2.2,5.7,2.2
		c1.2,0,2.4-0.2,3.6-0.6C466.2,279.3,467.4,278.7,468.7,277.9 M474,272.6c0,1,0.2,2,0.6,3c0.4,0.9,0.9,1.8,1.7,2.5
		c0.7,0.7,1.5,1.3,2.5,1.7c1,0.4,1.9,0.6,3,0.6c1.1,0,2.1-0.2,3-0.6c0.9-0.4,1.8-0.9,2.5-1.7c0.7-0.7,1.3-1.6,1.7-2.5
		c0.4-0.9,0.6-1.9,0.6-3c0-1-0.2-2-0.6-2.9c-0.4-0.9-1-1.8-1.7-2.5c-0.7-0.7-1.6-1.3-2.5-1.7c-0.9-0.4-1.9-0.6-3-0.6
		c-1,0-2,0.2-2.9,0.6c-0.9,0.4-1.8,1-2.5,1.7c-0.7,0.7-1.3,1.5-1.7,2.5C474.2,270.6,474,271.5,474,272.6 M470.9,272.5
		c0-1.3,0.3-2.7,0.8-3.9c0.5-1.3,1.3-2.4,2.3-3.4c1-1,2.2-1.7,3.5-2.3c1.3-0.5,2.7-0.8,4.1-0.8c1.5,0,2.9,0.3,4.2,0.8
		c1.3,0.5,2.5,1.3,3.5,2.3c1.1,1,1.8,2.2,2.4,3.4c0.5,1.3,0.8,2.6,0.8,4.1c0,1.4-0.3,2.7-0.8,4c-0.5,1.3-1.3,2.4-2.3,3.3
		c-1.1,1-2.2,1.8-3.5,2.3c-1.3,0.5-2.7,0.8-4.2,0.8c-1.4,0-2.8-0.3-4.1-0.8c-1.3-0.5-2.5-1.3-3.5-2.3c-1-1-1.8-2.2-2.4-3.4
		C471.2,275.3,470.9,273.9,470.9,272.5 M495.7,282.7v-20.2h2.5l7.3,8.5l7.3-8.5h2.5v20.2h-2.8v-15.8l-7,8.2l-7-8.2v15.8H495.7
		 M522.5,271.4h3.1c1.4,0,2.4-0.3,3.1-0.8c0.6-0.5,1-1.3,1-2.4s-0.3-1.9-1-2.4c-0.6-0.5-1.6-0.8-3.1-0.8h-3.1V271.4 M519.6,282.7
		v-20.2h6.3c2.1,0,3.8,0.5,4.9,1.5c1.2,1,1.8,2.4,1.8,4.3c0,1.8-0.6,3.2-1.8,4.2s-2.8,1.5-4.9,1.5h-3.4v8.7H519.6 M535.5,262.4h2.9
		v11.6c0,1.3,0.1,2.2,0.2,2.7c0.1,0.5,0.4,1,0.7,1.4c0.6,0.7,1.3,1.2,2.1,1.6c0.8,0.3,1.7,0.5,2.8,0.5c1.8,0,3.2-0.5,4.2-1.4
		c1.1-0.9,1.6-2.1,1.6-3.6v-12.9h2.9v13c0,2.3-0.8,4.1-2.4,5.5c-1.6,1.4-3.7,2.1-6.3,2.1c-1.5,0-2.9-0.3-4.2-0.8
		c-1.2-0.5-2.3-1.3-3.1-2.4c-0.5-0.6-0.9-1.3-1.1-2.1c-0.2-0.8-0.3-2-0.3-3.6V262.4 M562.6,282.7v-17.6h-7.4v-2.6h17.7v2.6h-7.4
		v17.6H562.6 M577,274.1h6.3l-3.2-7.3L577,274.1 M570.3,282.7l8.8-20.2h2.1l8.9,20.2h-3l-2.6-6h-8.6l-2.6,6H570.3 M594.9,282.7
		v-17.6h-7.4v-2.6h17.7v2.6h-7.4v17.6H594.9 M607.7,282.7v-20.2h2.9v20.2H607.7 M617,272.6c0,1,0.2,2,0.6,3c0.4,0.9,0.9,1.8,1.7,2.5
		c0.7,0.7,1.5,1.3,2.5,1.7c1,0.4,1.9,0.6,3,0.6c1.1,0,2.1-0.2,3-0.6c0.9-0.4,1.8-0.9,2.5-1.7c0.7-0.7,1.3-1.6,1.7-2.5
		c0.4-0.9,0.6-1.9,0.6-3c0-1-0.2-2-0.6-2.9c-0.4-0.9-1-1.8-1.7-2.5c-0.7-0.7-1.6-1.3-2.5-1.7c-0.9-0.4-1.9-0.6-3-0.6
		c-1,0-2,0.2-2.9,0.6c-0.9,0.4-1.8,1-2.5,1.7c-0.7,0.7-1.3,1.5-1.7,2.5C617.2,270.6,617,271.5,617,272.6 M614,272.5
		c0-1.3,0.3-2.7,0.8-3.9c0.5-1.3,1.3-2.4,2.3-3.4c1-1,2.2-1.7,3.5-2.3c1.3-0.5,2.7-0.8,4.1-0.8c1.5,0,2.9,0.3,4.2,0.8
		c1.3,0.5,2.5,1.3,3.5,2.3c1.1,1,1.8,2.2,2.4,3.4c0.5,1.3,0.8,2.6,0.8,4.1c0,1.4-0.3,2.7-0.8,4c-0.5,1.3-1.3,2.4-2.3,3.3
		c-1.1,1-2.2,1.8-3.5,2.3c-1.3,0.5-2.7,0.8-4.2,0.8c-1.4,0-2.8-0.3-4.1-0.8c-1.3-0.5-2.5-1.3-3.5-2.3c-1-1-1.8-2.2-2.4-3.4
		C614.2,275.3,614,273.9,614,272.5 M638.7,282.7v-20.2h2.5l13.3,15.7v-15.7h2.9v20.2h-2.6L641.6,267v15.7H638.7 M665.6,274.1h6.3
		l-3.2-7.3L665.6,274.1 M658.9,282.7l8.8-20.2h2.1l8.9,20.2h-3l-2.6-6h-8.6l-2.6,6H658.9 M680.3,282.7v-20.2h2.9v17.6h9.6v2.6H680.3
		 M705.5,273.8v6.3h3.8c1.4,0,2.4-0.2,3.1-0.7c0.7-0.5,1-1.3,1-2.3c0-1.1-0.4-1.9-1.1-2.4c-0.7-0.5-1.9-0.8-3.4-0.8H705.5
		 M702.6,282.7v-20.2h5.9c2,0,3.6,0.5,4.7,1.4c1.1,0.9,1.6,2.2,1.6,3.9c0,1-0.2,1.9-0.7,2.6c-0.5,0.7-1.2,1.2-2.3,1.6
		c1.5,0.3,2.6,1,3.4,1.9c0.8,0.9,1.2,2,1.2,3.3c0,1.7-0.6,3-1.9,4c-1.2,1-2.9,1.5-5,1.5H702.6 M705.5,271.1h2c1.5,0,2.6-0.3,3.3-0.8
		c0.7-0.5,1.1-1.3,1.1-2.4c0-1-0.3-1.7-0.9-2.2c-0.6-0.5-1.5-0.7-2.7-0.7h-2.8V271.1 M719.8,282.7v-20.2h2.9v20.2H719.8
		 M729.1,272.6c0,1,0.2,2,0.6,3c0.4,0.9,0.9,1.8,1.7,2.5c0.7,0.7,1.5,1.3,2.5,1.7c1,0.4,1.9,0.6,3,0.6c1.1,0,2.1-0.2,3-0.6
		c0.9-0.4,1.8-0.9,2.5-1.7c0.7-0.7,1.3-1.6,1.7-2.5c0.4-0.9,0.6-1.9,0.6-3c0-1-0.2-2-0.6-2.9c-0.4-0.9-1-1.8-1.7-2.5
		c-0.7-0.7-1.6-1.3-2.5-1.7c-0.9-0.4-1.9-0.6-3-0.6c-1,0-2,0.2-2.9,0.6c-0.9,0.4-1.8,1-2.5,1.7c-0.7,0.7-1.3,1.5-1.7,2.5
		C729.3,270.6,729.1,271.5,729.1,272.6 M726.1,272.5c0-1.3,0.3-2.7,0.8-3.9c0.5-1.3,1.3-2.4,2.3-3.4c1-1,2.2-1.7,3.5-2.3
		c1.3-0.5,2.7-0.8,4.1-0.8c1.5,0,2.9,0.3,4.2,0.8c1.3,0.5,2.5,1.3,3.5,2.3c1.1,1,1.8,2.2,2.4,3.4c0.5,1.3,0.8,2.6,0.8,4.1
		c0,1.4-0.3,2.7-0.8,4c-0.5,1.3-1.3,2.4-2.3,3.3c-1.1,1-2.2,1.8-3.5,2.3c-1.3,0.5-2.7,0.8-4.2,0.8c-1.4,0-2.8-0.3-4.1-0.8
		c-1.3-0.5-2.5-1.3-3.5-2.3c-1-1-1.8-2.2-2.4-3.4C726.3,275.3,726.1,273.9,726.1,272.5 M750.9,282.7v-20.2h2.9v17.6h9.6v2.6H750.9
		 M766.7,272.6c0,1,0.2,2,0.6,3c0.4,0.9,0.9,1.8,1.7,2.5c0.7,0.7,1.5,1.3,2.5,1.7c1,0.4,1.9,0.6,3,0.6c1.1,0,2.1-0.2,3-0.6
		c0.9-0.4,1.8-0.9,2.5-1.7c0.7-0.7,1.3-1.6,1.7-2.5c0.4-0.9,0.6-1.9,0.6-3c0-1-0.2-2-0.6-2.9c-0.4-0.9-1-1.8-1.7-2.5
		c-0.7-0.7-1.6-1.3-2.5-1.7c-0.9-0.4-1.9-0.6-3-0.6c-1,0-2,0.2-2.9,0.6c-0.9,0.4-1.8,1-2.5,1.7c-0.7,0.7-1.3,1.5-1.7,2.5
		C766.9,270.6,766.7,271.5,766.7,272.6 M763.7,272.5c0-1.3,0.3-2.7,0.8-3.9c0.5-1.3,1.3-2.4,2.3-3.4c1-1,2.2-1.7,3.5-2.3
		c1.3-0.5,2.7-0.8,4.1-0.8c1.5,0,2.9,0.3,4.2,0.8c1.3,0.5,2.5,1.3,3.5,2.3c1.1,1,1.8,2.2,2.4,3.4c0.5,1.3,0.8,2.6,0.8,4.1
		c0,1.4-0.3,2.7-0.8,4c-0.5,1.3-1.3,2.4-2.3,3.3c-1.1,1-2.2,1.8-3.5,2.3c-1.3,0.5-2.7,0.8-4.2,0.8c-1.4,0-2.8-0.3-4.1-0.8
		c-1.3-0.5-2.5-1.3-3.5-2.3c-1-1-1.8-2.2-2.4-3.4C763.9,275.3,763.7,273.9,763.7,272.5 M805.6,272.8v8.6c-1.3,0.6-2.6,1-3.8,1.3
		c-1.2,0.3-2.3,0.4-3.4,0.4c-1.2,0-2.4-0.1-3.4-0.4c-1.1-0.3-2.1-0.7-3-1.3c-1.5-1-2.7-2.2-3.5-3.8c-0.8-1.5-1.2-3.2-1.2-5
		c0-1.4,0.3-2.7,0.8-3.9c0.5-1.3,1.3-2.4,2.3-3.4c1.1-1,2.3-1.8,3.6-2.3s2.8-0.8,4.5-0.8c1.1,0,2.3,0.1,3.4,0.4
		c1.1,0.3,2.3,0.7,3.5,1.2v3.1c-1.3-0.7-2.5-1.2-3.6-1.5c-1.1-0.3-2.2-0.5-3.3-0.5c-2.4,0-4.3,0.7-5.9,2.2c-1.5,1.5-2.3,3.3-2.3,5.5
		c0,2.2,0.8,4,2.3,5.5c1.5,1.5,3.4,2.2,5.7,2.2c0.7,0,1.4-0.1,2.1-0.2c0.7-0.2,1.4-0.4,2.2-0.7v-3.9h-3.8v-2.7H805.6 M813.7,282.7
		v-10.1l-7.8-10.1h3.4l5.9,7.7l6-7.7h3.5l-8.1,10.3v10H813.7"/>
	<path class="st0" d="M59.4,152.7c-9.5,0.9-20.2,4.5-30.7,10v14.7c7.5-4.1,15.2-6.6,21.7-6.6c0.2,0,0.3,0,0.5,0l0,0
		c0.1,0,0.2,0,0.3,0c14.8,0,17.7,12.6,6.9,27.9l-0.1,0.1c-14.7,20.6-13.9,38.1,0.2,43.8c1.1,0.4,2.2,0.8,3.5,1.1
		c1.2,0.3,2.4,0.5,3.8,0.7c0.1,0,0.1,0,0.2,0c0.6,0.1,1.3,0.1,2,0.1c0.8,0,1.6,0.1,2.4,0.1H70l-0.1,0.1c0.1,0,0.1,0,0.2,0
		c10.7,0,23.3-3.9,35.6-10.4c0,0,0.1,0,0.1-0.1c0.9-0.5,1.7-0.9,2.6-1.4c0,0,0,0,0.1,0c0.9-0.5,1.7-1,2.6-1.5
		c0.5-0.3,0.9-0.5,1.4-0.8c0.4-0.3,0.8-0.5,1.3-0.7c0,0,0,0,0.1-0.1c0.8-0.5,1.7-1.1,2.5-1.6c0,0,0,0,0.1,0c12-7.9,23-17.9,30.9-29
		l0.1-0.1c9.5-13.3,27.1-25,41.2-27.7c0,0,0,0,0.1,0c1.8-0.3,3.6-0.5,5.3-0.5h0.1c14.8,0,18.6,12.2,7.8,27.5l-0.1,0.2
		c-2.9,4.1-5.2,8-6.9,11.8c0,0,0,0,0,0c-0.3,0.6-0.5,1.2-0.8,1.8c-0.3,0.7-0.6,1.4-0.8,2.1c-3.9,10.7-2.8,19.5,2.9,24.9
		c0.3,0.2,0.5,0.5,0.8,0.7c0.1,0.1,0.2,0.2,0.4,0.3c0,0,0.1,0,0.1,0c0.4,0.3,0.8,0.6,1.3,0.9c0.1,0,0.1,0.1,0.2,0.1
		c3.6,2.3,8.4,3.6,14.4,3.6c0.1,0,0.2,0,0.3,0c0.1,0,0.1,0,0.1,0c11.2,0,23.2-3.2,36-10.2c-0.4-0.3-0.8-0.7-1.1-1.1
		c-2.9-2.9-4.9-6.4-6.9-9.9c-5.6,2.3-10.1,2.9-15,2.9c0,0-0.1,0-0.1,0l0-0.1c-0.1,0-0.1,0-0.2,0c-4.2,0-7.4-1-9.7-2.7
		c-0.3-0.2-0.5-0.4-0.7-0.6c-0.2-0.2-0.4-0.4-0.7-0.7c-0.2-0.2-0.4-0.5-0.6-0.7c-0.2-0.2-0.3-0.5-0.5-0.8c0-0.1-0.1-0.1-0.2-0.2
		c-0.1-0.2-0.2-0.4-0.3-0.6c-0.1-0.3-0.2-0.6-0.4-0.9c-1.8-5.1,0-12.3,5.8-20.4c0.1-0.1,0.1-0.2,0.2-0.3c0.1-0.1,0.1-0.2,0.2-0.3
		c18-25.3,12.7-45.9-11.8-45.9c-0.1,0-0.1,0-0.2,0c-0.1,0-0.2,0-0.3,0c-3.2,0-6.5,0.4-10,1c0,0-0.1,0-0.2,0
		c-23.3,4.3-51.6,22.7-67.4,44.9c-0.2,0.2-0.2,0.3-0.4,0.5c-6.4,9-16.3,17-26.4,22.1c-0.5,0.3-1,0.5-1.5,0.7c0,0-0.1,0-0.1,0
		c0,0-0.1,0-0.1,0c-0.5,0.2-1,0.5-1.5,0.7c0,0-0.1,0-0.1,0c-5.9,2.5-11.7,3.9-16.8,3.9H83l0,0c-0.1,0-0.2,0-0.3,0
		c-0.5,0-0.9,0-1.4,0c-1.1-0.1-2.1-0.2-3.1-0.4c-0.1,0-0.2,0-0.4-0.1c-10.4-2.6-11.6-13.7-2.1-27.1l0.3-0.5
		c18-25.3,12.7-45.9-11.8-45.9c-0.1,0-0.1,0-0.2,0l-0.1,0.1c-0.1,0-0.2,0-0.3,0c-0.2,0-0.3,0-0.5,0L59.4,152.7L59.4,152.7z"/>
	<path class="st0" d="M287.4,125.8l3.4-14.3c4.1,3.1,7.9,5.5,11.4,7c3.6,1.5,7,2.2,10.4,2.2c4.2,0,7.7-1.3,10.6-3.8
		c2.9-2.6,4.5-5.8,4.8-9.8c0.4-4.7-3.9-11.2-12.8-19.5c-0.3-0.2-0.5-0.5-0.7-0.6c-6.3-5.9-10.6-11-12.7-15.2
		c-2.1-4.3-2.9-9-2.5-14.2c0.7-7.8,4.1-14.3,10.2-19.4c6.2-5.2,13.7-7.8,22.4-7.8c2.5,0,5.2,0.4,8,1.1c2.9,0.7,6.1,1.8,9.6,3.3
		l-2.6,13.2c-3-1.7-5.8-3-8.5-3.8c-2.6-0.9-5.2-1.3-7.6-1.3c-5.1,0-9.4,1.3-12.8,3.9c-3.4,2.6-5.3,6-5.6,10
		c-0.4,5.1,3.9,11.9,13,20.5c0.7,0.6,1.2,1.1,1.5,1.4c0.2,0.1,0.4,0.4,0.7,0.6c9.7,9.1,14.1,17.9,13.4,26.4c-0.7,8.3-3.9,15-9.5,20
		c-5.6,5-12.7,7.5-21.4,7.5c-3.9,0-7.7-0.6-11.5-1.9C294.9,130.2,291.1,128.3,287.4,125.8"/>
	<path class="st0" d="M388.1,103.6c-0.5,2.1-1,3.9-1.3,5.3c-0.3,1.5-0.5,2.8-0.6,3.8c-0.2,2.8,0.2,4.8,1.4,6.2c1.2,1.3,3.1,2,5.7,2
		c1.5,0,3.1-0.3,5-0.9c1.9-0.7,3.8-1.6,5.9-2.9l-1,11.5c-2.8,1.4-5.4,2.5-7.8,3.1c-2.4,0.7-4.7,1.1-6.7,1.1c-5,0-9-1.6-11.8-4.8
		c-2.8-3.3-4-7.6-3.5-12.9c0.1-1.4,0.4-3,0.8-4.8c0.4-1.8,1-4.1,1.8-7.1l8-28.3h-10.6l2.8-9.3h10.7l4.3-13.8h12.3l-4.1,13.8h12.3
		l-2.8,9.3h-12.4L388.1,103.6"/>
	<path class="st0" d="M495.7,65.7l-15,65.8h-12.1l2.3-10.7c-4.2,4.1-8.3,7.2-12.1,9.2c-3.8,1.9-7.5,2.9-11.2,2.9
		c-4.7,0-8.2-1.6-10.6-4.7c-2.3-3.1-3.2-7.6-2.7-13.3c0.1-1.5,0.3-3,0.6-4.7c0.3-1.7,0.6-3.5,1.1-5.4l9.1-39.1h12l-9.2,41.9
		c-0.3,1.3-0.6,2.6-0.8,3.8c-0.2,1.2-0.3,2.1-0.4,2.8c-0.2,2.6,0.2,4.5,1.3,5.8c1.2,1.3,2.9,1.9,5.2,1.9c2.9,0,6-1.1,9.4-3.3
		c3.4-2.2,6.9-5.6,10.6-10l10.3-42.9H495.7"/>
	<path class="st0" d="M575.9,32.6l-7.2,32.1H566c-5.8,0-11,0.7-15.6,2c-4.5,1.3-8.7,3.3-12.4,6c-5.5,4-10,8.7-13.2,14.3
		c-3.3,5.6-5.2,11.5-5.8,17.8c-0.8,8.9,1.5,15.9,6.8,21c5.4,5.1,13.2,7.7,23.4,7.7c1.7,0,3.8-0.1,6.3-0.3c2.5-0.1,5.8-0.4,9.7-0.9
		L588,32.6H575.9L575.9,32.6z M562.9,75.6c0.3,0,0.8,0,1.4,0.1c0.7,0,1.2,0.1,1.5,0.1l-10.5,46.6c-0.9,0.2-1.9,0.4-3,0.6
		c-1,0.1-2.2,0.1-3.5,0.1c-5.6,0-10.1-1.8-13.3-5.5c-3.2-3.7-4.5-8.5-3.9-14.5c0.7-8,3.9-14.6,9.7-19.7
		C547.1,78.1,554.3,75.6,562.9,75.6L562.9,75.6z"/>
	<path class="st0" d="M636.2,64.1c-8.7,0-16.3,3.6-22.6,10.7c-6.3,7.1-9.9,16.2-10.9,27.1c-0.8,9.1,1.1,16.6,5.6,22.4
		c4.5,5.8,10.7,8.7,18.6,8.7c3.5,0,7.1-0.6,10.7-1.8c3.6-1.2,7.3-3.1,11.2-5.6l3.1-13.3c-4.6,3.5-8.8,6-12.5,7.6
		c-3.6,1.6-7.1,2.3-10.5,2.3c-4.3,0-7.7-1.8-10.4-5.4c-2.6-3.6-3.7-8.1-3.2-13.5l0.1-1.6l0.7-4.3h39.6l0.7-7.5
		c0.7-8.3-0.7-14.7-4.1-19.1C648.8,66.3,643.4,64.1,636.2,64.1L636.2,64.1z M635.6,74.3c3.3,0,5.9,1.1,7.6,3.3
		c1.7,2.2,2.5,5.1,2.1,8.8l-0.2,1.8h-26.3c1.8-4.7,4.1-8.2,6.7-10.5C628.3,75.4,631.7,74.3,635.6,74.3L635.6,74.3z"/>
	<path class="st0" d="M680.1,132.9l15.2-65.8h12.1l-2.5,10.5c4.2-4.1,8.3-7.1,12.1-9.1c3.8-2,7.6-3,11.2-3c4.7,0,8.2,1.6,10.5,4.8
		c2.3,3.1,3.3,7.6,2.8,13.3c-0.1,1.4-0.3,3-0.6,4.7c-0.3,1.7-0.6,3.4-1.1,5.3l-9,39.2h-12.1l9.4-42.4c0.3-1.4,0.5-2.6,0.7-3.8
		c0.2-1.1,0.3-2.1,0.4-2.8c0.2-2.6-0.2-4.5-1.3-5.8c-1.1-1.3-2.8-2-5.2-2c-2.9,0-6,1.1-9.4,3.3c-3.4,2.2-6.9,5.6-10.6,10l-10.4,43.4
		H680.1"/>
	<path class="st0" d="M787.9,103.6c-0.5,2.1-1,3.9-1.3,5.3c-0.3,1.5-0.5,2.8-0.6,3.8c-0.2,2.8,0.2,4.8,1.4,6.2c1.2,1.3,3.1,2,5.7,2
		c1.5,0,3.1-0.3,5-0.9c1.9-0.7,3.8-1.6,5.9-2.9l-1,11.5c-2.8,1.4-5.4,2.5-7.8,3.1c-2.4,0.7-4.7,1.1-6.7,1.1c-5,0-9-1.6-11.8-4.8
		c-2.8-3.3-4-7.6-3.5-12.9c0.1-1.4,0.4-3,0.8-4.8c0.4-1.8,1-4.1,1.8-7.1l8-28.3h-10.6l2.8-9.3h10.7l4.3-13.8h12.3L799,65.7h12.3
		l-2.8,9.3h-12.4L787.9,103.6"/>
	<path class="st0" d="M320.9,235.9c-5.2,3.1-10.5,5.4-15.9,6.9c-5.4,1.5-11.1,2.3-17.1,2.3c-6.7,0-12.9-1.1-18.6-3.2
		c-5.6-2.2-10.6-5.3-14.8-9.5c-4.4-4.4-7.7-9.5-10-15.3c-2.3-5.8-3.4-12.1-3.4-18.8c0-14.1,4.5-25.4,13.4-34
		c8.9-8.6,20.8-13,35.4-13c5.3,0,10.4,0.6,15.3,1.8c5,1.2,10,3.1,14.8,5.6V180c-4.8-3.2-9.5-5.7-14.3-7.3c-4.8-1.6-9.6-2.4-14.4-2.4
		c-8.7,0-15.6,2.5-20.6,7.4c-5,5-7.5,11.8-7.5,20.5c0,8.5,2.4,15.2,7.1,20.3c4.8,5.1,11.2,7.6,19.2,7.6c5.2,0,10.4-1,15.6-2.9
		c5.2-1.9,10.4-4.8,15.6-8.6V235.9"/>
	<path class="st0" d="M376.3,151.5c-6.8,0-12.9,1.1-18.5,3.2c-5.5,2.1-10.4,5.3-14.8,9.6c-4.5,4.5-7.8,9.6-10.1,15.4
		c-2.3,5.7-3.4,11.9-3.4,18.6c0,6.7,1.1,12.9,3.4,18.7c2.3,5.7,5.7,10.8,10.1,15.2c4.4,4.4,9.3,7.6,14.8,9.8
		c5.5,2.2,11.7,3.2,18.4,3.2c6.8,0,12.9-1.1,18.5-3.2c5.6-2.2,10.6-5.5,15-9.8c4.4-4.4,7.8-9.5,10-15.2c2.3-5.7,3.4-12,3.5-18.7
		c0-6.7-1.2-12.9-3.5-18.6c-2.3-5.7-5.6-10.9-10-15.4c-4.4-4.3-9.3-7.5-14.8-9.6C389.4,152.6,383.2,151.5,376.3,151.5L376.3,151.5z
		 M376.3,170.4c7.2,0,13.1,2.6,17.7,7.9c4.6,5.2,6.9,11.9,7,20c0,8.1-2.3,14.7-7,20c-4.6,5.2-10.5,7.8-17.7,7.8
		c-7.1,0-13-2.6-17.7-7.8c-4.6-5.2-6.9-11.9-6.9-20c0-8.1,2.3-14.8,6.9-20C363.3,173.1,369.2,170.4,376.3,170.4L376.3,170.4z"/>
	<path class="st0" d="M516.7,152.9v51.9c0,12.7-3.6,22.6-10.8,29.7c-7.1,7.1-17.1,10.6-30,10.6c-12.8,0-22.8-3.5-30-10.6
		c-7.1-7.1-10.7-17-10.7-29.7v-51.9h21.7v51c0,7.2,1.6,12.7,4.9,16.6c3.3,3.8,8,5.7,14.3,5.7c6.2,0,10.9-1.9,14.2-5.7
		c3.2-3.8,4.9-9.3,4.9-16.6v-51H516.7"/>
	<polyline class="st0" points="554.4,186.6 554.4,243.5 533.1,243.5 533.1,152.9 552,152.9 598.2,206.9 598.2,152.9 619.5,152.9 
		619.5,243.5 602.7,243.5 554.4,186.6 	"/>
	<path class="st0" d="M711.8,235.9c-5.2,3.1-10.5,5.4-15.9,6.9c-5.4,1.5-11.1,2.3-17.1,2.3c-6.7,0-12.9-1.1-18.6-3.2
		c-5.6-2.2-10.6-5.3-14.8-9.5c-4.4-4.4-7.7-9.5-10-15.3c-2.3-5.8-3.4-12.1-3.4-18.8c0-14.1,4.5-25.4,13.4-34
		c8.9-8.6,20.8-13,35.4-13c5.3,0,10.4,0.6,15.3,1.8c5,1.2,10,3.1,14.8,5.6V180c-4.8-3.2-9.5-5.7-14.3-7.3c-4.8-1.6-9.6-2.4-14.4-2.4
		c-8.7,0-15.6,2.5-20.6,7.4c-5,5-7.5,11.8-7.5,20.5c0,8.5,2.4,15.2,7.1,20.3c4.8,5.1,11.2,7.6,19.2,7.6c5.2,0,10.4-1,15.6-2.9
		c5.2-1.9,10.4-4.8,15.6-8.6V235.9"/>
	<polyline class="st0" points="725.4,243.5 725.4,152.9 747.6,152.9 747.6,243.5 725.4,243.5 	"/>
	<polyline class="st0" points="764.9,243.5 764.9,152.9 786.5,152.9 786.5,226 823.6,226 823.6,243.5 764.9,243.5 	"/>
	<path class="st0" d="M160.4,167.7c-8.7,5.8-16.3,13.4-23.1,20.9c-1,2.7-2.9,6.5-5.1,9.6l-0.1,0.2c-2.9,4.1-5.1,8-6.8,11.8
		c0,0,0,0,0,0c-0.3,0.6-0.5,1.2-0.8,1.8c-0.3,0.7-0.6,1.4-0.8,2.1c-1.3,3.7-2.1,8.7-2.2,11.9c10-7.2,19.6-17.6,26.4-27l0.1-0.1
		c2.2-3.1,4.1-5.5,7-8.3C159,182.9,160.9,173.6,160.4,167.7L160.4,167.7z"/>
	<path class="st0" d="M160.4,167.7c-11-9.7-18.7-2.4-23.1,20.9c-1,2.7-2.9,6.5-5.1,9.6l-0.1,0.2c-2.9,4.1-5.1,8-6.8,11.8
		c0,0,0,0,0,0c-0.3,0.6-0.5,1.2-0.8,1.8c-0.3,0.7-0.6,1.4-0.8,2.1c-1.3,3.7-2.1,8.7-2.2,11.9c19.3,0.1,21.8-23.4,33.5-35.5
		C159,182.9,160.9,173.6,160.4,167.7L160.4,167.7z"/>
</g>
</svg>
