<svg id="Layer_1" data-name="Layer 1" xmlns="http://www.w3.org/2000/svg" viewBox="0 0 336.46 116.62">
  <defs>
    <style>
      .cls-1 {
        fill: #fff;
      }

      .cls-2 {
        fill: #182640;
      }

      .cls-3 {
        fill: #5d4595;
      }

      .cls-4 {
        fill: #35679a;
      }
    </style>
  </defs>
  <title>logo</title>
  <polygon class="cls-1" points="0 0 336.46 0 336.46 116.62 0 116.62 0 0 0 0"/>
  <path class="cls-2" d="M82.46,84.84a20.72,20.72,0,0,0-4,.41h0C69.22,87,58,94.32,51.7,103.15l-.16.2a29.49,29.49,0,0,1-10.47,8.8l-.61.29h0l-.59.27h0l-.76.3v6a49,49,0,0,0,19.66-15.67l.17-.2a22.59,22.59,0,0,1,1.68-2.09l.54-.58a30.79,30.79,0,0,1,11.77-7.58h0l.38-.11.5-.15a14,14,0,0,1,3.41-.49h.68c5.32.35,6.58,5.09,2.43,10.94v.07a28.63,28.63,0,0,0-2.73,4.7h0c-.11.24-.2.47-.3.71s-.23.57-.33.86c-1.55,4.25-1.11,7.78,1.15,9.92l.32.29.14.12h0a4.67,4.67,0,0,0,.51.36h.07a10.53,10.53,0,0,0,5.72,1.43H86l.84-.06h.11c9.56-.94,22-8.72,28.72-18.19l.08-.11.07-.11a28.56,28.56,0,0,1,7-6.74h0a16.55,16.55,0,0,1,4.3-6.81c-3.74-.06-15.8,10.06-18.44,13.56l-.07.11-.08.11c-4.14,5.85-11.92,10.64-17.73,11H90a9.18,9.18,0,0,1-1.17-.07h-.4l-.38-.08c-3.21-.84-4.18-3.86-2.63-7.69v-.19a17,17,0,0,1,1.67-2.9l.18-.14.09-.12c7.15-10.1,5-18.29-4.69-18.29h-.17Z" transform="translate(-29.32 -28.69)"/>
  <path class="cls-3" d="M90.81,97.85v0Z" transform="translate(-29.32 -28.69)"/>
  <path class="cls-2" d="M66.66,35.3a2.74,2.74,0,0,0-2.11,1,3.23,3.23,0,0,0-.88,2.31,2.35,2.35,0,0,0,.57,1.62,2,2,0,0,0,1.52.64,2.77,2.77,0,0,0,2.07-1,3.43,3.43,0,0,0,.94-2.37,2.14,2.14,0,0,0-.6-1.59,2,2,0,0,0-1.56-.64Zm14.28,7.13a12.73,12.73,0,0,0-10.87,5.8,9.43,9.43,0,0,0-1.74,5.23,8.24,8.24,0,0,0,.43,2.6,10.31,10.31,0,0,0,1.32,2.58,32.73,32.73,0,0,0,3.06,3.28,38.21,38.21,0,0,1,3.18,3.43,9.6,9.6,0,0,1,1.39,2.58,6.46,6.46,0,0,1,.41,2.26,8.16,8.16,0,0,1-3.07,6A10.39,10.39,0,0,1,67.9,79a5.76,5.76,0,0,1-2.55-.57A4.66,4.66,0,0,1,63.55,77a7.72,7.72,0,0,1-1.11-2.74,5.71,5.71,0,0,0-.8-2.06A2,2,0,0,0,60,71.4a2.22,2.22,0,0,0-1.69.83,3,3,0,0,0-.71,2.08c0,1.57.93,3,2.78,4.46a11.11,11.11,0,0,0,6.82,2.1A16.82,16.82,0,0,0,75,79a14,14,0,0,0,5.64-4.75,10.72,10.72,0,0,0,1.92-6,8.86,8.86,0,0,0-1.26-4.34,32.51,32.51,0,0,0-5.29-6.18,17.39,17.39,0,0,1-2.86-3.48,5.92,5.92,0,0,1-.63-2.74,6.91,6.91,0,0,1,2.35-5.09,7.59,7.59,0,0,1,5.49-2.29,4.14,4.14,0,0,1,3.2,1.28,4.8,4.8,0,0,1,1.21,3.47c0,1-.11,2.54-.32,4.54H86q.6-4.89.94-6.52a30.68,30.68,0,0,1,1-3.52c-.72-.1-1.59-.24-2.58-.43A21.59,21.59,0,0,0,81,42.39ZM64.53,43.71a9.17,9.17,0,0,0-4.3,1.44,23.76,23.76,0,0,0-5.54,4.75l1.34,1a32.83,32.83,0,0,1,3.44-3.12,2.8,2.8,0,0,1,1.4-.48c.37,0,.55.2.55.6a4.27,4.27,0,0,1-.18,1.33q-4.58,14.82-4.56,18.64a2.65,2.65,0,0,0,.6,1.85,2.24,2.24,0,0,0,1.71.67,6.81,6.81,0,0,0,3.14-1.1,39,39,0,0,0,6.1-5l-1.18-1.16c-2.67,2.52-4.33,3.78-5,3.78a.57.57,0,0,1-.46-.27,1.27,1.27,0,0,1-.21-.73q0-2.23,3.23-13a57,57,0,0,0,2-7.49,1.4,1.4,0,0,0-.52-1.16,2.37,2.37,0,0,0-1.5-.43Zm37.89,1.52a19.13,19.13,0,0,0-6.86,1.18A16.45,16.45,0,0,0,90,49.93a15.63,15.63,0,0,0-4.88,11.3A15.85,15.85,0,0,0,87,68.91a16.07,16.07,0,0,0,5.41,5.79A18.06,18.06,0,0,0,97,76.8a18.34,18.34,0,0,0,5.1.69,22.16,22.16,0,0,0,5.62-.73,26.45,26.45,0,0,0,3.75-1.31v1.84H122.3A11.85,11.85,0,0,0,130,75a8.09,8.09,0,0,0,1-11.34,9.64,9.64,0,0,0-5.25-2.92,7.13,7.13,0,0,0,3.47-2.47,6.76,6.76,0,0,0,1.14-4,7.39,7.39,0,0,0-2.55-6q-2.52-2.11-7.17-2.12h-9.11v1a26.12,26.12,0,0,0-3.85-1.23,22.88,22.88,0,0,0-5.21-.6Zm0,4.19a17.35,17.35,0,0,1,5.06.78,26.3,26.3,0,0,1,4,1.56V70.63a22.42,22.42,0,0,1-3.82,1.69,17.82,17.82,0,0,1-5.51.91,12.26,12.26,0,0,1-8.83-3.38,12,12,0,0,1,.05-17l0,0a12.53,12.53,0,0,1,9-3.41Zm13.47.67h4.26a6.58,6.58,0,0,1,4.15,1,4,4,0,0,1,1.31,3.35A4.33,4.33,0,0,1,124,58.18a8.5,8.5,0,0,1-5.06,1.23h-3V50.09Zm0,13.43h5.21q3.62,0,5.28,1.21a5,5,0,0,1,.45,7.06l-.26.27a7.93,7.93,0,0,1-4.75,1.14H115.9V63.52Z" transform="translate(-29.32 -28.69)"/>
  <path class="cls-4" d="M39.64,136.78v-8.07h1.15v8.07H39.64m2.92,0v-8.07h1L48.87,135v-6.26H50v8.07H49l-5.29-6.27v6.27H42.56m11.36,0v-7h-3v-1H58v1H55v7H53.92m5.06,0v-8.07h4.85v1H60.12v2.52h3.6v1h-3.6v2.51H64v1H59m6.42,0v-8.07h2.36a2.8,2.8,0,0,1,1.89.58,2,2,0,0,1,.66,1.63,2.1,2.1,0,0,1-.36,1.28,2.18,2.18,0,0,1-1.15.73,1.53,1.53,0,0,1,.38.29,3.9,3.9,0,0,1,.46.61l2,3H70.24l-1.38-2.12a4.69,4.69,0,0,0-1-1.22,1.57,1.57,0,0,0-.91-.27H66.6v3.6H65.4m1.16-4.55h1a2,2,0,0,0,1.21-.31,1.35,1.35,0,0,0,0-1.9,2,2,0,0,0-1.23-.3h-1v2.51m5.55,4.57v-8.07h1L78.4,135v-6.26h1.15v8.07h-1l-5.31-6.29v6.27H72.1m10.71-3.41h2.51l-1.27-2.91-1.24,2.91m-2.66,3.41,3.49-8.07h.84L88,136.78H86.84l-1-2.38H82.37l-1,2.38H80.16m9.81,0v-7H87v-1H94v1H91v7H90m5.1,0v-8.07h1.17v8.07H95.06m3.71-4a3.09,3.09,0,0,0,.89,2.18,2.84,2.84,0,0,0,1,.67,3.26,3.26,0,0,0,2.38,0,3.07,3.07,0,0,0,1.67-4,3.23,3.23,0,0,0-.68-1,2.84,2.84,0,0,0-1-.67,3,3,0,0,0-2.35,0,3.38,3.38,0,0,0-1,.67,2.82,2.82,0,0,0-.66,1,3.23,3.23,0,0,0-.23,1.19m-1.23,0a3.85,3.85,0,0,1,.33-1.57,4.14,4.14,0,0,1,.93-1.34,4.34,4.34,0,0,1,1.4-.91,4.48,4.48,0,0,1,3.3,0,4.11,4.11,0,0,1,2.65,3.89,3.94,3.94,0,0,1-.33,1.59,4.07,4.07,0,0,1-.92,1.33,4.36,4.36,0,0,1-3.06,1.22,4.41,4.41,0,0,1-1.65-.32,4.33,4.33,0,0,1-1.38-.9,4,4,0,0,1-1.26-3m9.87,4.06V128.8h1l5.31,6.26V128.8h1.15v8.07h-1l-5.29-6.27v6.27h-1.14m10.71-3.41h2.51l-1.27-2.91-1.24,2.91m-2.66,3.41L119,128.8h.84l3.54,8.07H122.2l-1-2.38h-3.44l-1,2.38h-1.18m8.52,0V128.8h1.14v7h3.84v1h-5m8.5-.63v-1.54a4.13,4.13,0,0,0,1,.91,2.25,2.25,0,0,0,1.07.28,1.46,1.46,0,0,0,.95-.28.93.93,0,0,0,.35-.76,1.07,1.07,0,0,0-.24-.69,4.86,4.86,0,0,0-1.11-.86,7.36,7.36,0,0,1-1.72-1.37,1.9,1.9,0,0,1-.35-1.15,2,2,0,0,1,.66-1.54,2.46,2.46,0,0,1,1.72-.61,3.21,3.21,0,0,1,.92.14,4,4,0,0,1,.92.42v1.31a4.29,4.29,0,0,0-1-.62,2.15,2.15,0,0,0-.9-.2,1.42,1.42,0,0,0-.89.27.82.82,0,0,0-.34.69c0,.4.47.9,1.42,1.49l.17.1a5,5,0,0,1,1.52,1.27,2.42,2.42,0,0,1,.36,1.36,2,2,0,0,1-.67,1.53,2.47,2.47,0,0,1-1.71.6,3.38,3.38,0,0,1-1.18-.18,3.47,3.47,0,0,1-1-.59m6.67-3.4a3.18,3.18,0,0,0,.23,1.18,3,3,0,0,0,.66,1,2.84,2.84,0,0,0,1,.67,3.16,3.16,0,0,0,2.38,0,3.07,3.07,0,0,0,1.67-4,3.23,3.23,0,0,0-.68-1,2.84,2.84,0,0,0-1-.67,3,3,0,0,0-2.35,0,3.38,3.38,0,0,0-1,.67,2.82,2.82,0,0,0-.66,1,3.23,3.23,0,0,0-.23,1.19m-1.23,0a3.88,3.88,0,0,1,.33-1.57,4.14,4.14,0,0,1,.93-1.34,4.34,4.34,0,0,1,1.4-.91,4.48,4.48,0,0,1,3.3,0,4.11,4.11,0,0,1,2.65,3.89,3.94,3.94,0,0,1-.33,1.59,4.07,4.07,0,0,1-.92,1.33,4.36,4.36,0,0,1-3.06,1.22,4.41,4.41,0,0,1-1.65-.32,4.33,4.33,0,0,1-1.38-.9,4,4,0,0,1-1.26-3m16.74,2.15v1.3a7.53,7.53,0,0,1-1.45.57,5.89,5.89,0,0,1-1.45.19,4.89,4.89,0,0,1-1.32-.18,4.62,4.62,0,0,1-1.28-.58,4.19,4.19,0,0,1-1.4-1.5,4.09,4.09,0,0,1-.5-2,4,4,0,0,1,1.26-2.91,4.23,4.23,0,0,1,1.45-.91,4.91,4.91,0,0,1,1.78-.31,6.15,6.15,0,0,1,1.35.16,7.75,7.75,0,0,1,1.4.49v1.25a7.59,7.59,0,0,0-1.44-.61,4.48,4.48,0,0,0-1.31-.2,3.26,3.26,0,0,0-2.34.88,3.11,3.11,0,0,0,0,4.38h0a3.16,3.16,0,0,0,2.28.88,4.6,4.6,0,0,0,1.42-.24,6.4,6.4,0,0,0,1.46-.72m1.35,1.91v-8.07h1.15v8.07H156m2.92,0v-8.07h4.85v1h-3.71v2.51h3.6v1h-3.6v2.51h3.83v1h-5m8.61,0v-7h-3v-1h7.07v1h-3v7h-1.15m7,0v-4l-3.11-4h1.37L175,131.8l2.41-3.06h1.39l-3.23,4.09v4h-1.17m7.94,0v-8.07H187v1h-3.45v2.39h3.34v1h-3.34v3.62h-1.14m6.74-4A3.09,3.09,0,0,0,190,135a2.84,2.84,0,0,0,1,.67,3.26,3.26,0,0,0,2.38,0,3.07,3.07,0,0,0,1.67-4,3.23,3.23,0,0,0-.68-1,2.84,2.84,0,0,0-1-.67,3,3,0,0,0-2.35,0,3.38,3.38,0,0,0-1,.67,2.82,2.82,0,0,0-.66,1,3.23,3.23,0,0,0-.23,1.19m-1.23,0a3.85,3.85,0,0,1,.33-1.57,4.14,4.14,0,0,1,.93-1.34,4.34,4.34,0,0,1,1.4-.91,4.48,4.48,0,0,1,3.3,0,4.11,4.11,0,0,1,2.65,3.89,3.94,3.94,0,0,1-.33,1.59,4.07,4.07,0,0,1-.92,1.33A4.36,4.36,0,0,1,192.2,137a4.41,4.41,0,0,1-1.65-.32,4.33,4.33,0,0,1-1.38-.9,4,4,0,0,1-1.26-3m9.85,4.06v-8.07h2.48a2.8,2.8,0,0,1,1.89.58,2,2,0,0,1,.66,1.63,2.1,2.1,0,0,1-.36,1.28,2.18,2.18,0,0,1-1.15.73,1.53,1.53,0,0,1,.38.29,3.9,3.9,0,0,1,.46.61l2,3h-1.4l-1.48-2.25a4.69,4.69,0,0,0-1-1.22,1.57,1.57,0,0,0-.91-.27H199v3.6h-1.16M199,132.2h1a2,2,0,0,0,1.21-.31,1.35,1.35,0,0,0,0-1.9,2,2,0,0,0-1.23-.3h-1v2.54m15.39,2.66v1.3a7.53,7.53,0,0,1-1.45.57,5.89,5.89,0,0,1-1.45.19,4.89,4.89,0,0,1-1.32-.18,4.41,4.41,0,0,1-1.19-.54,4.19,4.19,0,0,1-1.4-1.5,4.09,4.09,0,0,1-.5-2,4,4,0,0,1,1.26-2.91,4.23,4.23,0,0,1,1.45-.91,4.91,4.91,0,0,1,1.78-.31,6.15,6.15,0,0,1,1.35.16,7.75,7.75,0,0,1,1.4.49v1.25a7.59,7.59,0,0,0-1.44-.61,4.48,4.48,0,0,0-1.31-.2,3.26,3.26,0,0,0-2.34.88,3.11,3.11,0,0,0,0,4.38h0a3.16,3.16,0,0,0,2.28.88,4.6,4.6,0,0,0,1.42-.24,6.4,6.4,0,0,0,1.46-.72m2.11-2.11a3.18,3.18,0,0,0,.23,1.18,3,3,0,0,0,.66,1,2.84,2.84,0,0,0,1,.67,3.26,3.26,0,0,0,2.38,0,3.07,3.07,0,0,0,1.67-4,3.23,3.23,0,0,0-.68-1,2.84,2.84,0,0,0-1-.67,3,3,0,0,0-2.35,0,3.38,3.38,0,0,0-1,.67,2.82,2.82,0,0,0-.66,1,3.23,3.23,0,0,0-.23,1.19m-1.23,0a3.88,3.88,0,0,1,.33-1.57,4.14,4.14,0,0,1,.93-1.34,4.34,4.34,0,0,1,1.4-.91,4.48,4.48,0,0,1,3.3,0,4.11,4.11,0,0,1,2.65,3.89,3.94,3.94,0,0,1-.33,1.59,4.07,4.07,0,0,1-.92,1.33,4.36,4.36,0,0,1-3.06,1.22,4.41,4.41,0,0,1-1.65-.32,4.33,4.33,0,0,1-1.38-.9,4,4,0,0,1-1.26-3m9.87,4.06v-8.07h1l2.9,3.39,2.91-3.39h1v8.07h-1.12v-6.3L229,133.81l-2.79-3.33v6.3h-1.12m10.69-4.5h1.25a2,2,0,0,0,1.22-.3,1.41,1.41,0,0,0,0-1.93,1.88,1.88,0,0,0-1.22-.31h-1.22v2.53m-1.14,4.5V128.7h2.54a2.94,2.94,0,0,1,2,.61A2.14,2.14,0,0,1,240,131a2.1,2.1,0,0,1-.71,1.68,2.94,2.94,0,0,1-2,.61h-1.4v3.47H234.7M241,128.7h1.15v4.63a5.05,5.05,0,0,0,.08,1.1,1.48,1.48,0,0,0,.28.56,2.31,2.31,0,0,0,.85.63,2.81,2.81,0,0,0,1.11.21,2.52,2.52,0,0,0,1.69-.54,1.78,1.78,0,0,0,.64-1.43v-5.15H248v5.18a2.77,2.77,0,0,1-1,2.19,3.69,3.69,0,0,1-2.51.84,4,4,0,0,1-1.65-.32,3.38,3.38,0,0,1-1.25-1,2.42,2.42,0,0,1-.44-.84,5.65,5.65,0,0,1-.13-1.42v-4.68m10.81,8.07v-7h-3v-1h7.07v1h-3v7h-1.15m5.74-3.41H260l-1.27-2.91-1.24,2.91m-2.66,3.41,3.49-8.07h.93l3.54,8.07h-1.19l-1-2.38h-3.45l-1,2.38H255m9.81,0v-7h-3v-1h7.07v1h-3v7h-1.1m5.1,0v-8.07H271v8.07h-1.15m3.71-4a3.09,3.09,0,0,0,.89,2.18,2.84,2.84,0,0,0,1,.67,3.26,3.26,0,0,0,2.38,0,3.07,3.07,0,0,0,1.67-4,3.23,3.23,0,0,0-.68-1,2.84,2.84,0,0,0-1-.67,3,3,0,0,0-2.35,0,3.38,3.38,0,0,0-1,.67,2.82,2.82,0,0,0-.66,1,3.23,3.23,0,0,0-.23,1.19m-1.23,0a3.88,3.88,0,0,1,.33-1.57,4.14,4.14,0,0,1,.93-1.34A4.34,4.34,0,0,1,275,129a4.48,4.48,0,0,1,3.3,0,4.11,4.11,0,0,1,2.65,3.89,3.94,3.94,0,0,1-.33,1.59,4.07,4.07,0,0,1-.92,1.33,4.36,4.36,0,0,1-3.06,1.22,4.41,4.41,0,0,1-1.65-.32,4.33,4.33,0,0,1-1.38-.9,4,4,0,0,1-1.26-3m9.87,4.06v-8.07h1l5.31,6.26v-6.26h1.15v8.07h-1l-5.29-6.27v6.27h-1.14M293,133.41h2.51l-1.27-2.91L293,133.41m-2.72,3.37,3.49-8.07h.84l3.54,8.07h-1.19l-1-2.38h-3.44l-1,2.38h-1.24m8.52,0v-8.07h1.14v7h3.84v1h-5m10.08-3.48v2.5h1.53a2,2,0,0,0,1.23-.29,1.29,1.29,0,0,0,.08-1.82.6.6,0,0,0-.08-.08,2.33,2.33,0,0,0-1.37-.31h-1.35m-1.14,3.55v-8.07h2.36a2.82,2.82,0,0,1,1.86.55,1.91,1.91,0,0,1,.66,1.56,1.7,1.7,0,0,1-.29,1,1.87,1.87,0,0,1-.9.64,2.5,2.5,0,0,1,1.36.76,2,2,0,0,1,.48,1.33,2,2,0,0,1-.74,1.6,3.1,3.1,0,0,1-2,.59h-2.8m1.14-4.61h.78a2.23,2.23,0,0,0,1.31-.32,1.12,1.12,0,0,0,.43-1A1,1,0,0,0,311,130a1.69,1.69,0,0,0-1.07-.27h-1.1v2.42m5.72,4.61v-8.07h1.15v8.07h-1.19m3.71-4a3.18,3.18,0,0,0,.23,1.18,3,3,0,0,0,.66,1,2.84,2.84,0,0,0,1,.67,3.26,3.26,0,0,0,2.38,0,3.07,3.07,0,0,0,1.67-4,3.23,3.23,0,0,0-.68-1,2.84,2.84,0,0,0-1-.67,3,3,0,0,0-2.35,0,3.38,3.38,0,0,0-1,.67,2.82,2.82,0,0,0-.66,1,3.23,3.23,0,0,0-.23,1.19m-1.23,0a3.85,3.85,0,0,1,.33-1.57,4.14,4.14,0,0,1,.93-1.34,4.34,4.34,0,0,1,1.4-.91,4.48,4.48,0,0,1,3.3,0,4.11,4.11,0,0,1,2.65,3.89,3.94,3.94,0,0,1-.33,1.59,4.07,4.07,0,0,1-.92,1.33,4.36,4.36,0,0,1-3.06,1.22,4.41,4.41,0,0,1-1.65-.32,4.33,4.33,0,0,1-1.38-.9,4,4,0,0,1-1.26-3M327,136.8v-8.07h1.14v7h3.84v1h-5m6.31-4a3.18,3.18,0,0,0,.23,1.18,3,3,0,0,0,.66,1,2.84,2.84,0,0,0,1,.67,3.26,3.26,0,0,0,2.38,0,3.07,3.07,0,0,0,1.67-4,3.23,3.23,0,0,0-.68-1,2.84,2.84,0,0,0-1-.67,3,3,0,0,0-2.35,0,3.38,3.38,0,0,0-1,.67,2.82,2.82,0,0,0-.66,1,3.23,3.23,0,0,0-.23,1.19m-1.23,0a3.85,3.85,0,0,1,.33-1.57,4.14,4.14,0,0,1,.93-1.34,4.34,4.34,0,0,1,1.4-.91,4.48,4.48,0,0,1,3.3,0,4.11,4.11,0,0,1,2.65,3.89,3.94,3.94,0,0,1-.33,1.59,4.07,4.07,0,0,1-.92,1.33,4.36,4.36,0,0,1-3.06,1.22,4.41,4.41,0,0,1-1.65-.32,4.33,4.33,0,0,1-1.38-.9,4,4,0,0,1-1.26-3m16.74.11v3.36a9,9,0,0,1-1.51.52,5.61,5.61,0,0,1-1.35.17,5.31,5.31,0,0,1-1.37-.18,4.13,4.13,0,0,1-3.07-4,4,4,0,0,1,1.26-2.91,4.13,4.13,0,0,1,1.44-.92,5,5,0,0,1,1.79-.3,5.6,5.6,0,0,1,1.35.16,7.62,7.62,0,0,1,1.39.48v1.25a7.59,7.59,0,0,0-1.44-.61,4.48,4.48,0,0,0-1.31-.2,3.26,3.26,0,0,0-2.34.88,3.09,3.09,0,0,0,0,4.37l0,0a3.14,3.14,0,0,0,2.29.88,3.84,3.84,0,0,0,.83-.09,5.39,5.39,0,0,0,.86-.28v-1.56H346v-1.07h2.7m3.21,4v-4l-3.11-4h1.4l2.35,3.06,2.41-3.06h1.39l-3.23,4.09v4H352" transform="translate(-29.32 -28.69)"/>
  <path class="cls-4" d="M51.24,85A34,34,0,0,0,39,89v5.88a19.64,19.64,0,0,1,8.67-2.65h.27c5.89,0,7.08,5,2.75,11.12h0c-5.85,8.23-5.53,15.18.09,17.47a9.62,9.62,0,0,0,1.38.44,12.4,12.4,0,0,0,1.5.28h.07l.78.06h1.06c4.27,0,9.29-1.57,14.2-4.17h0l1-.56h0l1-.6.55-.33.5-.29h0l1-.65h0a47,47,0,0,0,12.42-11.51l.05-.06c3.78-5.32,10.8-10,16.44-11h0a12.56,12.56,0,0,1,2.12-.19h0c5.89,0,7.42,4.88,3.09,11v.07a28.68,28.68,0,0,0-2.74,4.7h0c-.11.24-.2.47-.3.71s-.23.57-.33.86c-1.56,4.25-1.12,7.78,1.15,9.92l.32.29.14.12h0a5.88,5.88,0,0,0,.51.36h.07a10.6,10.6,0,0,0,5.74,1.43h.16A29.73,29.73,0,0,0,127,117.58l-.45-.42a17.64,17.64,0,0,1-2.75-3.94,14.55,14.55,0,0,1-6,1.16h-.07a6.26,6.26,0,0,1-3.85-1.08l-.29-.24-.26-.27a3.15,3.15,0,0,1-.22-.29,3.28,3.28,0,0,1-.2-.31l-.06-.08-.12-.24a3.65,3.65,0,0,1-.14-.35c-.71-2,0-4.92,2.31-8.15l.07-.1.08-.12c7.18-10.1,5.07-18.29-4.71-18.29h-.11a21.54,21.54,0,0,0-4,.41h-.06c-9.28,1.7-20.59,9.07-26.87,17.9l-.16.2a29.44,29.44,0,0,1-10.51,8.8l-.6.29H68l-.59.27h0a17.68,17.68,0,0,1-6.68,1.55h-.65a7.4,7.4,0,0,1-1.24-.17h-.14c-4.13-1-4.64-5.46-.85-10.78l.12-.2C65.14,93,63,84.84,53.26,84.84H52.9l-1.57.08Z" transform="translate(-29.32 -28.69)"/>
  <path class="cls-4" d="M142.1,74.23l1.34-5.71A21.49,21.49,0,0,0,148,71.3a10.89,10.89,0,0,0,4.13.88,6.22,6.22,0,0,0,4.23-1.5,5.68,5.68,0,0,0,1.93-3.89q.24-2.78-5.12-7.78l-.27-.26a23.31,23.31,0,0,1-5.06-6.08,10.48,10.48,0,0,1-1-5.65,11.05,11.05,0,0,1,4.1-7.79,13.78,13.78,0,0,1,12.14-2.7,27,27,0,0,1,3.83,1.31l-1.06,5.28a17.32,17.32,0,0,0-3.38-1.5,9.59,9.59,0,0,0-3-.51,8.24,8.24,0,0,0-5.1,1.56,5.47,5.47,0,0,0-2.24,4q-.27,3,5.17,8.18l.6.57.27.26q5.79,5.45,5.34,10.51a11.68,11.68,0,0,1-3.78,8,12.24,12.24,0,0,1-8.52,3,14.54,14.54,0,0,1-4.58-.74,18.92,18.92,0,0,1-4.5-2.24" transform="translate(-29.32 -28.69)"/>
  <path class="cls-4" d="M182.24,65.39q-.33,1.24-.51,2.13a13.16,13.16,0,0,0-.24,1.53,3.33,3.33,0,0,0,.54,2.47,2.92,2.92,0,0,0,2.28.8,6.21,6.21,0,0,0,2-.37,12.14,12.14,0,0,0,2.34-1.16l-.4,4.6a16.44,16.44,0,0,1-3.11,1.25,9.38,9.38,0,0,1-2.68.43,6,6,0,0,1-4.72-1.93A6.63,6.63,0,0,1,176.33,70a15.32,15.32,0,0,1,.3-1.9c.15-.7.4-1.64.73-2.81l3.2-11.3h-4.21l1.11-3.72h4.27l1.7-5.51h4.91l-1.65,5.47h4.91L190.46,54h-4.94l-3.28,11.44" transform="translate(-29.32 -28.69)"/>
  <path class="cls-4" d="M225.15,50.23l-6,26.24h-4.8l.89-4.24a21,21,0,0,1-4.83,3.66A9.89,9.89,0,0,1,206,77.05a4.93,4.93,0,0,1-4.21-1.87,7.68,7.68,0,0,1-1.07-5.31c0-.59.13-1.21.24-1.87s.25-1.38.43-2.16L205,50.23h4.78l-3.67,16.7c-.12.53-.23,1-.32,1.5a7.82,7.82,0,0,0-.15,1.11,3.11,3.11,0,0,0,.53,2.33,2.66,2.66,0,0,0,2.09.77A6.89,6.89,0,0,0,212,71.31a21.12,21.12,0,0,0,4.23-4l4.11-17.08h4.8" transform="translate(-29.32 -28.69)"/>
  <path class="cls-4" d="M257.16,37.05l-2.92,12.81h-1.1a22.18,22.18,0,0,0-6.22.8,15.59,15.59,0,0,0-5,2.39,18.67,18.67,0,0,0-5.28,5.7,16.7,16.7,0,0,0-2.3,7.1q-.47,5.31,2.73,8.38t9.32,3.07a22.18,22.18,0,0,0,2.52-.11c1-.11,2.3-.17,3.86-.34l9.12-39.78ZM252,54.23h1.16L248.94,72.8a9.93,9.93,0,0,1-1.21.23c-.42,0-.89.06-1.41.06A6.65,6.65,0,0,1,241,70.9a7.55,7.55,0,0,1-1.57-5.79,11.5,11.5,0,0,1,3.87-7.87A12.6,12.6,0,0,1,252,54.17Z" transform="translate(-29.32 -28.69)"/>
  <path class="cls-4" d="M281.24,49.63a11.72,11.72,0,0,0-9,4.26,18.24,18.24,0,0,0-4.35,10.8,12.27,12.27,0,0,0,2.22,8.92,8.91,8.91,0,0,0,7.42,3.46,13.63,13.63,0,0,0,4.25-.71,20,20,0,0,0,4.45-2.24l1.25-5.29a24.84,24.84,0,0,1-5,3,10.56,10.56,0,0,1-4.18.93,4.89,4.89,0,0,1-4.13-2.13,7.69,7.69,0,0,1-1.29-5.37l.06-.65.26-1.73h15.74l.26-3c.29-3.33-.26-5.87-1.63-7.61S284.09,49.65,281.24,49.63ZM281,53.69A3.68,3.68,0,0,1,284,55a4.75,4.75,0,0,1,.85,3.52l-.06.71H274.24a9.86,9.86,0,0,1,2.69-4.17,6,6,0,0,1,4-1.37Z" transform="translate(-29.32 -28.69)"/>
  <path class="cls-4" d="M298.69,77.06l6.07-26.24h4.8l-1,4.2a21.68,21.68,0,0,1,4.83-3.63,9.61,9.61,0,0,1,4.45-1.19A4.79,4.79,0,0,1,322,52.1a7.57,7.57,0,0,1,1.1,5.31c-.05.57-.13,1.19-.24,1.87s-.26,1.39-.43,2.13l-3.58,15.65h-4.8l3.75-16.92c.12-.55.22-1,.29-1.5s.12-.82.15-1.11a3,3,0,0,0-.53-2.3,2.57,2.57,0,0,0-2.09-.8,6.89,6.89,0,0,0-3.73,1.33,21.12,21.12,0,0,0-4.23,4l-4.16,17.32h-4.83" transform="translate(-29.32 -28.69)"/>
  <path class="cls-4" d="M341.68,65.39q-.33,1.24-.51,2.13a13.16,13.16,0,0,0-.24,1.53,3.33,3.33,0,0,0,.54,2.47,2.92,2.92,0,0,0,2.28.8,6.21,6.21,0,0,0,2-.37,12.14,12.14,0,0,0,2.34-1.16l-.4,4.6a16.44,16.44,0,0,1-3.11,1.25,9.38,9.38,0,0,1-2.68.43,6,6,0,0,1-4.72-1.93A6.63,6.63,0,0,1,335.77,70a15.32,15.32,0,0,1,.3-1.9c.15-.7.4-1.64.73-2.81L340,54h-4.21l1.11-3.72h4.27l1.7-5.51h4.91l-1.67,5.47H351L349.88,54h-4.94l-3.27,11.41" transform="translate(-29.32 -28.69)"/>
  <path class="cls-2" d="M155.46,118.14a25.82,25.82,0,0,1-6.33,2.76,25.21,25.21,0,0,1-6.8.9,20.58,20.58,0,0,1-7.41-1.29,16.82,16.82,0,0,1-5.89-3.8,17.81,17.81,0,0,1-4-6.09,20.6,20.6,0,0,1-1.35-7.49q0-8.41,5.33-13.56t14.12-5.17a26.17,26.17,0,0,1,6.11.72,26.76,26.76,0,0,1,5.92,2.22v8.47a23.13,23.13,0,0,0-5.72-2.89,18.15,18.15,0,0,0-5.75-1,10.37,10.37,0,0,0-11.2,11.19,11.3,11.3,0,0,0,2.85,8.08,10,10,0,0,0,7.66,3,18.06,18.06,0,0,0,6.21-1.14,26.26,26.26,0,0,0,6.21-3.41v8.44" transform="translate(-29.32 -28.69)"/>
  <path class="cls-2" d="M177.59,84.47a20.45,20.45,0,0,0-7.35,1.26,17,17,0,0,0-5.89,3.85,17.93,17.93,0,0,0-4,6.12,21,21,0,0,0,0,14.87,17.94,17.94,0,0,0,4,6.05,17.35,17.35,0,0,0,5.91,3.9,21.5,21.5,0,0,0,14.71,0,17.82,17.82,0,0,0,10-10,20.82,20.82,0,0,0,0-14.87,17.93,17.93,0,0,0-4-6.12,17.09,17.09,0,0,0-5.91-3.82,20.43,20.43,0,0,0-7.42-1.3Zm0,7.57a9,9,0,0,1,7,3.13,12.82,12.82,0,0,1,0,15.93,9.56,9.56,0,0,1-13.51.58c-.2-.18-.39-.38-.58-.58a12.9,12.9,0,0,1,0-15.93,9,9,0,0,1,7-3.13Z" transform="translate(-29.32 -28.69)"/>
  <path class="cls-2" d="M233.54,85v20.69q0,7.59-4.3,11.85t-12,4.24q-7.67,0-12-4.24T201,105.73V85h8.64v20.32c0,2.87.67,5.08,2,6.61a7.12,7.12,0,0,0,5.7,2.27A7,7,0,0,0,223,112c1.29-1.51,1.94-3.72,1.94-6.61V85h8.59" transform="translate(-29.32 -28.69)"/>
  <polyline class="cls-2" points="219.27 69.77 219.27 92.47 210.77 92.47 210.77 56.34 218.31 56.34 236.73 77.88 236.73 56.34 245.22 56.34 245.22 92.47 238.49 92.47 219.27 69.77"/>
  <path class="cls-2" d="M311.32,118.14A25.82,25.82,0,0,1,305,120.9a25.21,25.21,0,0,1-6.8.9,20.58,20.58,0,0,1-7.41-1.29,16.82,16.82,0,0,1-5.89-3.8,17.81,17.81,0,0,1-4-6.09,20.6,20.6,0,0,1-1.35-7.49q0-8.41,5.33-13.56T299,84.4a26.17,26.17,0,0,1,6.11.72A26.76,26.76,0,0,1,311,87.34v8.47a23.13,23.13,0,0,0-5.72-2.89,18.15,18.15,0,0,0-5.75-1,10.37,10.37,0,0,0-11.2,11.19,11.29,11.29,0,0,0,2.89,8.12,10,10,0,0,0,7.66,3,18.06,18.06,0,0,0,6.21-1.14,26.26,26.26,0,0,0,6.21-3.41v8.44" transform="translate(-29.32 -28.69)"/>
  <polyline class="cls-2" points="287.43 92.47 287.43 56.34 296.29 56.34 296.29 92.47 287.43 92.47"/>
  <polyline class="cls-2" points="303.19 92.47 303.19 56.34 311.78 56.34 311.78 85.5 326.59 85.5 326.59 92.47 303.19 92.47"/>
  <path class="cls-2" d="M91.49,91a49.94,49.94,0,0,0-9.25,8.35,19,19,0,0,1-2,3.81v.07a28.63,28.63,0,0,0-2.73,4.7h0c-.11.24-.2.47-.3.71s-.23.57-.33.86a18.58,18.58,0,0,0-.9,4.73,49.56,49.56,0,0,0,10.46-10.74v-.06a22.1,22.1,0,0,1,2.8-3.31A18.48,18.48,0,0,0,91.46,91Z" transform="translate(-29.32 -28.69)"/>
  <path class="cls-2" d="M91.49,91c-4.38-3.85-7.46-1-9.23,8.35a19,19,0,0,1-2,3.81v.07a28.63,28.63,0,0,0-2.73,4.7h0c-.11.24-.2.47-.3.71s-.23.57-.33.86a18.58,18.58,0,0,0-.9,4.73c7.7,0,8.7-9.32,13.34-14.13a18.48,18.48,0,0,0,2.22-9.12Z" transform="translate(-29.32 -28.69)"/>
</svg>
